<svg xmlns="http://www.w3.org/2000/svg" viewBox="0 0 500 500"><g id="freepik--Clouds--inject-52"><path id="freepik--Cloud--inject-52" d="M39.92,244.71a13.58,13.58,0,0,1,4.57-.84c1.47-.12,1.94-.41,2.23-.73a10.89,10.89,0,0,1,13.08-3.87c.87-3.54,5.15-6.61,9.87-5.58-.16-4.6,5.71-9.54,11-10.66,5.07-1.08,9.48-.63,12.36,2.7,3.09-6,15.21-7.74,21.77-4.54,3.77,1.83,7,3.72,8.53,7.17a14.44,14.44,0,0,1,1.42,6.87c2.55-2.25,7.67-2.86,11.08-1.54,3.68,1.42,4,4.2,4.14,7a12.86,12.86,0,0,1,6.7-.12c2.32.68,3.65,2.5,3.34,4,1.83-.11,6.2,1.38,5.7,3.31-.57,2.18-5.56,2-7.42,1.89a35.18,35.18,0,0,1-5.22-.82,8,8,0,0,1-2.71.51c-3.18,0-4.52-1.38-5-2.56-1.55,3.26-7.07,5.75-11,6.75-7.35,1.88-17.74.73-22.27-4.76a8.14,8.14,0,0,1-2.19,2.67,12.63,12.63,0,0,1-6.79,2.75c-3,.28-11.12.67-13.4-4.13-1.61,3.19-8.82,4.65-14.3,3.87a22.55,22.55,0,0,1-6.14-1.86,36.18,36.18,0,0,1-3.53-2.11c-1.08-.65-1.56-.64-3-.21-3.77,1.14-8.13,1.6-12,0C37.69,248.58,37.05,246,39.92,244.71Z" style="fill:#e0e0e0"></path><path id="freepik--cloud--inject-52" d="M475.06,85.06c-3.48,1.45-7.42,1-10.83,0-1.3-.39-1.74-.4-2.71.19a33.62,33.62,0,0,1-3.19,1.91,20.29,20.29,0,0,1-5.55,1.67c-5,.71-11.48-.61-12.94-3.49-2.06,4.34-9.38,4-12.11,3.73a11.38,11.38,0,0,1-6.14-2.49,7.31,7.31,0,0,1-2-2.41c-4.09,5-13.49,6-20.13,4.3-3.53-.9-8.52-3.15-9.92-6.1-.46,1.07-1.68,2.3-4.55,2.32a7.31,7.31,0,0,1-2.45-.47,30.88,30.88,0,0,1-4.72.74c-1.69.07-6.2.27-6.71-1.7-.45-1.75,3.5-3.09,5.16-3-.29-1.33.92-3,3-3.6a11.69,11.69,0,0,1,6.06.11c.16-2.55.42-5,3.74-6.34,3.09-1.19,7.71-.64,10,1.39a13.1,13.1,0,0,1,1.29-6.21c1.41-3.12,4.3-4.83,7.71-6.49,5.93-2.88,16.89-1.34,19.68,4.11,2.61-3,6.6-3.42,11.17-2.44,4.77,1,10.08,5.48,9.94,9.64,4.26-.93,8.13,1.84,8.92,5A9.86,9.86,0,0,1,469.66,79c.26.29.68.55,2,.66a12.33,12.33,0,0,1,4.12.76C478.4,81.58,477.82,83.9,475.06,85.06Z" style="fill:#f0f0f0"></path><path id="freepik--cloud--inject-52" d="M373.21,59.06a14.76,14.76,0,0,0-5-.92c-1.61-.13-2.12-.45-2.42-.79a11.87,11.87,0,0,0-14.23-4.21c-.94-3.84-5.6-7.18-10.72-6.06.17-5-6.21-10.37-11.94-11.59-5.5-1.17-10.3-.68-13.44,2.94C312.14,31.87,299,30,291.85,33.49c-4.1,2-7.57,4-9.27,7.8A15.56,15.56,0,0,0,281,48.76c-2.77-2.45-8.34-3.11-12-1.68-4,1.55-4.31,4.56-4.5,7.63a14,14,0,0,0-7.29-.13c-2.51.74-4,2.72-3.62,4.32-2-.11-6.74,1.5-6.2,3.61.62,2.36,6,2.12,8.06,2a37.33,37.33,0,0,0,5.67-.89,8.56,8.56,0,0,0,2.95.56c3.46,0,4.92-1.5,5.47-2.79,1.69,3.55,7.69,6.26,11.93,7.34,8,2,19.28.8,24.2-5.17A8.73,8.73,0,0,0,308,66.5a13.74,13.74,0,0,0,7.38,3c3.28.31,12.08.73,14.56-4.48,1.76,3.46,9.59,5,15.55,4.2a24.36,24.36,0,0,0,6.67-2,38,38,0,0,0,3.83-2.3c1.18-.7,1.71-.69,3.27-.22,4.09,1.23,8.84,1.73,13,0C375.64,63.26,376.34,60.47,373.21,59.06Z" style="fill:#e0e0e0"></path></g><g id="freepik--Coins--inject-52"><g id="freepik--Coin--inject-52"><path d="M464.8,342.3l2.64,1.19-2.46,5.4h0a7.8,7.8,0,0,1-1.14,1.8c-.16.19-.33.37-.51.55a10.43,10.43,0,0,1-3.19,2.11,12.61,12.61,0,0,1-1.35.51c-.48.16-1,.3-1.51.42a18,18,0,0,1-2.08.35c-.76.09-1.54.15-2.34.17-.6,0-1.21,0-1.83,0-9.08-.33-19.78-4.74-27-11.13-.5-.44-1-.88-1.43-1.34-.66-.64-1.28-1.31-1.86-2s-.91-1.11-1.31-1.66-.66-.95-.94-1.42-.55-.94-.78-1.4h0a13.63,13.63,0,0,1-1.35-4c0-.27-.08-.54-.1-.81a8.42,8.42,0,0,1,.33-3.28,7.45,7.45,0,0,1,.36-.93h0l2.32-5.11,2.42,1.09c.28-.12.58-.24.89-.35a18.62,18.62,0,0,1,3.91-.87c.84-.1,1.71-.16,2.59-.18a31.64,31.64,0,0,1,3.48.14,47.05,47.05,0,0,1,23.57,9.72c1,.78,1.91,1.6,2.78,2.44a29.79,29.79,0,0,1,2.05,2.18,24.79,24.79,0,0,1,2.45,3.4A16.9,16.9,0,0,1,464.8,342.3Z" style="fill:#e0e0e0"></path><path d="M428.65,347.18l5-11,3.82,2.25-5,11C431.16,348.74,429.88,348,428.65,347.18Z" style="fill:#fff;opacity:0.15"></path><path d="M465,348.89h0a7.8,7.8,0,0,1-1.14,1.8c-.16.19-.33.37-.51.55a10.43,10.43,0,0,1-3.19,2.11l-.48.2,5.13-11.28v0l2.64,1.19Z" style="opacity:0.05"></path><path d="M453.9,337.76l2.28.45-7.5,16.41c-.75-.08-1.52-.19-2.28-.32Z" style="fill:#fff;opacity:0.15"></path><path d="M440.59,352.87l6.48-14.24,3.88,2.13-6,13.26C443.48,353.71,442,353.33,440.59,352.87Z" style="fill:#fff;opacity:0.15"></path><path d="M419.26,321.75l2.42,1.09c.28-.12.58-.24.89-.35a18.62,18.62,0,0,1,3.91-.87c.84-.1,1.71-.16,2.59-.18a31.64,31.64,0,0,1,3.48.14c1.12.11,2.26.28,3.4.5l-10.4,22.86c-.53-.42-1-.85-1.53-1.28s-1-.88-1.43-1.34c-.66-.64-1.28-1.31-1.86-2s-.91-1.11-1.31-1.66-.66-.95-.94-1.42-.55-.94-.78-1.4h0a13.63,13.63,0,0,1-1.35-4c0-.27-.08-.54-.1-.81a8.42,8.42,0,0,1,.33-3.28,7.45,7.45,0,0,1,.36-.93h0Z" style="fill:#fff;opacity:0.15"></path><path d="M416.35,331.88c0-.27-.08-.54-.1-.81a8.42,8.42,0,0,1,.33-3.28,7.45,7.45,0,0,1,.36-.93h0l2.32-5.11,2.42,1.09,0,0,.68.67-5.17,11.36A13.41,13.41,0,0,1,416.35,331.88Z" style="fill:#fff;opacity:0.15"></path><path d="M463.58,330.14c-.64-.74-1.32-1.47-2.05-2.17a36.57,36.57,0,0,0-2.78-2.45,47.13,47.13,0,0,0-23.57-9.71,29.35,29.35,0,0,0-3.48-.14,24.14,24.14,0,0,0-2.59.17,18.61,18.61,0,0,0-3.91.88,11.7,11.7,0,0,0-3.41,1.8,7.94,7.94,0,0,0-2.8,4,8.5,8.5,0,0,0-.33,3.29c0,.26.06.53.1.81a14,14,0,0,0,1.35,4h0c.23.46.49.93.78,1.39s.6.95.95,1.43.83,1.1,1.3,1.66,1.2,1.35,1.86,2c.46.46.93.9,1.43,1.33,7.23,6.4,17.93,10.81,27,11.14.62,0,1.23,0,1.83,0,.8,0,1.58-.08,2.34-.17a20.41,20.41,0,0,0,2.08-.36,13.31,13.31,0,0,0,1.51-.41,12.79,12.79,0,0,0,1.36-.51,10.38,10.38,0,0,0,3.18-2.11c.18-.18.35-.36.52-.55a8,8,0,0,0,1.51-2.8,9.47,9.47,0,0,0-.06-5.14,15.58,15.58,0,0,0-1.68-3.9A24.26,24.26,0,0,0,463.58,330.14Z" style="fill:#f0f0f0"></path><path d="M428,339.65c-.53-.42-1-.85-1.54-1.3s-1-.87-1.43-1.33c-.66-.64-1.28-1.31-1.86-2s-.91-1.11-1.3-1.66-.66-.95-.95-1.43-.55-.93-.78-1.39h0a14,14,0,0,1-1.35-4c0-.28-.08-.55-.1-.81a8.5,8.5,0,0,1,.33-3.29,7.94,7.94,0,0,1,2.8-4,11.7,11.7,0,0,1,3.41-1.8,18.61,18.61,0,0,1,3.91-.88c.75-.09,1.51-.14,2.3-.16Z" style="fill:#fff;opacity:0.15"></path><path d="M419.63,329.5a12.84,12.84,0,0,1-.87-2.92c0-.28-.08-.55-.1-.81a8.5,8.5,0,0,1,.33-3.29,7.85,7.85,0,0,1,2.12-3.37Z" style="fill:#fff;opacity:0.15"></path><path d="M434.87,344.14q-2-1-3.81-2.26l3.74-26.1.38,0a36.94,36.94,0,0,1,3.67.54Z" style="fill:#fff;opacity:0.15"></path><path d="M447.33,348.72c-1.44-.31-2.88-.69-4.33-1.15l4.12-28.73c1.43.57,2.84,1.22,4.21,1.93Z" style="fill:#fff;opacity:0.15"></path><path d="M451.1,349.32c-.76-.08-1.53-.19-2.3-.33l3.93-27.47c.74.41,1.46.84,2.17,1.28Z" style="fill:#fff;opacity:0.15"></path><path d="M464.49,331.29h0c.24.31.47.62.68.93l.21.31.21.32.44.7a15.58,15.58,0,0,1,1.68,3.9,9.47,9.47,0,0,1,.06,5.14,8,8,0,0,1-1.51,2.8c-.17.19-.34.37-.52.55a10.38,10.38,0,0,1-3.18,2.11l-.49.2Z" style="fill:#e0e0e0;opacity:0.30000000000000004"></path><path d="M458.38,330.71c-5.66-6.61-16.48-11.24-24.67-10.69-.35,0-.7.05-1,.1-8.3,1-10.24,7.45-4.34,14.34s17.41,11.63,25.7,10.6l1-.16C462.49,343.5,464,337.32,458.38,330.71Z" style="fill:#e0e0e0"></path><path d="M457.71,330.79l-.56-.63c-5.54-6-15.44-10.09-23-9.58h-.21l-.78.08a12,12,0,0,0-4,1.16,5.86,5.86,0,0,0-3.34,6.36,11.76,11.76,0,0,0,2.37,5.16c.25.34.52.68.82,1s.55.62.85.93a23.52,23.52,0,0,0,2,1.85,33.26,33.26,0,0,0,18,7.43,21.76,21.76,0,0,0,2.55,0c.39,0,.78-.06,1.16-.11s.64-.09.94-.15l.25-.05a8.8,8.8,0,0,0,4.61-2.28c1.78-1.83,2.11-4.46.83-7.39A15.59,15.59,0,0,0,457.71,330.79Z" style="fill:#e0e0e0"></path><path d="M457.71,330.79l-.56-.63c-5.54-6-15.44-10.09-23-9.58h-.21l-.78.08a12,12,0,0,0-4,1.16,5.86,5.86,0,0,0-3.34,6.36,11.76,11.76,0,0,0,2.37,5.16c.25.34.52.68.82,1s.55.62.85.93a23.52,23.52,0,0,0,2,1.85,33.26,33.26,0,0,0,18,7.43,21.76,21.76,0,0,0,2.55,0c.39,0,.78-.06,1.16-.11s.64-.09.94-.15l.25-.05a8.8,8.8,0,0,0,4.61-2.28c1.78-1.83,2.11-4.46.83-7.39A15.59,15.59,0,0,0,457.71,330.79Z" style="opacity:0.13"></path><path d="M456.24,332.18l.56.63a15.59,15.59,0,0,1,2.49,3.84,7.63,7.63,0,0,1,.63,4.72,8.24,8.24,0,0,1-.55.65,8.8,8.8,0,0,1-4.61,2.28l-.25.05c-.3.06-.62.11-.94.15s-.77.08-1.16.11a21.76,21.76,0,0,1-2.55,0,33.26,33.26,0,0,1-18-7.43,23.52,23.52,0,0,1-2-1.85c-.3-.31-.58-.62-.85-.93s-.57-.69-.82-1a11.76,11.76,0,0,1-2.37-5.16,6.61,6.61,0,0,1,.07-2.36,6.54,6.54,0,0,1,2.36-2,11.52,11.52,0,0,1,4-1.16c.26,0,.52-.06.78-.08h.21C440.8,322.09,450.7,326.2,456.24,332.18Z" style="fill:#e0e0e0"></path><path d="M465.74,345.94c-5.48,4.81-14.19,3.76-20.9,2-10-2.95-19.81-8.77-24.65-17.47v0a11,11,0,0,1-1.21-8,11,11,0,0,0,1,8.13v0c3.8,7.24,11.26,12.42,19.14,15.75C447.22,349.46,458.63,352.11,465.74,345.94Z" style="fill:#f5f5f5"></path><path d="M431.44,332.54c2.15,2.33,5,3,7.81,3.28l-.94.37L437.05,339a13.12,13.12,0,0,0,1.53,1,13.32,13.32,0,0,0,2.92,1.2,16.84,16.84,0,0,0,5.13.57l1.9,2.05,4.06-.5,1.26-2.77-.47-.53-.11-.11a2.66,2.66,0,0,0,.36-.62,1.19,1.19,0,0,0,.08-.22c.12-.36.9-1.89,1.18-2.54a1.27,1.27,0,0,0,.08-.23c.26-.82-.07-1.81-1.13-2.95h0a9.29,9.29,0,0,0-3.94-2.47l-.37-.12h0l-.4-.11-.35-.09-.15,0-.27-.06a20.65,20.65,0,0,0-2.29-.32c-.34,0-.68-.06-1-.07l1.24-.49,1.26-2.77a14.62,14.62,0,0,0-9-2.53l-1.91-2.05-4,.57-1.26,2.77.59.64a2.36,2.36,0,0,0-.31.49v0c-.18.44-1.05,2.26-1.25,2.75v0C430,330.3,430.31,331.32,431.44,332.54Z" style="fill:#e0e0e0"></path><path d="M454.83,336.63c-.32.71-1,2.08-1.12,2.41a1.55,1.55,0,0,1-.08.23,2.66,2.66,0,0,1-.36.62l-1.36-1.48A3.5,3.5,0,0,0,454.83,336.63Z" style="opacity:0.1"></path><path d="M437.81,328.82c-.57-.62-.44-1.22,1.24-1.46a5.68,5.68,0,0,1,4.4,1l4.05-1.61-1.27,2.76L445,330h-.1l-1.54-.07-.59,0a18.55,18.55,0,0,1-3.24-.24,3.49,3.49,0,0,1-1.24-.47A2.14,2.14,0,0,1,437.81,328.82Z" style="opacity:0.2"></path><path d="M431.87,326.17l-.59-.64,1.26-2.76,1.9,2.05A5,5,0,0,0,431.87,326.17Z" style="opacity:0.13"></path><path d="M449.79,341l4.07-.5-1.26,2.77-4.07.5-1.89-2.05a16.87,16.87,0,0,1-5.14-.57,13.32,13.32,0,0,1-2.92-1.2,13.12,13.12,0,0,1-1.53-1l1.26-2.77a12.64,12.64,0,0,0,4.45,2.22,16.87,16.87,0,0,0,5.14.57Z" style="opacity:0.1"></path><path d="M446.64,341.75a12.8,12.8,0,0,1-4.23-.17,10.43,10.43,0,0,1-3.83-1.6,19.47,19.47,0,0,0,3.92,1.26,19.89,19.89,0,0,0,2.05.33C445.24,341.66,445.93,341.7,446.64,341.75Z" style="opacity:0.13"></path><path d="M430.3,329.46v0c.2-.49,1.07-2.3,1.25-2.75-.33.84,0,1.86,1.13,3.08,2.51,2.7,5.91,3.22,9.17,3.37,3,.14,5.39-.12,6.6,1.19.76.82.21,1.32-1.11,1.51a6.23,6.23,0,0,1-4.74-1.32l-3.35,1.31h0c-2.83-.25-5.66-1-7.81-3.29C430.31,331.32,430,330.3,430.3,329.46Z" style="opacity:0.13"></path><polygon points="442.19 331.16 443.45 328.39 447.5 326.78 446.24 329.55 442.19 331.16" style="fill:#e0e0e0"></polygon><polygon points="442.19 331.16 443.45 328.39 447.5 326.78 446.24 329.55 442.19 331.16" style="opacity:0.1"></polygon><polygon points="432.54 322.77 434.44 324.82 431.87 326.18 431.28 325.54 432.54 322.77" style="fill:#e0e0e0"></polygon><polygon points="432.54 322.77 434.44 324.82 431.87 326.18 431.28 325.54 432.54 322.77" style="opacity:0.2"></polygon><path d="M453.38,340l-1.47-1.59a3.49,3.49,0,0,0,3-1.9,1.27,1.27,0,0,0,.08-.23c.26-.82-.07-1.81-1.13-2.95h0a9.29,9.29,0,0,0-3.94-2.47l-.37-.12h0l-.4-.11-.35-.09-.15,0-.27-.06a20.65,20.65,0,0,0-2.29-.32c-.37,0-.74-.06-1.11-.08l-1.55-.07h-.59a20.61,20.61,0,0,1-3.23-.25,3.69,3.69,0,0,1-1.24-.46,2.79,2.79,0,0,1-.49-.42c-.57-.62-.44-1.22,1.24-1.46a5.68,5.68,0,0,1,4.4,1l4.05-1.61a14.62,14.62,0,0,0-9-2.53l-1.91-2.05-4,.57,1.9,2.05c-1.54.41-2.54,1-2.88,1.85v0c-.33.84,0,1.86,1.14,3.08,2.49,2.7,5.9,3.22,9.15,3.37,3,.13,5.4-.12,6.61,1.19.76.82.2,1.32-1.12,1.51a6.26,6.26,0,0,1-4.74-1.32l-4.29,1.67a12,12,0,0,0,1.53,1,13.32,13.32,0,0,0,2.92,1.2,16.84,16.84,0,0,0,5.13.57l1.9,2,4.06-.5Z" style="fill:#e0e0e0"></path><path d="M453.38,340l-1.47-1.59a3.49,3.49,0,0,0,3-1.9,1.27,1.27,0,0,0,.08-.23c.26-.82-.07-1.81-1.13-2.95h0a9.29,9.29,0,0,0-3.94-2.47l-.37-.12h0l-.4-.11-.35-.09-.15,0-.27-.06a20.65,20.65,0,0,0-2.29-.32c-.37,0-.74-.06-1.11-.08l-1.55-.07h-.59a20.61,20.61,0,0,1-3.23-.25,3.69,3.69,0,0,1-1.24-.46,2.79,2.79,0,0,1-.49-.42c-.57-.62-.44-1.22,1.24-1.46a5.68,5.68,0,0,1,4.4,1l4.05-1.61a14.62,14.62,0,0,0-9-2.53l-1.91-2.05-4,.57,1.9,2.05c-1.54.41-2.54,1-2.88,1.85v0c-.33.84,0,1.86,1.14,3.08,2.49,2.7,5.9,3.22,9.15,3.37,3,.13,5.4-.12,6.61,1.19.76.82.2,1.32-1.12,1.51a6.26,6.26,0,0,1-4.74-1.32l-4.29,1.67a12,12,0,0,0,1.53,1,13.32,13.32,0,0,0,2.92,1.2,16.84,16.84,0,0,0,5.13.57l1.9,2,4.06-.5Z" style="fill:#f0f0f0"></path><path d="M432.7,329.77a9.8,9.8,0,0,0,3.41,2.25,15,15,0,0,0,4.11.91c1.42.16,2.85.16,4.28.21a12.73,12.73,0,0,1,2.13.23,3.35,3.35,0,0,1,1.83,1,3.36,3.36,0,0,0-1.85-.87,12.54,12.54,0,0,0-2.12-.17c-1.43,0-2.86,0-4.29-.17a14.75,14.75,0,0,1-4.16-1,8.9,8.9,0,0,1-3.34-2.38Z" style="fill:#fff"></path><polygon points="449.79 341.03 448.53 343.8 446.63 341.75 447.89 338.98 449.79 341.03" style="fill:#e0e0e0"></polygon><polygon points="449.79 341.03 448.53 343.8 446.63 341.75 447.89 338.98 449.79 341.03" style="opacity:0.13"></polygon><polygon points="453.85 340.53 449.94 340.73 447.89 338.98 449.79 341.03 453.85 340.53" style="fill:#fafafa"></polygon><polygon points="438.49 324.25 436.47 322.49 432.54 322.77 436.58 322.2 438.49 324.25" style="fill:#fafafa"></polygon><path d="M447.5,326.78a13.39,13.39,0,0,0-1.4-.85l-.21,1.49Z" style="fill:#fff;opacity:0.15"></path><path d="M432.78,329.86a9.45,9.45,0,0,0,3.79,2.41l1.25-8.74-1.24-1.33-2.75.39-.2,1.36.81.87a9.41,9.41,0,0,0-1,.32Z" style="fill:#fff;opacity:0.15"></path><path d="M453.45,332.93a9,9,0,0,0-2.14-1.49L449.94,341l2.39-.3.23-1.6-.65-.71a4,4,0,0,0,.77-.12Z" style="fill:#fff;opacity:0.15"></path><path d="M449.48,330.72l-.4-.11-.35-.09-.15,0-.27-.06a20.65,20.65,0,0,0-2.29-.32l-.51,0-.45,3.17c1.49.07,2.66.29,3.4,1.09s.2,1.32-1.12,1.51a5.88,5.88,0,0,1-2.62-.22l-.45,3.12a17.43,17.43,0,0,0,3.62.24l.72.77,1.27-8.9-.35-.12Z" style="fill:#fff;opacity:0.15"></path></g><g id="freepik--coin--inject-52"><path d="M172.69,360.61l2.69,1.06-2.2,5.51h0a7.67,7.67,0,0,1-1.05,1.84c-.15.2-.31.39-.48.58a10.58,10.58,0,0,1-3.08,2.25,13.34,13.34,0,0,1-1.33.58,15.3,15.3,0,0,1-1.49.48c-.65.18-1.33.33-2.06.46s-1.53.22-2.33.28c-.6,0-1.2.07-1.82.07-9.08.1-20-3.8-27.49-9.84-.51-.41-1-.83-1.48-1.27a27,27,0,0,1-1.95-1.9c-.5-.53-1-1.06-1.38-1.6s-.71-.91-1-1.37-.59-.91-.84-1.36h0a13.76,13.76,0,0,1-1.53-3.9c-.06-.27-.1-.54-.14-.8a8.55,8.55,0,0,1,.17-3.29,7.57,7.57,0,0,1,.32-.95h0l2.07-5.21,2.47,1c.28-.14.57-.27.88-.39a18.78,18.78,0,0,1,3.86-1.06,23.48,23.48,0,0,1,2.57-.29,31.13,31.13,0,0,1,3.49,0,47.13,47.13,0,0,1,24,8.59c1,.74,2,1.51,2.9,2.31.76.67,1.47,1.36,2.14,2.08a23.73,23.73,0,0,1,2.6,3.28A16.45,16.45,0,0,1,172.69,360.61Z" style="fill:#e0e0e0"></path><path d="M136.85,367.18,141.31,356l3.92,2.06-4.47,11.18C139.42,368.62,138.11,367.93,136.85,367.18Z" style="fill:#fff;opacity:0.15"></path><path d="M173.18,367.18h0a7.67,7.67,0,0,1-1.05,1.84c-.15.2-.31.39-.48.58a10.58,10.58,0,0,1-3.08,2.25l-.48.23,4.59-11.5v0l2.69,1.06Z" style="opacity:0.05"></path><path d="M161.6,356.58l2.3.35-6.71,16.73c-.76-.05-1.53-.12-2.3-.21Z" style="fill:#fff;opacity:0.15"></path><path d="M149,372.29l5.8-14.51,4,1.94-5.4,13.51A43.19,43.19,0,0,1,149,372.29Z" style="fill:#fff;opacity:0.15"></path><path d="M126.27,342.23l2.47,1c.28-.14.57-.27.88-.39a18.78,18.78,0,0,1,3.86-1.06,23.48,23.48,0,0,1,2.57-.29,31.13,31.13,0,0,1,3.49,0c1.12.06,2.26.17,3.41.34l-9.3,23.31c-.55-.4-1.08-.8-1.6-1.21s-1-.83-1.48-1.27a27,27,0,0,1-1.95-1.9c-.5-.53-1-1.06-1.38-1.6s-.71-.91-1-1.37-.59-.91-.84-1.36h0a13.76,13.76,0,0,1-1.53-3.9c-.06-.27-.1-.54-.14-.8a8.55,8.55,0,0,1,.17-3.29,7.57,7.57,0,0,1,.32-.95h0Z" style="fill:#fff;opacity:0.15"></path><path d="M123.85,352.48c-.06-.27-.1-.54-.14-.8a8.55,8.55,0,0,1,.17-3.29,7.57,7.57,0,0,1,.32-.95h0l2.07-5.21,2.47,1,0,0,.71.63-4.62,11.58A12.9,12.9,0,0,1,123.85,352.48Z" style="fill:#fff;opacity:0.15"></path><path d="M170.9,348.53c-.66-.71-1.38-1.41-2.14-2.08s-1.88-1.57-2.9-2.31a47,47,0,0,0-24-8.58,31,31,0,0,0-3.48,0,23.64,23.64,0,0,0-2.58.3,18.8,18.8,0,0,0-3.86,1.05,11.77,11.77,0,0,0-3.32,2A7.93,7.93,0,0,0,126,343a8.37,8.37,0,0,0-.17,3.29,7.62,7.62,0,0,0,.14.81,13.57,13.57,0,0,0,1.53,3.9h0q.38.67.84,1.35c.31.46.65.92,1,1.38s.89,1.06,1.39,1.6,1.26,1.29,1.94,1.9c.48.43,1,.85,1.49,1.26,7.52,6,18.41,9.95,27.48,9.85.62,0,1.23,0,1.83-.08.8-.06,1.57-.15,2.33-.28a19.58,19.58,0,0,0,2.06-.45c.52-.14,1-.31,1.48-.48s.92-.37,1.34-.58a10.53,10.53,0,0,0,3.07-2.25,6.55,6.55,0,0,0,.49-.58,7.9,7.9,0,0,0,1.38-2.86,9.39,9.39,0,0,0-.3-5.13,15.75,15.75,0,0,0-1.86-3.82A24.62,24.62,0,0,0,170.9,348.53Z" style="fill:#f0f0f0"></path><path d="M135.81,359.69c-.54-.4-1.08-.8-1.6-1.22s-1-.83-1.49-1.26c-.68-.61-1.33-1.25-1.94-1.9s-1-1.07-1.39-1.6-.7-.92-1-1.38-.59-.9-.84-1.35h0a13.57,13.57,0,0,1-1.53-3.9,7.62,7.62,0,0,1-.14-.81A8.37,8.37,0,0,1,126,343a7.93,7.93,0,0,1,2.61-4.08,11.77,11.77,0,0,1,3.32-2,18.8,18.8,0,0,1,3.86-1.05,21.19,21.19,0,0,1,2.28-.27Z" style="fill:#fff;opacity:0.15"></path><path d="M127,350a13.19,13.19,0,0,1-1-2.88,7.62,7.62,0,0,1-.14-.81A8.37,8.37,0,0,1,126,343a7.77,7.77,0,0,1,2-3.46Z" style="fill:#fff;opacity:0.15"></path><path d="M142.91,363.85c-1.34-.64-2.65-1.33-3.91-2.08l2.51-26.23.38,0a36.11,36.11,0,0,1,3.68.37Z" style="fill:#fff;opacity:0.15"></path><path d="M155.56,367.83a43.19,43.19,0,0,1-4.37-.94L153.94,338q2.19.76,4.3,1.73Z" style="fill:#fff;opacity:0.15"></path><path d="M159.35,368.25q-1.14-.06-2.31-.21l2.63-27.6c.76.37,1.5.76,2.23,1.17Z" style="fill:#fff;opacity:0.15"></path><path d="M171.87,349.63h0q.38.45.72.9l.23.3c.07.1.15.2.22.31l.47.67a15.75,15.75,0,0,1,1.86,3.82,9.39,9.39,0,0,1,.3,5.13,7.9,7.9,0,0,1-1.38,2.86,6.55,6.55,0,0,1-.49.58,10.53,10.53,0,0,1-3.07,2.25l-.49.22Z" style="fill:#e0e0e0;opacity:0.30000000000000004"></path><path d="M165.74,349.34c-6-6.33-17-10.44-25.12-9.51-.35,0-.69.09-1,.15-8.23,1.42-9.87,7.92-3.65,14.51s17.92,10.8,26.15,9.37a9.79,9.79,0,0,0,1-.2C170.44,361.91,171.7,355.67,165.74,349.34Z" style="fill:#e0e0e0"></path><path d="M165.08,349.46c-.19-.21-.39-.41-.6-.61-5.8-5.7-15.88-9.34-23.41-8.48l-.2,0-.78.12a11.85,11.85,0,0,0-3.93,1.34,5.85,5.85,0,0,0-3,6.5,11.66,11.66,0,0,0,2.6,5q.41.5.87,1c.29.3.58.6.89.89a24.1,24.1,0,0,0,2.08,1.76,33.23,33.23,0,0,0,18.32,6.56,19.27,19.27,0,0,0,2.54-.1c.4,0,.78-.09,1.16-.16s.63-.12.93-.19l.25-.06a8.8,8.8,0,0,0,4.49-2.5c1.7-1.91,1.9-4.54.48-7.41A15.53,15.53,0,0,0,165.08,349.46Z" style="fill:#e0e0e0"></path><path d="M165.08,349.46c-.19-.21-.39-.41-.6-.61-5.8-5.7-15.88-9.34-23.41-8.48l-.2,0-.78.12a11.85,11.85,0,0,0-3.93,1.34,5.85,5.85,0,0,0-3,6.5,11.66,11.66,0,0,0,2.6,5q.41.5.87,1c.29.3.58.6.89.89a24.1,24.1,0,0,0,2.08,1.76,33.23,33.23,0,0,0,18.32,6.56,19.27,19.27,0,0,0,2.54-.1c.4,0,.78-.09,1.16-.16s.63-.12.93-.19l.25-.06a8.8,8.8,0,0,0,4.49-2.5c1.7-1.91,1.9-4.54.48-7.41A15.53,15.53,0,0,0,165.08,349.46Z" style="opacity:0.13"></path><path d="M163.67,350.91l.6.6a15.82,15.82,0,0,1,2.66,3.71,7.68,7.68,0,0,1,.85,4.69,8,8,0,0,1-.52.67,8.8,8.8,0,0,1-4.49,2.5l-.25.06c-.3.07-.61.14-.93.19s-.76.12-1.16.16a19.27,19.27,0,0,1-2.54.1A33.23,33.23,0,0,1,139.57,357a24.1,24.1,0,0,1-2.08-1.76c-.31-.29-.6-.59-.89-.89s-.6-.66-.87-1a11.66,11.66,0,0,1-2.6-5,6.48,6.48,0,0,1,0-2.36,6.67,6.67,0,0,1,2.25-2.08,11.69,11.69,0,0,1,3.94-1.35l.77-.11.21,0C147.79,341.56,157.86,345.2,163.67,350.91Z" style="fill:#e0e0e0"></path><path d="M173.8,364.2c-5.24,5.06-14,4.41-20.76,3-10.17-2.47-20.18-7.82-25.43-16.27v0a11,11,0,0,1-1.58-8,10.94,10.94,0,0,0,1.42,8.06v0c4.14,7.05,11.82,11.87,19.85,14.82C155.49,368.58,167,370.69,173.8,364.2Z" style="fill:#f5f5f5"></path><path d="M138.94,352.43c2.26,2.23,5.12,2.8,7.95,2.91l-.92.41-1.13,2.83a13.57,13.57,0,0,0,1.57.94,13,13,0,0,0,3,1.06,17,17,0,0,0,5.16.33l2,2,4-.69,1.13-2.83-.51-.5-.11-.11a2.35,2.35,0,0,0,.33-.63,1,1,0,0,0,.07-.23c.1-.37.81-1.93,1.06-2.59,0-.08.05-.16.07-.23.22-.83-.15-1.8-1.27-2.89h0a9.3,9.3,0,0,0-4.05-2.28l-.38-.1h0l-.4-.09-.36-.07-.14,0-.28,0a20.48,20.48,0,0,0-2.31-.22c-.33,0-.67,0-1,0l1.21-.55,1.13-2.82a14.63,14.63,0,0,0-9.12-2.1l-2-2-4,.76-1.13,2.82.62.62a1.77,1.77,0,0,0-.28.5v0c-.15.45-.94,2.3-1.12,2.8v0C137.37,350.26,137.76,351.27,138.94,352.43Z" style="fill:#e0e0e0"></path><path d="M162.48,355.42c-.28.72-.91,2.12-1,2.46a2,2,0,0,0-.07.23,3,3,0,0,1-.34.64l-1.43-1.42A3.52,3.52,0,0,0,162.48,355.42Z" style="opacity:0.1"></path><path d="M145.12,348.42c-.6-.59-.49-1.19,1.17-1.52a5.67,5.67,0,0,1,4.44.83l4-1.8-1.13,2.82-1.21.55h-2.23a18.23,18.23,0,0,1-3.24-.1,3.46,3.46,0,0,1-1.26-.4A2.38,2.38,0,0,1,145.12,348.42Z" style="opacity:0.2"></path><path d="M139.07,346.06l-.62-.61,1.13-2.82,2,2A5,5,0,0,0,139.07,346.06Z" style="opacity:0.13"></path><path d="M157.66,360.05l4-.7-1.13,2.82-4,.7-2-2a17,17,0,0,1-5.16-.33,13,13,0,0,1-3-1.06,14.46,14.46,0,0,1-1.57-.94l1.13-2.83a12.38,12.38,0,0,0,1.57.95,13,13,0,0,0,3,1.06,16.63,16.63,0,0,0,5.16.32Z" style="opacity:0.1"></path><path d="M154.54,360.91a12.78,12.78,0,0,1-4.23,0,10.33,10.33,0,0,1-3.9-1.42,19.7,19.7,0,0,0,4,1.08c.68.11,1.36.18,2.06.23S153.84,360.89,154.54,360.91Z" style="opacity:0.13"></path><path d="M137.65,349.41h0c.18-.51,1-2.36,1.12-2.81-.28.85.1,1.86,1.28,3,2.63,2.58,6,2.94,9.3,2.94,3,0,5.38-.38,6.65.87.8.78.27,1.31-1,1.56a6.21,6.21,0,0,1-4.79-1.1l-3.28,1.47h0c-2.84-.12-5.69-.7-7.95-2.92C137.75,351.27,137.37,350.27,137.65,349.41Z" style="opacity:0.13"></path><polygon points="149.6 350.55 150.73 347.73 154.7 345.93 153.57 348.75 149.6 350.55" style="fill:#e0e0e0"></polygon><polygon points="149.6 350.55 150.73 347.73 154.7 345.93 153.57 348.75 149.6 350.55" style="opacity:0.1"></polygon><polygon points="139.58 342.63 141.57 344.59 139.07 346.06 138.45 345.45 139.58 342.63" style="fill:#e0e0e0"></polygon><polygon points="139.58 342.63 141.57 344.59 139.07 346.06 138.45 345.45 139.58 342.63" style="opacity:0.2"></polygon><path d="M161.18,358.85l-1.53-1.52a3.47,3.47,0,0,0,2.88-2c0-.08.05-.16.07-.23.22-.83-.15-1.8-1.27-2.89h0a9.3,9.3,0,0,0-4.05-2.28l-.38-.1h0l-.4-.09-.36-.07-.14,0-.28,0a20.48,20.48,0,0,0-2.31-.22c-.36,0-.74,0-1.1,0h-2.14a20.61,20.61,0,0,1-3.24-.09,3.66,3.66,0,0,1-1.26-.41,3.14,3.14,0,0,1-.51-.39c-.6-.59-.49-1.2,1.17-1.52a5.67,5.67,0,0,1,4.44.83l4-1.8a14.63,14.63,0,0,0-9.12-2.1l-2-2-4,.76,2,2c-1.52.48-2.49,1.15-2.78,2v0c-.28.85.1,1.86,1.28,3,2.62,2.58,6,2.94,9.3,2.94,3,0,5.38-.38,6.65.87.79.78.27,1.31-1,1.56a6.21,6.21,0,0,1-4.8-1.1l-4.2,1.87a11.72,11.72,0,0,0,1.57.95,13,13,0,0,0,3,1.06,16.61,16.61,0,0,0,5.15.32l2,2,4-.7Z" style="fill:#e0e0e0"></path><path d="M161.18,358.85l-1.53-1.52a3.47,3.47,0,0,0,2.88-2c0-.08.05-.16.07-.23.22-.83-.15-1.8-1.27-2.89h0a9.3,9.3,0,0,0-4.05-2.28l-.38-.1h0l-.4-.09-.36-.07-.14,0-.28,0a20.48,20.48,0,0,0-2.31-.22c-.36,0-.74,0-1.1,0h-2.14a20.61,20.61,0,0,1-3.24-.09,3.66,3.66,0,0,1-1.26-.41,3.14,3.14,0,0,1-.51-.39c-.6-.59-.49-1.2,1.17-1.52a5.67,5.67,0,0,1,4.44.83l4-1.8a14.63,14.63,0,0,0-9.12-2.1l-2-2-4,.76,2,2c-1.52.48-2.49,1.15-2.78,2v0c-.28.85.1,1.86,1.28,3,2.62,2.58,6,2.94,9.3,2.94,3,0,5.38-.38,6.65.87.79.78.27,1.31-1,1.56a6.21,6.21,0,0,1-4.8-1.1l-4.2,1.87a11.72,11.72,0,0,0,1.57.95,13,13,0,0,0,3,1.06,16.61,16.61,0,0,0,5.15.32l2,2,4-.7Z" style="fill:#f0f0f0"></path><path d="M140.06,349.61a9.75,9.75,0,0,0,3.52,2.08,14.81,14.81,0,0,0,4.15.72c1.41.09,2.84,0,4.27,0a14,14,0,0,1,2.14.12,3.34,3.34,0,0,1,1.87.88,3.34,3.34,0,0,0-1.89-.78,13.62,13.62,0,0,0-2.12-.08c-1.42.05-2.86.12-4.29,0a14.38,14.38,0,0,1-4.19-.77,9.4,9.4,0,0,1-1.88-.93A10.45,10.45,0,0,1,140.06,349.61Z" style="fill:#fff"></path><polygon points="157.66 360.05 156.53 362.87 154.54 360.91 155.66 358.08 157.66 360.05" style="fill:#e0e0e0"></polygon><polygon points="157.66 360.05 156.53 362.87 154.54 360.91 155.66 358.08 157.66 360.05" style="opacity:0.13"></polygon><polygon points="161.69 359.35 157.79 359.74 155.66 358.08 157.66 360.05 161.69 359.35" style="fill:#fafafa"></polygon><polygon points="145.58 343.83 143.49 342.17 139.58 342.63 143.59 341.87 145.58 343.83" style="fill:#fafafa"></polygon><path d="M154.7,345.93a11.11,11.11,0,0,0-1.44-.78l-.14,1.49Z" style="fill:#fff;opacity:0.15"></path><path d="M140.16,349.69a9.42,9.42,0,0,0,3.89,2.23l.84-8.78-1.3-1.27-2.74.52-.13,1.36.85.84a8.8,8.8,0,0,0-1,.36Z" style="fill:#fff;opacity:0.15"></path><path d="M160.93,351.79a9.09,9.09,0,0,0-2.21-1.39L157.8,360l2.38-.41.15-1.6-.68-.68a3.5,3.5,0,0,0,.76-.16Z" style="fill:#fff;opacity:0.15"></path><path d="M156.86,349.77l-.4-.09-.36-.07-.14,0-.28,0a20.48,20.48,0,0,0-2.31-.22h-.5l-.31,3.18c1.49,0,2.67.17,3.45.93s.27,1.31-1,1.56a6.24,6.24,0,0,1-2.64-.09L152,358a17.08,17.08,0,0,0,3.63.06l.76.75.85-8.95-.36-.1Z" style="fill:#fff;opacity:0.15"></path></g><g id="freepik--coin--inject-52"><path d="M74.19,288.6l1.43-2.11,4.32,2.95h0a7.15,7.15,0,0,1,1.39,1.25c.14.17.28.35.41.54a9.14,9.14,0,0,1,1.35,3.08,11.73,11.73,0,0,1,.24,1.26,11.59,11.59,0,0,1,.13,1.37q0,.88,0,1.86c0,.68-.1,1.36-.21,2.06-.07.52-.17,1.05-.28,1.59-1.65,7.83-7.1,16.47-13.74,21.79-.45.37-.91.71-1.37,1q-1,.72-2,1.32c-.56.32-1.11.62-1.64.88s-.93.43-1.38.61-.9.34-1.33.47h0a12.43,12.43,0,0,1-3.66.57l-.72,0a7.56,7.56,0,0,1-2.8-.78,7.09,7.09,0,0,1-.75-.45h0l-4.09-2.79,1.31-1.94c-.06-.26-.12-.54-.17-.83a16.61,16.61,0,0,1-.17-3.53,22.74,22.74,0,0,1,.24-2.27,28.42,28.42,0,0,1,.64-3,41.62,41.62,0,0,1,12-19c.83-.74,1.68-1.42,2.54-2.05s1.46-1,2.2-1.45a21.09,21.09,0,0,1,3.33-1.62A14.74,14.74,0,0,1,74.19,288.6Z" style="fill:#e0e0e0"></path><path d="M73,320.74l-8.77-6,2.53-3,8.78,6A38.19,38.19,0,0,1,73,320.74Z" style="fill:#fff;opacity:0.15"></path><path d="M79.94,289.44h0a7.15,7.15,0,0,1,1.39,1.25c.14.17.28.35.41.54a9.14,9.14,0,0,1,1.35,3.08c0,.15.07.3.1.45l-9-6.15h0l1.43-2.11Z" style="opacity:0.05"></path><path d="M68.6,297.39l.74-1.91,13.13,9c-.19.64-.4,1.29-.63,1.94Z" style="fill:#fff;opacity:0.15"></path><path d="M79.73,311.22l-11.39-7.77,2.42-3,10.62,7.23A38.24,38.24,0,0,1,79.73,311.22Z" style="fill:#fff;opacity:0.15"></path><path d="M49.48,325.08l1.31-1.94c-.06-.26-.12-.54-.17-.83a16.61,16.61,0,0,1-.17-3.53,22.74,22.74,0,0,1,.24-2.27,28.42,28.42,0,0,1,.64-3c.27-.95.58-1.91,1-2.88l18.3,12.48c-.45.4-.89.78-1.35,1.14s-.91.71-1.37,1q-1,.72-2,1.32c-.56.32-1.11.62-1.64.88s-.93.43-1.38.61-.9.34-1.33.47h0a12.43,12.43,0,0,1-3.66.57l-.72,0a7.56,7.56,0,0,1-2.8-.78,7.09,7.09,0,0,1-.75-.45h0Z" style="fill:#fff;opacity:0.15"></path><path d="M57.84,329.13l-.72,0a7.56,7.56,0,0,1-2.8-.78,7.09,7.09,0,0,1-.75-.45h0l-4.09-2.79,1.31-1.94v0l.68-.49,9.09,6.2A11.42,11.42,0,0,1,57.84,329.13Z" style="fill:#fff;opacity:0.15"></path><path d="M63.44,287.83c-.74.44-1.48.93-2.2,1.45a32.24,32.24,0,0,0-2.54,2.06,41.57,41.57,0,0,0-12,19,25.68,25.68,0,0,0-.64,3,19.89,19.89,0,0,0-.24,2.27,16,16,0,0,0,.17,3.53,10.14,10.14,0,0,0,1.06,3.23,7,7,0,0,0,3,3,7.64,7.64,0,0,0,2.8.77l.72,0a12.37,12.37,0,0,0,3.65-.57h0c.44-.14.88-.29,1.33-.47s.91-.38,1.38-.61,1.09-.56,1.64-.89,1.35-.84,2-1.31c.47-.33.92-.68,1.38-1,6.64-5.32,12.09-14,13.74-21.8.11-.53.2-1.06.28-1.58q.15-1.05.21-2.07t0-1.86c0-.47-.07-.93-.13-1.37a12,12,0,0,0-.24-1.25,9.29,9.29,0,0,0-1.36-3.09c-.12-.18-.26-.36-.4-.53a6.81,6.81,0,0,0-2.2-1.73,8.36,8.36,0,0,0-4.48-.73,13.93,13.93,0,0,0-3.64.88A21.9,21.9,0,0,0,63.44,287.83Z" style="fill:#f0f0f0"></path><path d="M66.34,320.2c-.44.4-.9.78-1.35,1.15s-.91.71-1.38,1c-.66.47-1.33.91-2,1.31s-1.1.63-1.64.89-.93.43-1.38.61-.89.33-1.33.47h0a12.37,12.37,0,0,1-3.65.57l-.72,0a7.64,7.64,0,0,1-2.8-.77,7,7,0,0,1-3-3A10.14,10.14,0,0,1,46,319.16a16,16,0,0,1-.17-3.53c0-.66.1-1.34.2-2Z" style="fill:#fff;opacity:0.15"></path><path d="M56.27,325.93a12.24,12.24,0,0,1-2.67.31l-.72,0a7.64,7.64,0,0,1-2.8-.77,6.86,6.86,0,0,1-2.61-2.36Z" style="fill:#fff;opacity:0.15"></path><path d="M71.28,314.88c-.8,1-1.65,2-2.53,3l-22.12-7.17c0-.11,0-.22.08-.33a31.25,31.25,0,0,1,1-3.1Z" style="fill:#fff;opacity:0.15"></path><path d="M77.13,304.75c-.48,1.2-1,2.4-1.64,3.58l-24.35-7.9c.71-1.15,1.49-2.28,2.31-3.36Z" style="fill:#fff;opacity:0.15"></path><path d="M78.23,301.56q-.28,1-.63,1.95L54.32,296c.47-.58.94-1.14,1.44-1.69Z" style="fill:#fff;opacity:0.15"></path><path d="M64.57,287.21h0l.91-.45.31-.14.3-.13.68-.27a13.93,13.93,0,0,1,3.64-.88,8.36,8.36,0,0,1,4.48.73,6.81,6.81,0,0,1,2.2,1.73c.14.17.28.35.4.53a9.29,9.29,0,0,1,1.36,3.09c0,.14.06.3.1.45Z" style="fill:#e0e0e0;opacity:0.30000000000000004"></path><path d="M63.15,292.44c-6.59,3.92-12.24,12.62-13,19.82,0,.31-.06.62-.07.92-.35,7.36,4.94,10,11.81,5.92S74.62,305.73,75,298.36c0-.3,0-.59,0-.88C74.88,290.79,69.74,288.51,63.15,292.44Z" style="fill:#e0e0e0"></path><path d="M63.12,293l-.63.4c-6,3.91-11.09,11.89-11.79,18.55l0,.18c0,.23,0,.46,0,.69a10.46,10.46,0,0,0,.41,3.64,5.15,5.15,0,0,0,5,3.85,10.23,10.23,0,0,0,4.84-1.27c.34-.17.67-.36,1-.56s.63-.39.94-.6a22.89,22.89,0,0,0,1.91-1.45,29.4,29.4,0,0,0,9.16-14.53,20.22,20.22,0,0,0,.4-2.21c0-.35.06-.69.08-1s0-.57,0-.84v-.22a7.76,7.76,0,0,0-1.29-4.35c-1.32-1.83-3.56-2.51-6.3-1.83A13.53,13.53,0,0,0,63.12,293Z" style="fill:#e0e0e0"></path><path d="M63.12,293l-.63.4c-6,3.91-11.09,11.89-11.79,18.55l0,.18c0,.23,0,.46,0,.69a10.46,10.46,0,0,0,.41,3.64,5.15,5.15,0,0,0,5,3.85,10.23,10.23,0,0,0,4.84-1.27c.34-.17.67-.36,1-.56s.63-.39.94-.6a22.89,22.89,0,0,0,1.91-1.45,29.4,29.4,0,0,0,9.16-14.53,20.22,20.22,0,0,0,.4-2.21c0-.35.06-.69.08-1s0-.57,0-.84v-.22a7.76,7.76,0,0,0-1.29-4.35c-1.32-1.83-3.56-2.51-6.3-1.83A13.53,13.53,0,0,0,63.12,293Z" style="opacity:0.13"></path><path d="M64.1,294.52l.64-.4a13.71,13.71,0,0,1,3.71-1.58,6.67,6.67,0,0,1,4.19.17,3.87,3.87,0,0,1,.49.57,7.76,7.76,0,0,1,1.29,4.35v.22c0,.27,0,.56,0,.84s0,.68-.08,1a20.22,20.22,0,0,1-.4,2.21,29.4,29.4,0,0,1-9.16,14.53,22.89,22.89,0,0,1-1.91,1.45c-.31.21-.63.41-.94.6s-.68.39-1,.56a10.23,10.23,0,0,1-4.84,1.27,5.38,5.38,0,0,1-2-.41,5.75,5.75,0,0,1-1.36-2.34,10.29,10.29,0,0,1-.41-3.65c0-.23,0-.46,0-.69l0-.18C53,306.42,58.08,298.43,64.1,294.52Z" style="fill:#e0e0e0"></path><path d="M77.49,288.33c3.36,5.49,1.13,12.9-1.39,18.47-4.07,8.29-10.6,15.89-18.88,18.79h0a9.65,9.65,0,0,1-7.15-.15,9.66,9.66,0,0,0,7.21.31h0c6.85-2.22,12.48-7.91,16.56-14.27C77.76,305,81.78,295.44,77.49,288.33Z" style="fill:#f5f5f5"></path><path d="M60.68,316.12a10,10,0,0,0,4-6.3l.17.88,2.22,1.51A12.27,12.27,0,0,0,68.23,311a11.78,11.78,0,0,0,1.48-2.36A14.91,14.91,0,0,0,71,304.3L73.05,303l.17-3.6L71,297.85l-.53.33-.11.08a2.41,2.41,0,0,0-.48-.41l-.19-.1c-.29-.16-1.5-1.07-2-1.41l-.18-.1c-.67-.35-1.58-.22-2.74.53h0A8.21,8.21,0,0,0,62,299.82c-.06.1-.11.21-.16.31l0,0-.15.33c-.05.1-.09.19-.13.29l0,.12a1.36,1.36,0,0,0-.09.23,16.36,16.36,0,0,0-.63,1.95c-.08.29-.15.58-.22.87l-.24-1.15L58.1,301.3a12.92,12.92,0,0,0-3.56,7.45l-2.06,1.34-.12,3.61,2.22,1.51.65-.42a1.75,1.75,0,0,0,.38.34h0c.36.21,1.81,1.25,2.2,1.5h0C58.52,317.06,59.46,316.92,60.68,316.12Z" style="fill:#e0e0e0"></path><path d="M67.76,296.41c.57.38,1.66,1.19,1.93,1.33l.19.11a2.41,2.41,0,0,1,.48.41l-1.49,1A3.12,3.12,0,0,0,67.76,296.41Z" style="opacity:0.1"></path><path d="M58.41,310c-.62.4-1.12.19-1.08-1.3a5.06,5.06,0,0,1,1.56-3.67l-.79-3.76,2.21,1.51.25,1.14a.29.29,0,0,0,0,.09c-.11.45-.21.9-.3,1.33,0,.18-.07.35-.1.51a17.06,17.06,0,0,1-.7,2.77,3.24,3.24,0,0,1-.59,1A2.61,2.61,0,0,1,58.41,310Z" style="opacity:0.2"></path><path d="M55.22,314.79l-.64.42-2.21-1.52,2.06-1.34A4.44,4.44,0,0,0,55.22,314.79Z" style="opacity:0.13"></path><path d="M70.83,301.45l.17-3.61,2.22,1.51L73.05,303,71,304.3a14.53,14.53,0,0,1-1.26,4.38A11.78,11.78,0,0,1,68.23,311a12.27,12.27,0,0,1-1.12,1.17l-2.22-1.51A11.1,11.1,0,0,0,66,309.53a11.61,11.61,0,0,0,1.48-2.36,14.85,14.85,0,0,0,1.27-4.38Z" style="opacity:0.1"></path><path d="M71,304.3a10.94,10.94,0,0,1-.78,3.65,9.2,9.2,0,0,1-2,3.09,17.3,17.3,0,0,0,1.68-3.22c.23-.56.42-1.14.6-1.73S70.83,304.9,71,304.3Z" style="opacity:0.13"></path><path d="M57.84,316.65h0c-.4-.25-1.85-1.29-2.21-1.5.68.41,1.62.27,2.85-.52,2.72-1.78,3.69-4.65,4.31-7.46.57-2.61.71-4.7,2-5.56.83-.53,1.18,0,1.15,1.19a5.55,5.55,0,0,1-1.86,3.93l.63,3.1h0c-.65,2.43-1.69,4.78-4,6.3C59.46,316.92,58.52,317.06,57.84,316.65Z" style="opacity:0.13"></path><polygon points="61.1 306.57 58.89 305.06 58.1 301.3 60.31 302.81 61.1 306.57" style="fill:#e0e0e0"></polygon><polygon points="61.1 306.57 58.89 305.06 58.1 301.3 60.31 302.81 61.1 306.57" style="opacity:0.1"></polygon><polygon points="52.36 313.7 54.43 312.35 55.23 314.79 54.58 315.21 52.36 313.7" style="fill:#e0e0e0"></polygon><polygon points="52.36 313.7 54.43 312.35 55.23 314.79 54.58 315.21 52.36 313.7" style="opacity:0.2"></polygon><path d="M70.47,298.18l-1.6,1a3.1,3.1,0,0,0-1.21-2.88l-.18-.1c-.67-.35-1.58-.22-2.74.53h0A8.21,8.21,0,0,0,62,299.82c-.06.1-.11.21-.16.31l0,0-.15.33c-.05.1-.09.19-.13.29l0,.12a1.36,1.36,0,0,0-.09.23,16.36,16.36,0,0,0-.63,1.95c-.09.31-.17.63-.24,1s-.2.9-.29,1.33c0,.18-.07.35-.1.51a16.79,16.79,0,0,1-.7,2.77,3.06,3.06,0,0,1-.59,1,3,3,0,0,1-.43.37c-.63.4-1.13.19-1.09-1.3a5,5,0,0,1,1.56-3.67l-.79-3.76a12.92,12.92,0,0,0-3.56,7.45l-2.06,1.34-.12,3.61,2.07-1.35a3.56,3.56,0,0,0,1.18,2.78h0c.68.41,1.62.27,2.85-.53,2.72-1.76,3.69-4.64,4.31-7.45.57-2.61.7-4.7,2-5.56.82-.53,1.17,0,1.14,1.2a5.51,5.51,0,0,1-1.86,3.92l.8,4A10.21,10.21,0,0,0,66,309.53a11.34,11.34,0,0,0,1.48-2.36,14.94,14.94,0,0,0,1.27-4.38l2.07-1.34.17-3.6Z" style="fill:#e0e0e0"></path><path d="M70.47,298.18l-1.6,1a3.1,3.1,0,0,0-1.21-2.88l-.18-.1c-.67-.35-1.58-.22-2.74.53h0A8.21,8.21,0,0,0,62,299.82c-.06.1-.11.21-.16.31l0,0-.15.33c-.05.1-.09.19-.13.29l0,.12a1.36,1.36,0,0,0-.09.23,16.36,16.36,0,0,0-.63,1.95c-.09.31-.17.63-.24,1s-.2.9-.29,1.33c0,.18-.07.35-.1.51a16.79,16.79,0,0,1-.7,2.77,3.06,3.06,0,0,1-.59,1,3,3,0,0,1-.43.37c-.63.4-1.13.19-1.09-1.3a5,5,0,0,1,1.56-3.67l-.79-3.76a12.92,12.92,0,0,0-3.56,7.45l-2.06,1.34-.12,3.61,2.07-1.35a3.56,3.56,0,0,0,1.18,2.78h0c.68.41,1.62.27,2.85-.53,2.72-1.76,3.69-4.64,4.31-7.45.57-2.61.7-4.7,2-5.56.82-.53,1.17,0,1.14,1.2a5.51,5.51,0,0,1-1.86,3.92l.8,4A10.21,10.21,0,0,0,66,309.53a11.34,11.34,0,0,0,1.48-2.36,14.94,14.94,0,0,0,1.27-4.38l2.07-1.34.17-3.6Z" style="fill:#f0f0f0"></path><path d="M58.47,314.61A8.64,8.64,0,0,0,60.94,312a13.4,13.4,0,0,0,1.41-3.43c.35-1.21.56-2.45.82-3.68a12.75,12.75,0,0,1,.52-1.83,3,3,0,0,1,1.12-1.44,2.93,2.93,0,0,0-1,1.48,11.19,11.19,0,0,0-.47,1.81c-.24,1.24-.45,2.49-.79,3.71A12.62,12.62,0,0,1,61,312.06a9,9,0,0,1-1.15,1.44A8.78,8.78,0,0,1,58.47,314.61Z" style="fill:#fff"></path><polygon points="70.83 301.45 73.05 302.96 70.97 304.3 68.76 302.79 70.83 301.45" style="fill:#e0e0e0"></polygon><polygon points="70.83 301.45 73.05 302.96 70.97 304.3 68.76 302.79 70.83 301.45" style="opacity:0.13"></polygon><polygon points="71 297.85 70.59 301.27 68.76 302.79 70.83 301.45 71 297.85" style="fill:#fafafa"></polygon><polygon points="54.54 308.75 52.71 310.24 52.36 313.7 52.48 310.09 54.54 308.75" style="fill:#fafafa"></polygon><path d="M58.1,301.3a12.23,12.23,0,0,0-1,1.08l1.26.41Z" style="fill:#fff;opacity:0.15"></path><path d="M58.56,314.55a8.43,8.43,0,0,0,2.67-2.93l-7.41-2.4-1.34.87-.08,2.46,1.15.37.88-.57c0,.33.08.63.13.9Z" style="fill:#fff;opacity:0.15"></path><path d="M64.34,297.05a7.86,7.86,0,0,0-1.62,1.64l8.12,2.63.1-2.13-1.35-.43-.72.46a3.61,3.61,0,0,0,0-.69Z" style="fill:#fff;opacity:0.15"></path><path d="M61.82,300.17l-.15.33c-.05.1-.09.19-.13.29l0,.12a1.36,1.36,0,0,0-.09.23,16.36,16.36,0,0,0-.63,1.95c0,.14-.07.29-.11.43l2.68.87a4.21,4.21,0,0,1,1.47-2.79c.82-.53,1.17,0,1.14,1.2a5.37,5.37,0,0,1-.59,2.25l2.65.86a16.4,16.4,0,0,0,.75-3.12l.78-.5L62,299.84l-.15.29Z" style="fill:#fff;opacity:0.15"></path></g><g id="freepik--coin--inject-52"><path d="M298.19,417.91l3.68.33-.71,7.54h0a10.33,10.33,0,0,1-.62,2.64c-.12.3-.25.59-.39.88a13.29,13.29,0,0,1-3,3.87,16.85,16.85,0,0,1-1.42,1.19,19,19,0,0,1-1.65,1.12,23.8,23.8,0,0,1-2.36,1.3A29.54,29.54,0,0,1,289,438c-.72.27-1.45.53-2.21.76-11.08,3.39-25.83,2.53-37.22-2.16-.78-.32-1.54-.65-2.28-1-1.06-.5-2.09-1.05-3.07-1.62-.8-.48-1.56-1-2.27-1.47s-1.19-.87-1.74-1.31-1.05-.9-1.52-1.36h0a17.73,17.73,0,0,1-3.28-4.23c-.17-.31-.32-.62-.46-.94a10.92,10.92,0,0,1-1-4.09,10.7,10.7,0,0,1,.05-1.27h0l.67-7.13,3.37.31a12.07,12.07,0,0,1,.93-.79,23.22,23.22,0,0,1,4.35-2.69,28.77,28.77,0,0,1,3.05-1.29,39.16,39.16,0,0,1,4.26-1.29,60.11,60.11,0,0,1,32.47,1.88c1.51.53,3,1.13,4.38,1.78,1.17.55,2.3,1.14,3.37,1.78a30.66,30.66,0,0,1,4.38,3.08A21.16,21.16,0,0,1,298.19,417.91Z" style="fill:#e0e0e0"></path><path d="M256.64,438.88l1.44-15.3,5.54,1.12L262.19,440Q259.37,439.58,256.64,438.88Z" style="fill:#fff;opacity:0.15"></path><path d="M301.16,425.78h0a10.33,10.33,0,0,1-.62,2.64c-.12.3-.25.59-.39.88a13.29,13.29,0,0,1-3,3.87l-.51.45,1.48-15.74,0,0,3.68.33Z" style="opacity:0.05"></path><path d="M283.15,417l2.94-.41-2.19,22.92c-.95.22-1.91.4-2.89.56Z" style="fill:#fff;opacity:0.15"></path><path d="M273.41,440.75l1.87-19.87,5.56.95-1.74,18.5A55.57,55.57,0,0,1,273.41,440.75Z" style="fill:#fff;opacity:0.15"></path><path d="M234.7,412.13l3.37.31a12.07,12.07,0,0,1,.93-.79,23.22,23.22,0,0,1,4.35-2.69,28.77,28.77,0,0,1,3.05-1.29,39.16,39.16,0,0,1,4.26-1.29c1.39-.34,2.83-.61,4.31-.82l-3,31.91c-.81-.28-1.61-.59-2.39-.91s-1.54-.65-2.28-1c-1.06-.5-2.09-1.05-3.07-1.62-.8-.48-1.56-1-2.27-1.47s-1.19-.87-1.74-1.31-1.05-.9-1.52-1.36h0a17.73,17.73,0,0,1-3.28-4.23c-.17-.31-.32-.62-.46-.94a10.92,10.92,0,0,1-1-4.09,10.7,10.7,0,0,1,.05-1.27h0Z" style="fill:#fff;opacity:0.15"></path><path d="M235.42,425.56c-.17-.31-.32-.62-.46-.94a10.92,10.92,0,0,1-1-4.09,10.7,10.7,0,0,1,.05-1.27h0l.67-7.13,3.37.31,0,0,1.1.52-1.49,15.85A16.49,16.49,0,0,1,235.42,425.56Z" style="fill:#fff;opacity:0.15"></path><path d="M291.64,403.75c-1.07-.63-2.2-1.22-3.37-1.77-1.4-.65-2.87-1.25-4.38-1.78a60.11,60.11,0,0,0-32.47-1.88,41.49,41.49,0,0,0-4.26,1.28c-1.06.39-2.08.82-3,1.29a24.31,24.31,0,0,0-4.35,2.69,15.16,15.16,0,0,0-3.35,3.6,10.11,10.11,0,0,0-1.73,5.95,11,11,0,0,0,1,4.1c.14.31.3.62.47.93a17.47,17.47,0,0,0,3.28,4.23h0c.47.46,1,.91,1.52,1.36s1.12.88,1.73,1.31,1.47,1,2.28,1.47c1,.57,2,1.12,3.07,1.62.74.36,1.49.69,2.27,1,11.39,4.69,26.14,5.55,37.22,2.16.76-.23,1.5-.48,2.21-.75,1-.36,1.88-.76,2.76-1.19a25,25,0,0,0,2.36-1.3,18.82,18.82,0,0,0,1.64-1.12,15.39,15.39,0,0,0,1.42-1.19,13.21,13.21,0,0,0,3-3.86,8.6,8.6,0,0,0,.39-.89,9.85,9.85,0,0,0,.66-4,12,12,0,0,0-2.21-6.18,20.38,20.38,0,0,0-3.66-4A31.5,31.5,0,0,0,291.64,403.75Z" style="fill:#f0f0f0"></path><path d="M252.68,430.08c-.82-.29-1.62-.59-2.41-.92s-1.53-.65-2.27-1c-1.07-.5-2.09-1-3.07-1.62q-1.22-.72-2.28-1.47c-.61-.43-1.19-.87-1.73-1.31s-1-.9-1.52-1.36h0a17.47,17.47,0,0,1-3.28-4.23c-.17-.31-.33-.62-.47-.93a11,11,0,0,1-1-4.1,10.11,10.11,0,0,1,1.73-5.95,15.16,15.16,0,0,1,3.35-3.6,24.31,24.31,0,0,1,4.35-2.69c.87-.42,1.77-.8,2.7-1.15Z" style="fill:#fff;opacity:0.15"></path><path d="M238.38,421.33a16.31,16.31,0,0,1-2.26-3.17c-.17-.31-.33-.62-.47-.93a11,11,0,0,1-1-4.1,10,10,0,0,1,1.15-4.95Z" style="fill:#fff;opacity:0.15"></path><path d="M262.87,432.61c-1.87-.29-3.73-.67-5.54-1.13l-6.38-33,.47-.12c1.5-.36,3.06-.65,4.65-.87Z" style="fill:#fff;opacity:0.15"></path><path d="M279.8,432.93a53.07,53.07,0,0,1-5.69.42l-7-36.36c2,.1,3.93.29,5.88.57Z" style="fill:#fff;opacity:0.15"></path><path d="M284.6,432.08c-1,.22-1.92.41-2.91.58L275,397.89c1.06.18,2.11.39,3.15.64Z" style="fill:#fff;opacity:0.15"></path><path d="M293.23,404.75h0l1.2.84.39.29.38.3c.28.22.56.44.82.66a20.38,20.38,0,0,1,3.66,4,12,12,0,0,1,2.21,6.18,9.85,9.85,0,0,1-.66,4,8.6,8.6,0,0,1-.39.89,13.21,13.21,0,0,1-3,3.86l-.5.45Z" style="fill:#e0e0e0;opacity:0.30000000000000004"></path><path d="M285.61,406.61c-9.58-5.6-24.55-6.68-34.21-2.6-.41.18-.81.36-1.2.55-9.57,4.71-9.23,13.27.75,19.11s25.85,6.76,35.42,2.05c.39-.19.77-.39,1.12-.6C295.9,420.31,295.19,412.21,285.61,406.61Z" style="fill:#e0e0e0"></path><path d="M284.84,407c-.31-.18-.62-.36-.95-.53-9.17-4.89-22.82-5.72-31.74-1.95l-.24.1L251,405a15.16,15.16,0,0,0-4.33,3.07,7.45,7.45,0,0,0-1.37,9,15,15,0,0,0,5,5.24c.44.31.92.61,1.42.9s.92.52,1.41.77a31.33,31.33,0,0,0,3.17,1.4,42.46,42.46,0,0,0,24.82,1.44,25.88,25.88,0,0,0,3.08-1c.47-.19.92-.4,1.36-.61l1.07-.57.28-.17a11.23,11.23,0,0,0,4.61-4.68c1.38-2.95.68-6.25-2.09-9.25A19.76,19.76,0,0,0,284.84,407Z" style="fill:#e0e0e0"></path><path d="M284.84,407c-.31-.18-.62-.36-.95-.53-9.17-4.89-22.82-5.72-31.74-1.95l-.24.1L251,405a15.16,15.16,0,0,0-4.33,3.07,7.45,7.45,0,0,0-1.37,9,15,15,0,0,0,5,5.24c.44.31.92.61,1.42.9s.92.52,1.41.77a31.33,31.33,0,0,0,3.17,1.4,42.46,42.46,0,0,0,24.82,1.44,25.88,25.88,0,0,0,3.08-1c.47-.19.92-.4,1.36-.61l1.07-.57.28-.17a11.23,11.23,0,0,0,4.61-4.68c1.38-2.95.68-6.25-2.09-9.25A19.76,19.76,0,0,0,284.84,407Z" style="opacity:0.13"></path><path d="M283.64,409.27l.95.53a19.69,19.69,0,0,1,4.59,3.59,9.64,9.64,0,0,1,2.73,5.43,7.72,7.72,0,0,1-.38,1,11.23,11.23,0,0,1-4.61,4.68l-.28.17-1.07.57c-.44.21-.89.42-1.36.61a25.88,25.88,0,0,1-3.08,1,42.46,42.46,0,0,1-24.82-1.44,31.33,31.33,0,0,1-3.17-1.4c-.49-.25-1-.5-1.41-.77s-1-.59-1.42-.9a15,15,0,0,1-5-5.24,8.1,8.1,0,0,1-.9-2.87,8.43,8.43,0,0,1,2-3.37,15.22,15.22,0,0,1,4.34-3.07l.91-.42.24-.1C260.81,403.55,274.47,404.38,283.64,409.27Z" style="fill:#e0e0e0"></path><path d="M300.84,421.91c-4.6,8.08-15.54,10.45-24.36,11.14-13.35.65-27.54-2.3-37-10.76h0c-2.56-2.45-4.65-5.58-4.81-9.17.09,3.62,2.09,6.86,4.65,9.36l0,0c7.6,7.14,18.75,10.28,29.65,11C280,433.87,294.85,432.31,300.84,421.91Z" style="fill:#f5f5f5"></path><path d="M253.88,420.06c3.58,1.91,7.29,1.58,10.8.7l-1,.83-.36,3.87a16.39,16.39,0,0,0,2.26.59,16.61,16.61,0,0,0,4,.23,21.41,21.41,0,0,0,6.43-1.46l3.15,1.69,4.69-2.31.36-3.86-.79-.44-.18-.09a3.51,3.51,0,0,0,.18-.89,1.6,1.6,0,0,0,0-.31c0-.48.3-2.65.36-3.56,0-.11,0-.21,0-.31,0-1.09-.84-2.14-2.6-3.08h0a11.91,11.91,0,0,0-5.78-1.33h-.56l-.53,0-.46,0-.19,0-.35.05a24.55,24.55,0,0,0-2.91.56c-.42.1-.84.22-1.25.34l1.28-1.11.37-3.86a18.68,18.68,0,0,0-11.92.71l-3.15-1.68-4.64,2.38-.37,3.86,1,.53a2.69,2.69,0,0,0-.17.72v0c0,.6-.32,3.15-.36,3.83v0C251.18,418,252,419.06,253.88,420.06Z" style="fill:#e0e0e0"></path><path d="M283.81,415.23c-.09,1-.35,2.93-.35,3.38,0,.1,0,.2,0,.31a3.6,3.6,0,0,1-.18.89L281,418.6A4.5,4.5,0,0,0,283.81,415.23Z" style="opacity:0.1"></path><path d="M260,412.91c-.95-.5-1-1.28.88-2.28a7.33,7.33,0,0,1,5.74-.59l4.21-3.63-.37,3.86-1.27,1.11-.13,0-1.89.56-.71.23a24.3,24.3,0,0,1-4,1.05,4.5,4.5,0,0,1-1.69,0A3.08,3.08,0,0,1,260,412.91Z" style="opacity:0.2"></path><path d="M251.75,412.2l-1-.52.37-3.86,3.14,1.68A6.41,6.41,0,0,0,251.75,412.2Z" style="opacity:0.13"></path><path d="M279.57,422.64l4.68-2.31-.36,3.87-4.69,2.31-3.14-1.69a21.54,21.54,0,0,1-6.44,1.46,16.61,16.61,0,0,1-4-.23,18,18,0,0,1-2.26-.59l.36-3.87a15.26,15.26,0,0,0,2.27.6,16.51,16.51,0,0,0,4,.22,21,21,0,0,0,6.44-1.46Z" style="opacity:0.1"></path><path d="M276.06,424.82a16.12,16.12,0,0,1-5.17,1.56,13.21,13.21,0,0,1-5.29-.33,25.69,25.69,0,0,0,5.26-.11c.87-.11,1.74-.27,2.61-.46S275.19,425.06,276.06,424.82Z" style="opacity:0.13"></path><path d="M251.23,416.82v0c0-.68.34-3.23.36-3.84,0,1.14.79,2.24,2.65,3.23,4.15,2.21,8.47,1.43,12.46.25,3.71-1.11,6.45-2.4,8.46-1.33,1.26.68.8,1.51-.71,2.29a8,8,0,0,1-6.27.38l-3.49,3h0c-3.52.89-7.22,1.2-10.79-.7C252,419.06,251.19,418,251.23,416.82Z" style="opacity:0.13"></path><polygon points="266.27 413.91 266.64 410.04 270.85 406.41 270.49 410.27 266.27 413.91" style="fill:#e0e0e0"></polygon><polygon points="266.27 413.91 266.64 410.04 270.85 406.41 270.49 410.27 266.27 413.91" style="opacity:0.1"></polygon><polygon points="251.14 407.82 254.28 409.5 251.76 412.21 250.77 411.68 251.14 407.82" style="fill:#e0e0e0"></polygon><polygon points="251.14 407.82 254.28 409.5 251.76 412.21 250.77 411.68 251.14 407.82" style="opacity:0.2"></polygon><path d="M283.46,419.9,281,418.6a4.45,4.45,0,0,0,2.8-3.55c0-.11,0-.21,0-.31,0-1.09-.84-2.14-2.6-3.08h0a11.91,11.91,0,0,0-5.78-1.33h-.56l-.53,0-.46,0-.19,0-.35.05a24.55,24.55,0,0,0-2.91.56c-.46.11-.91.24-1.36.37l-1.9.57-.72.22a25,25,0,0,1-4,1.05,4.43,4.43,0,0,1-1.68,0,3.39,3.39,0,0,1-.77-.29c-.95-.51-1-1.29.89-2.28a7.18,7.18,0,0,1,5.73-.6l4.21-3.63a18.68,18.68,0,0,0-11.92.71l-3.15-1.68-4.64,2.38,3.15,1.68c-1.69,1.14-2.63,2.31-2.7,3.43v0c0,1.14.79,2.24,2.66,3.23,4.14,2.22,8.46,1.43,12.45.25,3.71-1.11,6.45-2.4,8.46-1.32,1.25.67.8,1.5-.72,2.28a8,8,0,0,1-6.26.39l-4.48,3.8a16.21,16.21,0,0,0,2.27.6,16.61,16.61,0,0,0,4,.23,21.25,21.25,0,0,0,6.43-1.47l3.15,1.69,4.68-2.3Z" style="fill:#e0e0e0"></path><path d="M283.46,419.9,281,418.6a4.45,4.45,0,0,0,2.8-3.55c0-.11,0-.21,0-.31,0-1.09-.84-2.14-2.6-3.08h0a11.91,11.91,0,0,0-5.78-1.33h-.56l-.53,0-.46,0-.19,0-.35.05a24.55,24.55,0,0,0-2.91.56c-.46.11-.91.24-1.36.37l-1.9.57-.72.22a25,25,0,0,1-4,1.05,4.43,4.43,0,0,1-1.68,0,3.39,3.39,0,0,1-.77-.29c-.95-.51-1-1.29.89-2.28a7.18,7.18,0,0,1,5.73-.6l4.21-3.63a18.68,18.68,0,0,0-11.92.71l-3.15-1.68-4.64,2.38,3.15,1.68c-1.69,1.14-2.63,2.31-2.7,3.43v0c0,1.14.79,2.24,2.66,3.23,4.14,2.22,8.46,1.43,12.45.25,3.71-1.11,6.45-2.4,8.46-1.32,1.25.67.8,1.5-.72,2.28a8,8,0,0,1-6.26.39l-4.48,3.8a16.21,16.21,0,0,0,2.27.6,16.61,16.61,0,0,0,4,.23,21.25,21.25,0,0,0,6.43-1.47l3.15,1.69,4.68-2.3Z" style="fill:#f0f0f0"></path><path d="M254.25,416.19a12.41,12.41,0,0,0,5.05,1.29,19.46,19.46,0,0,0,5.35-.61c1.77-.41,3.49-1,5.23-1.54a18.93,18.93,0,0,1,2.68-.62,4.32,4.32,0,0,1,2.6.41,4.31,4.31,0,0,0-2.59-.29,17.22,17.22,0,0,0-2.63.68c-1.73.57-3.46,1.17-5.24,1.59a18.46,18.46,0,0,1-5.42.57,12.91,12.91,0,0,1-2.64-.46A11.78,11.78,0,0,1,254.25,416.19Z" style="fill:#fff"></path><polygon points="279.57 422.64 279.2 426.51 276.05 424.82 276.42 420.95 279.57 422.64" style="fill:#e0e0e0"></polygon><polygon points="279.57 422.64 279.2 426.51 276.05 424.82 276.42 420.95 279.57 422.64" style="opacity:0.13"></polygon><polygon points="284.25 420.34 279.62 422.21 276.42 420.95 279.57 422.64 284.25 420.34" style="fill:#fafafa"></polygon><polygon points="258.93 407.12 255.76 405.84 251.14 407.82 255.78 405.44 258.93 407.12" style="fill:#fafafa"></polygon><path d="M270.85,406.41a15.76,15.76,0,0,0-2-.44l.37,1.88Z" style="fill:#fff;opacity:0.15"></path><path d="M254.39,416.26a12.06,12.06,0,0,0,5.57,1.33l-2.13-11.06-2-1.09-3.17,1.62.34,1.72,1.34.72a9.29,9.29,0,0,0-1,.8Z" style="fill:#fff;opacity:0.15"></path><path d="M280.59,411.34a11.36,11.36,0,0,0-3.2-.9l2.35,12.12,2.76-1.36-.39-2L281,418.6a4.92,4.92,0,0,0,.88-.48Z" style="fill:#fff;opacity:0.15"></path><path d="M274.89,410.33l-.53,0-.46,0-.19,0-.35.05a24.55,24.55,0,0,0-2.91.56l-.62.17.77,4c1.83-.53,3.33-.76,4.56-.1s.8,1.5-.72,2.28a7.73,7.73,0,0,1-3.26.84l.77,3.95a22.84,22.84,0,0,0,4.47-1.24l1.18.64-2.17-11.27h-.54Z" style="fill:#fff;opacity:0.15"></path></g><g id="freepik--coin--inject-52"><path d="M418.94,163.27l-2.76,2,4.18,5.65h0a9.37,9.37,0,0,0,1.76,1.8c.23.18.48.35.73.52a12.73,12.73,0,0,0,4.21,1.65c.54.11,1.11.2,1.7.26a18.28,18.28,0,0,0,1.85.1,21.49,21.49,0,0,0,2.5-.1,27.07,27.07,0,0,0,2.75-.38c.7-.13,1.41-.28,2.12-.46,10.44-2.62,21.75-10.39,28.55-19.58q.69-.93,1.32-1.89c.6-.91,1.16-1.84,1.66-2.77.41-.76.78-1.51,1.1-2.25s.53-1.27.75-1.88.4-1.22.56-1.81h0a16.23,16.23,0,0,0,.57-4.93c0-.33,0-.65-.08-1a10,10,0,0,0-1.19-3.72,8.39,8.39,0,0,0-.64-1h0l-4-5.34-2.53,1.86c-.36-.07-.73-.13-1.12-.18a21.34,21.34,0,0,0-4.75,0,30,30,0,0,0-3,.43,36.21,36.21,0,0,0-4,1,55.89,55.89,0,0,0-24.9,17.07c-.95,1.15-1.83,2.33-2.63,3.52-.66,1-1.28,2-1.83,3a29.6,29.6,0,0,0-2,4.55A19.93,19.93,0,0,0,418.94,163.27Z" style="fill:#e0e0e0"></path><path d="M462,160l-8.48-11.46-3.87,3.55,8.49,11.48Q460.18,161.85,462,160Z" style="fill:#fff;opacity:0.15"></path><path d="M420.36,171h0a9.37,9.37,0,0,0,1.76,1.8c.23.18.48.35.73.52a12.73,12.73,0,0,0,4.21,1.65l.62.11L419,163.23v0l-2.76,2Z" style="opacity:0.05"></path><path d="M430.45,155.31l-2.53,1.09,12.74,17.16c.85-.28,1.71-.6,2.56-.94Z" style="fill:#fff;opacity:0.15"></path><path d="M449.59,169.53l-11-14.89-4,3.42,10.26,13.87A52.37,52.37,0,0,0,449.59,169.53Z" style="fill:#fff;opacity:0.15"></path><path d="M466.62,128.21l-2.53,1.86c-.36-.07-.73-.13-1.12-.18a21.34,21.34,0,0,0-4.75,0,30,30,0,0,0-3,.43,36.21,36.21,0,0,0-4,1c-1.27.4-2.54.88-3.82,1.41l17.7,23.92c.51-.61,1-1.24,1.47-1.87s.9-1.25,1.32-1.89c.6-.91,1.16-1.84,1.66-2.77.41-.76.78-1.51,1.1-2.25s.53-1.27.75-1.88.4-1.22.56-1.81h0a16.23,16.23,0,0,0,.57-4.93c0-.33,0-.65-.08-1a10,10,0,0,0-1.19-3.72,8.39,8.39,0,0,0-.64-1h0Z" style="fill:#fff;opacity:0.15"></path><path d="M472.49,139.23c0-.33,0-.65-.08-1a10,10,0,0,0-1.19-3.72,8.39,8.39,0,0,0-.64-1h0l-4-5.34-2.53,1.86h0l-.62.94,8.79,11.88A15,15,0,0,0,472.49,139.23Z" style="fill:#fff;opacity:0.15"></path><path d="M415.35,153.43a18.85,18.85,0,0,0-1,4.94,11.05,11.05,0,0,0,1.21,6A9,9,0,0,0,418,167.2c.23.18.48.36.73.52a12.24,12.24,0,0,0,4.21,1.65,14.75,14.75,0,0,0,1.7.26,18,18,0,0,0,1.84.11,24,24,0,0,0,2.5-.1c.91-.08,1.83-.21,2.76-.38.7-.13,1.4-.29,2.12-.47,10.43-2.62,21.74-10.38,28.54-19.57.47-.63.91-1.26,1.32-1.9a31.69,31.69,0,0,0,1.66-2.77q.62-1.14,1.11-2.25c.28-.64.53-1.26.75-1.88s.4-1.22.55-1.81h0a16.22,16.22,0,0,0,.58-4.93c0-.33,0-.65-.08-1a10,10,0,0,0-1.19-3.72,9.45,9.45,0,0,0-4.23-3.9,13.85,13.85,0,0,0-4.39-1.24,21.34,21.34,0,0,0-4.75,0,30,30,0,0,0-3,.43,35.65,35.65,0,0,0-4,1,55.7,55.7,0,0,0-24.9,17.07c-.95,1.15-1.83,2.33-2.63,3.52q-1,1.5-1.83,3A29.28,29.28,0,0,0,415.35,153.43Z" style="fill:#f0f0f0"></path><path d="M461,151.1c.51-.62,1-1.25,1.47-1.88s.91-1.26,1.32-1.9a31.69,31.69,0,0,0,1.66-2.77q.62-1.14,1.11-2.25c.28-.64.53-1.26.75-1.88s.4-1.22.55-1.81h0a16.22,16.22,0,0,0,.58-4.93c0-.33,0-.65-.08-1a10,10,0,0,0-1.19-3.72,9.45,9.45,0,0,0-4.23-3.9,13.85,13.85,0,0,0-4.39-1.24,21.34,21.34,0,0,0-4.75,0c-.89.08-1.79.21-2.7.37Z" style="fill:#fff;opacity:0.15"></path><path d="M468.11,137.28a15.65,15.65,0,0,0,.28-3.6c0-.33,0-.65-.08-1a10,10,0,0,0-1.19-3.72,9.28,9.28,0,0,0-3.3-3.38Z" style="fill:#fff;opacity:0.15"></path><path d="M454.07,158c1.35-1.13,2.63-2.32,3.85-3.55l-10.78-29.32-.43.13c-1.37.43-2.74.95-4.12,1.54Z" style="fill:#fff;opacity:0.15"></path><path d="M440.77,166.38a52.26,52.26,0,0,0,4.72-2.39l-11.86-32.28c-1.52,1-3,2.12-4.4,3.28Z" style="fill:#fff;opacity:0.15"></path><path d="M436.54,168c.86-.28,1.73-.59,2.59-.94l-11.34-30.86c-.75.66-1.49,1.33-2.2,2Z" style="fill:#fff;opacity:0.15"></path><path d="M416.57,150.43h0c-.2.42-.38.84-.55,1.25-.06.14-.12.27-.17.41s-.11.28-.16.42c-.12.31-.23.62-.34.92a18.85,18.85,0,0,0-1,4.94,11.05,11.05,0,0,0,1.21,6A9,9,0,0,0,418,167.2c.23.18.48.36.73.52a12.24,12.24,0,0,0,4.21,1.65l.62.11Z" style="fill:#e0e0e0;opacity:0.30000000000000004"></path><path d="M423.51,148.25c4.93-9.05,16.32-17.09,25.95-18.48.4-.06.81-.1,1.22-.14,9.86-.85,13.7,6.11,8.56,15.55S442,163,432.08,163.8c-.4,0-.79.06-1.18.07C421.92,164.08,418.59,157.31,423.51,148.25Z" style="fill:#e0e0e0"></path><path d="M424.31,148.19c.16-.29.32-.59.5-.88,4.94-8.29,15.39-15.5,24.29-16.78l.24,0,.92-.1a14,14,0,0,1,4.92.36,6.93,6.93,0,0,1,5.43,6.54,13.85,13.85,0,0,1-1.47,6.56c-.2.46-.44.92-.69,1.39s-.49.87-.75,1.29a30.66,30.66,0,0,1-1.85,2.64,39.41,39.41,0,0,1-19,13.06,24.82,24.82,0,0,1-2.95.65c-.46.07-.91.12-1.36.16a11.13,11.13,0,0,1-1.13.06h-.31a10.46,10.46,0,0,1-5.9-1.51c-2.52-1.68-3.54-4.64-2.78-8.36A18.26,18.26,0,0,1,424.31,148.19Z" style="fill:#e0e0e0"></path><path d="M424.31,148.19c.16-.29.32-.59.5-.88,4.94-8.29,15.39-15.5,24.29-16.78l.24,0,.92-.1a14,14,0,0,1,4.92.36,6.93,6.93,0,0,1,5.43,6.54,13.85,13.85,0,0,1-1.47,6.56c-.2.46-.44.92-.69,1.39s-.49.87-.75,1.29a30.66,30.66,0,0,1-1.85,2.64,39.41,39.41,0,0,1-19,13.06,24.82,24.82,0,0,1-2.95.65c-.46.07-.91.12-1.36.16a11.13,11.13,0,0,1-1.13.06h-.31a10.46,10.46,0,0,1-5.9-1.51c-2.52-1.68-3.54-4.64-2.78-8.36A18.26,18.26,0,0,1,424.31,148.19Z" style="opacity:0.13"></path><path d="M426.36,149.42c-.18.29-.34.59-.5.88a18.58,18.58,0,0,0-1.93,5,9,9,0,0,0,.44,5.63,6.18,6.18,0,0,0,.79.62,10.46,10.46,0,0,0,5.9,1.51h.31a11.13,11.13,0,0,0,1.13-.06c.45,0,.9-.09,1.36-.16a24.82,24.82,0,0,0,2.95-.65,39.41,39.41,0,0,0,19-13.06,30.66,30.66,0,0,0,1.85-2.64q.39-.63.75-1.29c.25-.47.49-.93.69-1.39a13.85,13.85,0,0,0,1.47-6.56,7.6,7.6,0,0,0-.66-2.72,7.89,7.89,0,0,0-3.22-1.71,14,14,0,0,0-4.92-.36l-.92.1-.24,0C441.75,133.92,431.3,141.14,426.36,149.42Z" style="fill:#e0e0e0"></path><path d="M418.75,167.72c7.54,4.22,17.37.84,24.71-2.83,10.92-5.9,20.78-15,24.25-26.32v0c.86-3.18,1-6.67-.58-9.6,1.67,2.92,1.63,6.45.8,9.67v0c-2.61,9.32-10,17.16-18.28,23C441.07,167.22,428.51,173.11,418.75,167.72Z" style="fill:#f5f5f5"></path><g id="freepik--money-sign--inject-52"><polygon points="434.97 150.36 436.74 152.97 429.44 154.79 427.67 152.18 434.97 150.36" style="opacity:0.13"></polygon><path d="M433.92,148.7c.81,1.49,3.49,1.86,5.76,2.16l1.5.18a2.83,2.83,0,0,0,.68-.77c.82-1.45-.68-1.64-3.95-2a23.28,23.28,0,0,1-3.27-.59c.33-.77.18-1.68-2.49-1.57Z" style="opacity:0.13"></path><polygon points="450.95 132.82 452.73 135.43 451.07 138.35 449.3 135.74 450.95 132.82" style="opacity:0.2"></polygon><path d="M440.29,141.93c.66-1.16,2.16-1.78,3.94-1.92,2.83-.22,3.11,1.14,2.75,2.18l.31.46a5.39,5.39,0,0,0-1.3,0,5.68,5.68,0,0,0-3.3,1.17C440.81,143.57,439.55,143.24,440.29,141.93Z" style="opacity:0.13"></path><path d="M454,139.14a1.78,1.78,0,0,0,.82.65c0,.17-.07.34-.12.52l1.77,2.61a3.14,3.14,0,0,0-.25-2.78h0l-1.77-2.61S453.44,138.27,454,139.14Z" style="opacity:0.13"></path><path d="M437.91,148.25c3.27.38,4.77.57,3.95,2a2.83,2.83,0,0,1-.68.77c2.21.3,3.13.63,2.45,1.83-.5.89-1.73,1.69-4,1.86s-3.29-.51-2.91-1.76l-7.3,1.82a1.38,1.38,0,0,0,0,.2,4.26,4.26,0,0,0-1.08-.07l1.4,2.11a1.37,1.37,0,0,0,.13.2l0,0h0a3.71,3.71,0,0,0,1.79,1.21,10.25,10.25,0,0,0,3,.49l0,0-3.4.27,1.77,2.61h0l2.3-.18,3.12-.24h0l1.66-2.93c4.88-.85,8.87-3,10.83-6.5.89-1.57.95-2.67.49-3.45h0l0,0a1.27,1.27,0,0,0-.13-.19l-1.5-2.15a1.75,1.75,0,0,0-.4,1,14,14,0,0,0-2.26-.5c-3.05-.43-6.06-.3-5-2.17a3,3,0,0,1,.62-.75c-1.88-.22-3.14-.55-2.4-1.86.66-1.16,2.16-1.78,3.94-1.92,2.83-.22,3.11,1.14,2.75,2.18h0l.31.46,1.46,2.15,7.67-1.88-1.77-2.61a4.45,4.45,0,0,0,.19-1.23,9.59,9.59,0,0,0-3.77-.73l.67-1.18-4.39-1.33-1.65,2.93c-4.95.89-9.3,3.15-11.29,6.67a5.23,5.23,0,0,0-.71,1.9A17,17,0,0,0,437.91,148.25Z" style="fill:#e0e0e0"></path><path d="M437.91,148.25c3.27.38,4.77.57,3.95,2a2.83,2.83,0,0,1-.68.77c2.21.3,3.13.63,2.45,1.83-.5.89-1.73,1.69-4,1.86s-3.29-.51-2.91-1.76l-7.3,1.82a1.38,1.38,0,0,0,0,.2,4.26,4.26,0,0,0-1.08-.07l1.4,2.11a1.37,1.37,0,0,0,.13.2l0,0h0a3.71,3.71,0,0,0,1.79,1.21,10.25,10.25,0,0,0,3,.49l0,0-3.4.27,1.77,2.61h0l2.3-.18,3.12-.24h0l1.66-2.93c4.88-.85,8.87-3,10.83-6.5.89-1.57.95-2.67.49-3.45h0l0,0a1.27,1.27,0,0,0-.13-.19l-1.5-2.15a1.75,1.75,0,0,0-.4,1,14,14,0,0,0-2.26-.5c-3.05-.43-6.06-.3-5-2.17a3,3,0,0,1,.62-.75c-1.88-.22-3.14-.55-2.4-1.86.66-1.16,2.16-1.78,3.94-1.92,2.83-.22,3.11,1.14,2.75,2.18h0l.31.46,1.46,2.15,7.67-1.88-1.77-2.61a4.45,4.45,0,0,0,.19-1.23,9.59,9.59,0,0,0-3.77-.73l.67-1.18-4.39-1.33-1.65,2.93c-4.95.89-9.3,3.15-11.29,6.67a5.23,5.23,0,0,0-.71,1.9A17,17,0,0,0,437.91,148.25Z" style="opacity:0.1"></path><g style="opacity:0.2"><path d="M440.06,158.54a20.18,20.18,0,0,0,7.72-3.27,11.52,11.52,0,0,0,2.8-3,6.93,6.93,0,0,0,.88-1.79,2.5,2.5,0,0,0-.08-1.9,2.44,2.44,0,0,1,.25,1.93,7,7,0,0,1-.81,1.88,10.92,10.92,0,0,1-2.83,3.12,15.45,15.45,0,0,1-3.78,2A19.46,19.46,0,0,1,440.06,158.54Z"></path></g><path d="M433.7,147.34a17,17,0,0,0,4.21.91c3.27.38,4.77.57,3.95,2a2.83,2.83,0,0,1-.68.77,6,6,0,0,1-3.31,1.08c-2.39.19-3.28-.52-2.9-1.76l-7.3,1.82a2.87,2.87,0,0,0,1.69,3.45,8.91,8.91,0,0,0,3.51.72l-1.66,2.93,3.4-.27,2-.15,1.65-2.93c4.89-.85,8.88-3.05,10.84-6.5a5.77,5.77,0,0,0,.75-2c.28-2.21-2-2.92-4.57-3.31-.91-.13-1.82-.21-2.61-.31-1.88-.22-3.14-.55-2.4-1.86.66-1.16,2.16-1.78,3.94-1.92,2.83-.22,3.11,1.14,2.75,2.18l7.67-1.88a4.45,4.45,0,0,0,.19-1.23c0-1.54-1-2.44-2.54-2.91a11.78,11.78,0,0,0-3-.43l1.65-2.92-5.36.4-1.66,2.94c-4.95.89-9.3,3.15-11.29,6.67C431.2,145.37,432.06,146.64,433.7,147.34Z" style="fill:#e0e0e0"></path><path d="M433.7,147.34a17,17,0,0,0,4.21.91c3.27.38,4.77.57,3.95,2a2.83,2.83,0,0,1-.68.77,6,6,0,0,1-3.31,1.08c-2.39.19-3.28-.52-2.9-1.76l-7.3,1.82a2.87,2.87,0,0,0,1.69,3.45,8.91,8.91,0,0,0,3.51.72l-1.66,2.93,3.4-.27,2-.15,1.65-2.93c4.89-.85,8.88-3.05,10.84-6.5a5.77,5.77,0,0,0,.75-2c.28-2.21-2-2.92-4.57-3.31-.91-.13-1.82-.21-2.61-.31-1.88-.22-3.14-.55-2.4-1.86.66-1.16,2.16-1.78,3.94-1.92,2.83-.22,3.11,1.14,2.75,2.18l7.67-1.88a4.45,4.45,0,0,0,.19-1.23c0-1.54-1-2.44-2.54-2.91a11.78,11.78,0,0,0-3-.43l1.65-2.92-5.36.4-1.66,2.94c-4.95.89-9.3,3.15-11.29,6.67C431.2,145.37,432.06,146.64,433.7,147.34Z" style="fill:#f0f0f0"></path><path d="M447.52,142.06l4.7-1.15-1.64-5.07c-.41-.05-.84-.08-1.28-.1l.8-1.41-.46-1.41-4.05.3-.59,1Z" style="fill:#fff;opacity:0.15"></path><path d="M433.7,147.34a17,17,0,0,0,4.21.91l1.06.13-3-9.14a11.09,11.09,0,0,0-3.38,3.59,6.56,6.56,0,0,0-.56,1.25L433,147A4.51,4.51,0,0,0,433.7,147.34Z" style="fill:#fff;opacity:0.15"></path><path d="M440,151.67a7.51,7.51,0,0,1-2.16.45c-2.39.19-3.28-.52-2.9-1.76l-.8.2,2.59,8.06,1.52-2.69a21.55,21.55,0,0,0,2.9-.7Z" style="fill:#fff;opacity:0.15"></path><path d="M431.24,156.18a11.19,11.19,0,0,0,1.63.17l-1,1.77.35,1.08,2.4-.19.42,0-2.58-8-2.67.66Z" style="fill:#fff;opacity:0.15"></path><path d="M448.45,145l1.13,3.49a4.52,4.52,0,0,0,.29-1.05A2.26,2.26,0,0,0,448.45,145Z" style="fill:#fff;opacity:0.15"></path><polygon points="438.28 155.93 440.06 158.54 438.4 161.47 436.63 158.86 438.28 155.93" style="fill:#e0e0e0"></polygon><polygon points="438.28 155.93 440.06 158.54 438.4 161.47 436.63 158.86 438.28 155.93" style="opacity:0.13"></polygon><path d="M443.93,136.16l-.57.12-.66.16-.84.22c-.31.09-.64.18-1,.3l-.53.18-.55.2-.56.23-.57.25c-.38.18-.76.35-1.13.56s-.74.43-1.09.64a15.5,15.5,0,0,0-1.86,1.44l-.37.36L434,141l-.16.18a7.12,7.12,0,0,0-.54.65,4.39,4.39,0,0,0-.39.53l-.3.47.28-.48a5.29,5.29,0,0,1,.37-.54,6.69,6.69,0,0,1,.53-.67L434,141l.18-.17.36-.38c.28-.24.55-.51.87-.75s.65-.48,1-.72.72-.45,1.1-.65.76-.38,1.14-.56l.58-.25.57-.22.55-.2.54-.17c.35-.12.69-.2,1-.28s.6-.15.85-.2l.66-.14Z" style="fill:#fff"></path><polygon points="436.63 158.86 431.21 159.28 432.87 156.35 431.76 158.93 436.63 158.86" style="fill:#fafafa"></polygon><polygon points="449.3 135.74 450.52 133.11 445.59 133.22 450.95 132.82 449.3 135.74" style="fill:#fafafa"></polygon></g></g><g id="freepik--coin--inject-52"><path d="M109.2,77l-1.93,1.42,2.92,3.94h0a6.67,6.67,0,0,0,1.23,1.26,5.88,5.88,0,0,0,.51.36,8.82,8.82,0,0,0,2.94,1.16,11,11,0,0,0,1.19.18c.41,0,.84.07,1.29.07a15.05,15.05,0,0,0,1.75-.07,18.78,18.78,0,0,0,1.92-.26c.49-.09,1-.2,1.48-.33,7.29-1.83,15.19-7.25,19.94-13.67.32-.44.63-.88.92-1.32.42-.64.81-1.29,1.16-1.94s.54-1,.77-1.57.37-.88.52-1.31.28-.85.39-1.27h0a10.92,10.92,0,0,0,.4-3.44c0-.23,0-.46,0-.68a7.09,7.09,0,0,0-.83-2.6,8.18,8.18,0,0,0-.45-.69h0l-2.76-3.73-1.77,1.3c-.26-.05-.52-.09-.79-.12a15.08,15.08,0,0,0-3.31,0,20.26,20.26,0,0,0-2.13.31,22.84,22.84,0,0,0-2.79.71,38.92,38.92,0,0,0-17.39,11.93,28.09,28.09,0,0,0-1.84,2.46c-.46.69-.89,1.4-1.28,2.11a20.39,20.39,0,0,0-1.39,3.18A14,14,0,0,0,109.2,77Z" style="fill:#e0e0e0"></path><path d="M139.29,74.74l-5.92-8-2.71,2.47,5.93,8A35.54,35.54,0,0,0,139.29,74.74Z" style="fill:#fff;opacity:0.15"></path><path d="M110.19,82.39h0a6.67,6.67,0,0,0,1.23,1.26,5.88,5.88,0,0,0,.51.36,8.82,8.82,0,0,0,2.94,1.16l.43.08L109.21,77v0l-1.93,1.42Z" style="opacity:0.05"></path><path d="M117.24,71.47l-1.77.76,8.9,12c.59-.2,1.19-.42,1.79-.66Z" style="fill:#fff;opacity:0.15"></path><path d="M130.61,81.41,122.91,71l-2.77,2.39,7.17,9.69A36.49,36.49,0,0,0,130.61,81.41Z" style="fill:#fff;opacity:0.15"></path><path d="M142.51,52.54l-1.77,1.3c-.26-.05-.52-.09-.79-.12a15.08,15.08,0,0,0-3.31,0,20.26,20.26,0,0,0-2.13.31,22.84,22.84,0,0,0-2.79.71q-1.33.42-2.67,1l12.36,16.7c.36-.43.7-.86,1-1.3s.63-.88.92-1.32c.42-.64.81-1.29,1.16-1.94s.54-1,.77-1.57.37-.88.52-1.31.28-.85.39-1.27h0a10.92,10.92,0,0,0,.4-3.44c0-.23,0-.46,0-.68a7.09,7.09,0,0,0-.83-2.6,8.18,8.18,0,0,0-.45-.69h0Z" style="fill:#fff;opacity:0.15"></path><path d="M146.6,60.24c0-.23,0-.46,0-.68a7.09,7.09,0,0,0-.83-2.6,8.18,8.18,0,0,0-.45-.69h0l-2.76-3.73-1.77,1.3h0l-.44.66,6.14,8.3A10.34,10.34,0,0,0,146.6,60.24Z" style="fill:#fff;opacity:0.15"></path><path d="M106.7,70.16a12.78,12.78,0,0,0-.69,3.45,7.69,7.69,0,0,0,.84,4.17,6.5,6.5,0,0,0,1.7,2,6,6,0,0,0,.52.36A8.53,8.53,0,0,0,112,81.29c.38.08.77.14,1.18.19s.85.07,1.29.07,1.14,0,1.75-.07,1.27-.15,1.92-.27c.49-.09,1-.2,1.48-.32,7.29-1.83,15.19-7.25,19.94-13.67.32-.44.63-.88.92-1.33.42-.63.81-1.28,1.16-1.93s.55-1.06.77-1.57.37-.89.53-1.32.28-.85.38-1.26h0a11.6,11.6,0,0,0,.4-3.45c0-.23,0-.45-.06-.67a7.09,7.09,0,0,0-.83-2.6,6.57,6.57,0,0,0-2.95-2.72,9.6,9.6,0,0,0-3.07-.87,15.19,15.19,0,0,0-3.32,0,20.46,20.46,0,0,0-2.12.31,25,25,0,0,0-2.8.71A39.11,39.11,0,0,0,111.2,62.41a30.12,30.12,0,0,0-1.83,2.46A23.26,23.26,0,0,0,108.09,67,19.48,19.48,0,0,0,106.7,70.16Z" style="fill:#f0f0f0"></path><path d="M138.54,68.53c.36-.43.7-.87,1-1.31s.63-.88.92-1.33c.42-.63.81-1.28,1.16-1.93s.55-1.06.77-1.57.37-.89.53-1.32.28-.85.38-1.26h0a11.6,11.6,0,0,0,.4-3.45c0-.23,0-.45-.06-.67a7.09,7.09,0,0,0-.83-2.6,6.57,6.57,0,0,0-2.95-2.72,9.6,9.6,0,0,0-3.07-.87,15.19,15.19,0,0,0-3.32,0c-.62.06-1.25.15-1.88.27Z" style="fill:#fff;opacity:0.15"></path><path d="M143.55,58.88a11.12,11.12,0,0,0,.19-2.52c0-.23,0-.45-.06-.67a7.09,7.09,0,0,0-.83-2.6,6.42,6.42,0,0,0-2.3-2.36Z" style="fill:#fff;opacity:0.15"></path><path d="M133.74,73.35c.94-.79,1.84-1.62,2.69-2.48L128.9,50.39l-.31.09c-1,.3-1.91.67-2.87,1.08Z" style="fill:#fff;opacity:0.15"></path><path d="M124.45,79.21c1.1-.5,2.21-1.06,3.3-1.68L119.46,55a38.23,38.23,0,0,0-3.07,2.29Z" style="fill:#fff;opacity:0.15"></path><path d="M121.49,80.35c.61-.2,1.21-.42,1.81-.66l-7.92-21.56q-.8.69-1.53,1.41Z" style="fill:#fff;opacity:0.15"></path><path d="M107.55,68.07h0q-.21.44-.39.87l-.12.28c0,.1-.08.2-.11.3s-.16.43-.23.64a12.78,12.78,0,0,0-.69,3.45,7.69,7.69,0,0,0,.84,4.17,6.5,6.5,0,0,0,1.7,2,6,6,0,0,0,.52.36A8.53,8.53,0,0,0,112,81.29l.43.08Z" style="fill:#e0e0e0;opacity:0.30000000000000004"></path><path d="M112.4,66.54c3.44-6.32,11.39-11.93,18.11-12.9a8.39,8.39,0,0,1,.86-.1c6.89-.6,9.56,4.26,6,10.85s-12.08,12.42-19,13c-.28,0-.56,0-.82,0C111.28,77.6,109,72.87,112.4,66.54Z" style="fill:#e0e0e0"></path><path d="M113,66.5c.11-.21.23-.41.35-.61,3.45-5.79,10.75-10.83,17-11.73l.17,0,.65-.07a9.56,9.56,0,0,1,3.43.25,4.82,4.82,0,0,1,3.79,4.56,9.63,9.63,0,0,1-1,4.59c-.14.32-.31.64-.49,1s-.33.6-.52.9A20.5,20.5,0,0,1,135,67.19a27.53,27.53,0,0,1-13.3,9.11,17.35,17.35,0,0,1-2.06.46c-.32,0-.64.09-1,.11s-.53,0-.79,0h-.21a7.26,7.26,0,0,1-4.13-1.06c-1.75-1.17-2.47-3.24-1.94-5.83A12.69,12.69,0,0,1,113,66.5Z" style="fill:#e0e0e0"></path><path d="M113,66.5c.11-.21.23-.41.35-.61,3.45-5.79,10.75-10.83,17-11.73l.17,0,.65-.07a9.56,9.56,0,0,1,3.43.25,4.82,4.82,0,0,1,3.79,4.56,9.63,9.63,0,0,1-1,4.59c-.14.32-.31.64-.49,1s-.33.6-.52.9A20.5,20.5,0,0,1,135,67.19a27.53,27.53,0,0,1-13.3,9.11,17.35,17.35,0,0,1-2.06.46c-.32,0-.64.09-1,.11s-.53,0-.79,0h-.21a7.26,7.26,0,0,1-4.13-1.06c-1.75-1.17-2.47-3.24-1.94-5.83A12.69,12.69,0,0,1,113,66.5Z" style="opacity:0.13"></path><path d="M114.38,67.36,114,68a13.13,13.13,0,0,0-1.35,3.53,6.28,6.28,0,0,0,.31,3.93,4.53,4.53,0,0,0,.55.43,7.26,7.26,0,0,0,4.13,1.06h.21c.26,0,.52,0,.79,0s.63-.06,1-.11a17.35,17.35,0,0,0,2.06-.46A27.53,27.53,0,0,0,135,67.19a20.5,20.5,0,0,0,1.29-1.85c.19-.3.36-.6.52-.9s.35-.65.49-1a9.63,9.63,0,0,0,1-4.59,5.3,5.3,0,0,0-.46-1.9,5.5,5.5,0,0,0-2.25-1.19,9.8,9.8,0,0,0-3.43-.25l-.65.07-.16,0C125.13,56.53,117.83,61.57,114.38,67.36Z" style="fill:#e0e0e0"></path><path d="M109.07,80.14c5.26,3,12.13.59,17.26-2C134,74,140.84,67.65,143.26,59.78h0a9.07,9.07,0,0,0-.41-6.7,9.06,9.06,0,0,1,.56,6.75h0c-1.82,6.51-7,12-12.77,16C124.66,79.79,115.88,83.9,109.07,80.14Z" style="fill:#f5f5f5"></path><g id="freepik--money-sign--inject-52"><polygon points="120.4 68.02 121.64 69.84 116.53 71.11 115.29 69.28 120.4 68.02" style="opacity:0.13"></polygon><path d="M119.66,66.85c.57,1.05,2.44,1.31,4,1.51l1,.13a2,2,0,0,0,.48-.54c.57-1-.48-1.14-2.76-1.41a17.41,17.41,0,0,1-2.29-.41c.24-.54.13-1.17-1.73-1.1Z" style="opacity:0.13"></path><polygon points="131.56 55.76 132.8 57.58 131.64 59.63 130.41 57.8 131.56 55.76" style="opacity:0.2"></polygon><path d="M124.11,62.13a3.35,3.35,0,0,1,2.75-1.35c2-.15,2.18.8,1.93,1.53l.21.32a3.7,3.7,0,0,0-.9,0,3.93,3.93,0,0,0-2.31.82C124.48,63.27,123.6,63,124.11,62.13Z" style="opacity:0.13"></path><path d="M133.65,60.18a1.27,1.27,0,0,0,.58.45c0,.12,0,.24-.09.37l1.23,1.82a2.16,2.16,0,0,0-.17-1.94h0L134,59.06S133.3,59.57,133.65,60.18Z" style="opacity:0.13"></path><path d="M122.45,66.54c2.28.27,3.33.4,2.76,1.41a2,2,0,0,1-.48.54c1.55.21,2.19.44,1.71,1.28-.34.62-1.21,1.18-2.78,1.3s-2.29-.36-2-1.23l-5.1,1.27s0,.09,0,.14a2.4,2.4,0,0,0-.75,0l1,1.47a1.19,1.19,0,0,0,.09.15v0h0a2.61,2.61,0,0,0,1.25.84,7.2,7.2,0,0,0,2.07.34l0,0-2.37.18L119,76.07h0l1.61-.13,2.17-.17h0l1.16-2c3.41-.59,6.2-2.13,7.56-4.54.63-1.1.67-1.87.35-2.41h0v0l-.1-.14-1-1.5a1.19,1.19,0,0,0-.28.69,10,10,0,0,0-1.58-.34c-2.14-.31-4.24-.21-3.5-1.52a1.82,1.82,0,0,1,.44-.52c-1.31-.16-2.19-.39-1.68-1.3a3.35,3.35,0,0,1,2.75-1.35c2-.15,2.18.8,1.93,1.53h0l.21.32,1,1.5,5.35-1.31L134.14,61a3.2,3.2,0,0,0,.14-.86,6.67,6.67,0,0,0-2.64-.51l.47-.83-3.06-.92-1.16,2c-3.46.62-6.5,2.2-7.89,4.66a3.73,3.73,0,0,0-.49,1.32A11.51,11.51,0,0,0,122.45,66.54Z" style="fill:#e0e0e0"></path><path d="M122.45,66.54c2.28.27,3.33.4,2.76,1.41a2,2,0,0,1-.48.54c1.55.21,2.19.44,1.71,1.28-.34.62-1.21,1.18-2.78,1.3s-2.29-.36-2-1.23l-5.1,1.27s0,.09,0,.14a2.4,2.4,0,0,0-.75,0l1,1.47a1.19,1.19,0,0,0,.09.15v0h0a2.61,2.61,0,0,0,1.25.84,7.2,7.2,0,0,0,2.07.34l0,0-2.37.18L119,76.07h0l1.61-.13,2.17-.17h0l1.16-2c3.41-.59,6.2-2.13,7.56-4.54.63-1.1.67-1.87.35-2.41h0v0l-.1-.14-1-1.5a1.19,1.19,0,0,0-.28.69,10,10,0,0,0-1.58-.34c-2.14-.31-4.24-.21-3.5-1.52a1.82,1.82,0,0,1,.44-.52c-1.31-.16-2.19-.39-1.68-1.3a3.35,3.35,0,0,1,2.75-1.35c2-.15,2.18.8,1.93,1.53h0l.21.32,1,1.5,5.35-1.31L134.14,61a3.2,3.2,0,0,0,.14-.86,6.67,6.67,0,0,0-2.64-.51l.47-.83-3.06-.92-1.16,2c-3.46.62-6.5,2.2-7.89,4.66a3.73,3.73,0,0,0-.49,1.32A11.51,11.51,0,0,0,122.45,66.54Z" style="opacity:0.1"></path><g style="opacity:0.2"><path d="M124,73.73a14,14,0,0,0,5.39-2.29,8.07,8.07,0,0,0,2-2.08,4.73,4.73,0,0,0,.61-1.26,1.73,1.73,0,0,0,0-1.32,1.71,1.71,0,0,1,.17,1.35,4.61,4.61,0,0,1-.57,1.31,7.56,7.56,0,0,1-2,2.18A11,11,0,0,1,126.85,73,13.93,13.93,0,0,1,124,73.73Z"></path></g><path d="M119.51,65.9a11.51,11.51,0,0,0,2.94.64c2.28.27,3.33.4,2.76,1.41a2,2,0,0,1-.48.54,4.19,4.19,0,0,1-2.31.76c-1.67.13-2.29-.37-2-1.23l-5.11,1.26a2,2,0,0,0,1.19,2.42,6.2,6.2,0,0,0,2.45.5l-1.16,2,2.37-.18,1.41-.11,1.16-2c3.41-.6,6.2-2.13,7.57-4.54A3.94,3.94,0,0,0,130.8,66c.2-1.54-1.38-2-3.19-2.31-.63-.09-1.27-.14-1.82-.21-1.31-.16-2.19-.39-1.68-1.3a3.35,3.35,0,0,1,2.75-1.35c2-.15,2.18.8,1.93,1.53L134.14,61a3.2,3.2,0,0,0,.14-.86c0-1.08-.71-1.71-1.78-2a8.28,8.28,0,0,0-2.1-.31l1.16-2-3.74.28-1.17,2.06c-3.45.62-6.49,2.19-7.88,4.66C117.76,64.53,118.36,65.41,119.51,65.9Z" style="fill:#e0e0e0"></path><path d="M119.51,65.9a11.51,11.51,0,0,0,2.94.64c2.28.27,3.33.4,2.76,1.41a2,2,0,0,1-.48.54,4.19,4.19,0,0,1-2.31.76c-1.67.13-2.29-.37-2-1.23l-5.11,1.26a2,2,0,0,0,1.19,2.42,6.2,6.2,0,0,0,2.45.5l-1.16,2,2.37-.18,1.41-.11,1.16-2c3.41-.6,6.2-2.13,7.57-4.54A3.94,3.94,0,0,0,130.8,66c.2-1.54-1.38-2-3.19-2.31-.63-.09-1.27-.14-1.82-.21-1.31-.16-2.19-.39-1.68-1.3a3.35,3.35,0,0,1,2.75-1.35c2-.15,2.18.8,1.93,1.53L134.14,61a3.2,3.2,0,0,0,.14-.86c0-1.08-.71-1.71-1.78-2a8.28,8.28,0,0,0-2.1-.31l1.16-2-3.74.28-1.17,2.06c-3.45.62-6.49,2.19-7.88,4.66C117.76,64.53,118.36,65.41,119.51,65.9Z" style="fill:#f0f0f0"></path><path d="M129.16,62.22l3.28-.81-1.14-3.54c-.29,0-.59-.06-.9-.07l.56-1-.32-1-2.82.21-.42.73Z" style="fill:#fff;opacity:0.15"></path><path d="M119.51,65.9a11.51,11.51,0,0,0,2.94.64l.74.09-2.06-6.38a7.71,7.71,0,0,0-2.36,2.51,4,4,0,0,0-.39.87l.65,2A2.7,2.7,0,0,0,119.51,65.9Z" style="fill:#fff;opacity:0.15"></path><path d="M123.93,68.93a5.32,5.32,0,0,1-1.51.32c-1.67.13-2.29-.37-2-1.23l-.56.14,1.81,5.62,1.06-1.87a17.54,17.54,0,0,0,2-.49Z" style="fill:#fff;opacity:0.15"></path><path d="M117.79,72.08a9.29,9.29,0,0,0,1.14.12l-.7,1.24.24.75,1.67-.13.29,0-1.79-5.59-1.87.47Z" style="fill:#fff;opacity:0.15"></path><path d="M129.81,64.25l.79,2.44a2.65,2.65,0,0,0,.2-.74A1.56,1.56,0,0,0,129.81,64.25Z" style="fill:#fff;opacity:0.15"></path><polygon points="122.71 71.91 123.95 73.73 122.79 75.77 121.56 73.95 122.71 71.91" style="fill:#e0e0e0"></polygon><polygon points="122.71 71.91 123.95 73.73 122.79 75.77 121.56 73.95 122.71 71.91" style="opacity:0.13"></polygon><path d="M126.65,58.1l-.4.08-.45.11c-.18.05-.38.09-.59.16s-.45.12-.69.2l-.37.13-.39.14-.39.16-.4.17c-.26.13-.53.25-.79.4a8.42,8.42,0,0,0-.76.45c-.24.16-.48.32-.69.49s-.42.35-.61.51l-.26.25-.12.13-.11.12c-.14.17-.28.31-.38.46a4.18,4.18,0,0,0-.27.36l-.21.34.2-.34a4.05,4.05,0,0,1,.25-.38c.1-.15.23-.3.37-.47l.11-.12.12-.13.26-.26a7.73,7.73,0,0,1,.6-.52c.22-.18.46-.34.7-.51s.5-.31.76-.45.53-.27.8-.4l.4-.17.4-.15.39-.14.37-.12.7-.2c.21-.06.41-.1.59-.14l.46-.09Z" style="fill:#fff"></path><polygon points="121.56 73.95 117.77 74.24 118.93 72.2 118.15 74 121.56 73.95" style="fill:#fafafa"></polygon><polygon points="130.41 57.8 131.26 55.96 127.82 56.04 131.56 55.76 130.41 57.8" style="fill:#fafafa"></polygon></g></g><g id="freepik--coin--inject-52"><path d="M57.29,424.81l-3.44,1.4,2.9,7h0a10,10,0,0,0,1.37,2.36c.2.25.41.5.63.74a13.56,13.56,0,0,0,4,2.84,15.85,15.85,0,0,0,1.72.72,17.09,17.09,0,0,0,1.91.6,24.21,24.21,0,0,0,2.65.56c1,.15,2,.26,3,.32.77.05,1.55.08,2.34.08,11.65,0,25.57-5.15,35.14-13,.65-.54,1.28-1.08,1.88-1.64.88-.8,1.7-1.62,2.48-2.47.63-.69,1.22-1.38,1.75-2.07s.89-1.18,1.28-1.77.75-1.17,1.06-1.75h0a17.86,17.86,0,0,0,1.91-5c.07-.35.12-.69.17-1a10.93,10.93,0,0,0-.27-4.22,9.56,9.56,0,0,0-.41-1.21h0l-2.74-6.66-3.15,1.29c-.36-.17-.74-.33-1.13-.49a23.82,23.82,0,0,0-5-1.3,31.94,31.94,0,0,0-3.31-.35,39.29,39.29,0,0,0-4.47,0,60.27,60.27,0,0,0-30.64,11.34,45.47,45.47,0,0,0-3.69,3c-1,.87-1.87,1.77-2.72,2.69a30.81,30.81,0,0,0-3.3,4.25A21.58,21.58,0,0,0,57.29,424.81Z" style="fill:#e0e0e0"></path><path d="M103.37,432.76l-5.88-14.28-5,2.7,5.87,14.3Q101,434.22,103.37,432.76Z" style="fill:#fff;opacity:0.15"></path><path d="M56.75,433.24h0a10,10,0,0,0,1.37,2.36c.2.25.41.5.63.74a13.56,13.56,0,0,0,4,2.84l.62.28-6-14.69,0,0-3.44,1.4Z" style="opacity:0.05"></path><path d="M71.47,419.5l-3,.47,8.84,21.38c1-.07,2-.17,2.94-.31Z" style="fill:#fff;opacity:0.15"></path><path d="M87.8,439.49l-7.63-18.55-5.06,2.54,7.1,17.27C84.06,440.43,85.93,440,87.8,439.49Z" style="fill:#fff;opacity:0.15"></path><path d="M116.6,400.61l-3.15,1.29c-.36-.17-.74-.33-1.13-.49a23.82,23.82,0,0,0-5-1.3,31.94,31.94,0,0,0-3.31-.35,39.29,39.29,0,0,0-4.47,0c-1.43.08-2.9.25-4.38.47L107.45,430c.69-.51,1.37-1,2-1.57s1.28-1.08,1.88-1.64c.88-.8,1.7-1.62,2.48-2.47.63-.69,1.22-1.38,1.75-2.07s.89-1.18,1.28-1.77.75-1.17,1.06-1.75h0a17.86,17.86,0,0,0,1.91-5c.07-.35.12-.69.17-1a10.93,10.93,0,0,0-.27-4.22,9.56,9.56,0,0,0-.41-1.21h0Z" style="fill:#fff;opacity:0.15"></path><path d="M119.85,413.73c.07-.35.12-.69.17-1a10.93,10.93,0,0,0-.27-4.22,9.56,9.56,0,0,0-.41-1.21h0l-2.74-6.66-3.15,1.29-.06,0-.9.83,6.09,14.79A17,17,0,0,0,119.85,413.73Z" style="fill:#fff;opacity:0.15"></path><path d="M56.12,413.54a20.44,20.44,0,0,0-2.34,4.92,12,12,0,0,0-.31,6.58,9.85,9.85,0,0,0,1.81,3.65,8.8,8.8,0,0,0,.63.74,13.4,13.4,0,0,0,4,2.85,18.13,18.13,0,0,0,1.72.72c.6.22,1.24.42,1.91.6a24.56,24.56,0,0,0,2.64.55c1,.16,2,.26,3,.33.77,0,1.55.07,2.34.07,11.65,0,25.57-5.15,35.13-13,.66-.53,1.29-1.08,1.89-1.64.88-.79,1.7-1.62,2.48-2.46.63-.69,1.21-1.38,1.75-2.07s.89-1.19,1.28-1.78.75-1.17,1.06-1.75h0a17.92,17.92,0,0,0,1.91-5c.06-.34.12-.69.16-1a10.75,10.75,0,0,0-.26-4.22,10.24,10.24,0,0,0-3.41-5.21,15.09,15.09,0,0,0-4.28-2.47,23.81,23.81,0,0,0-5-1.31,31.76,31.76,0,0,0-3.3-.34,37.09,37.09,0,0,0-4.47,0,60.41,60.41,0,0,0-30.65,11.33q-1.95,1.44-3.69,3c-1,.87-1.87,1.77-2.72,2.7A31.8,31.8,0,0,0,56.12,413.54Z" style="fill:#f0f0f0"></path><path d="M104.59,423.14q1.05-.78,2-1.59c.66-.53,1.29-1.08,1.89-1.64.88-.79,1.7-1.62,2.48-2.46.63-.69,1.21-1.38,1.75-2.07s.89-1.19,1.28-1.78.75-1.17,1.06-1.75h0a17.92,17.92,0,0,0,1.91-5c.06-.34.12-.69.16-1a10.75,10.75,0,0,0-.26-4.22,10.24,10.24,0,0,0-3.41-5.21,15.09,15.09,0,0,0-4.28-2.47,23.81,23.81,0,0,0-5-1.31c-1-.15-1.93-.25-2.93-.31Z" style="fill:#fff;opacity:0.15"></path><path d="M115.76,410.53a17.08,17.08,0,0,0,1.25-3.71c.06-.34.12-.69.16-1a10.75,10.75,0,0,0-.26-4.22,10,10,0,0,0-2.56-4.42Z" style="fill:#fff;opacity:0.15"></path><path d="M95.54,428.57c1.72-.83,3.39-1.74,5-2.72L97,392.23l-.49,0c-1.55.1-3.13.28-4.73.53Z" style="fill:#fff;opacity:0.15"></path><path d="M79.37,433.85A56.84,56.84,0,0,0,85,432.58l-3.92-37c-1.86.67-3.69,1.44-5.48,2.28Z" style="fill:#fff;opacity:0.15"></path><path d="M74.51,434.44c1-.07,2-.17,3-.3l-3.75-35.39c-1,.49-1.91,1-2.83,1.54Z" style="fill:#fff;opacity:0.15"></path><path d="M58.19,410.71h0c-.31.39-.62.78-.91,1.16l-.28.39-.29.4c-.2.29-.4.58-.59.88a20.44,20.44,0,0,0-2.34,4.92,12,12,0,0,0-.31,6.58,9.85,9.85,0,0,0,1.81,3.65,8.8,8.8,0,0,0,.63.74,13.4,13.4,0,0,0,4,2.85l.62.28Z" style="fill:#e0e0e0;opacity:0.30000000000000004"></path><path d="M66.06,410.26c7.56-8.2,21.63-13.62,32.11-12.54.44,0,.88.1,1.31.17,10.58,1.72,12.77,10,4.88,18.58s-22.84,14.09-33.42,12.37c-.43-.07-.85-.15-1.25-.24C60.2,426.45,58.49,418.46,66.06,410.26Z" style="fill:#e0e0e0"></path><path d="M66.91,410.4c.24-.27.49-.53.75-.79,7.38-7.39,20.26-12.19,29.93-11.19l.26,0c.34,0,.67.08,1,.13a15,15,0,0,1,5.06,1.68,7.48,7.48,0,0,1,4,8.3,15,15,0,0,1-3.27,6.5c-.34.42-.7.85-1.1,1.27s-.73.78-1.13,1.16a30.89,30.89,0,0,1-2.64,2.28,42.57,42.57,0,0,1-23.42,8.67,27.09,27.09,0,0,1-3.27-.1c-.5,0-1-.11-1.48-.19s-.81-.14-1.19-.23l-.33-.08a11.33,11.33,0,0,1-5.8-3.14c-2.19-2.42-2.49-5.8-.71-9.5A19.83,19.83,0,0,1,66.91,410.4Z" style="fill:#e0e0e0"></path><path d="M66.91,410.4c.24-.27.49-.53.75-.79,7.38-7.39,20.26-12.19,29.93-11.19l.26,0c.34,0,.67.08,1,.13a15,15,0,0,1,5.06,1.68,7.48,7.48,0,0,1,4,8.3,15,15,0,0,1-3.27,6.5c-.34.42-.7.85-1.1,1.27s-.73.78-1.13,1.16a30.89,30.89,0,0,1-2.64,2.28,42.57,42.57,0,0,1-23.42,8.67,27.09,27.09,0,0,1-3.27-.1c-.5,0-1-.11-1.48-.19s-.81-.14-1.19-.23l-.33-.08a11.33,11.33,0,0,1-5.8-3.14c-2.19-2.42-2.49-5.8-.71-9.5A19.83,19.83,0,0,1,66.91,410.4Z" style="opacity:0.13"></path><path d="M68.73,412.24q-.39.39-.75.78a20,20,0,0,0-3.37,4.8,9.81,9.81,0,0,0-1,6,7.84,7.84,0,0,0,.66.86,11.33,11.33,0,0,0,5.8,3.14l.33.08c.38.09.78.17,1.19.23s1,.15,1.48.19a27.09,27.09,0,0,0,3.27.1,42.57,42.57,0,0,0,23.42-8.67,30.89,30.89,0,0,0,2.64-2.28c.4-.38.77-.76,1.13-1.16s.76-.85,1.1-1.27a15,15,0,0,0,3.27-6.5,8.14,8.14,0,0,0,0-3,8.51,8.51,0,0,0-2.93-2.65,15,15,0,0,0-5.06-1.67c-.33-.06-.66-.1-1-.14l-.26,0C89,400,76.11,404.85,68.73,412.24Z" style="fill:#e0e0e0"></path><path d="M55.91,429.43c6.8,6.42,18,5.47,26.68,3.56,13-3.3,25.79-10.3,32.41-21.22l0,0c1.74-3.11,2.83-6.74,1.93-10.23,1,3.5,0,7.2-1.72,10.35h0c-5.21,9.09-15,15.37-25.27,19.28C79.47,434.8,64.73,437.67,55.91,429.43Z" style="fill:#f5f5f5"></path><g id="freepik--money-sign--inject-52"><polygon points="77.53 415.5 78.69 418.71 70.54 418.68 69.38 415.48 77.53 415.5" style="opacity:0.13"></polygon><path d="M76.86,413.47c.46,1.79,3.17,2.89,5.48,3.8l1.52.58a3,3,0,0,0,.92-.63c1.24-1.3-.29-1.89-3.61-3.16a25,25,0,0,1-3.28-1.48c.55-.72.63-1.72-2.2-2.31Z" style="opacity:0.13"></path><polygon points="98.93 401.31 100.1 404.52 97.59 407.15 96.42 403.94 98.93 401.31" style="opacity:0.2"></polygon><path d="M85.34,408.06c1-1.05,2.73-1.3,4.63-1,3,.52,3,2,2.32,3l.2.56a5.87,5.87,0,0,0-1.35-.37,6.07,6.07,0,0,0-3.78.36C85.45,409.91,84.21,409.24,85.34,408.06Z" style="opacity:0.13"></path><path d="M100.41,408.74a1.85,1.85,0,0,0,.69.89c-.08.17-.17.35-.27.52l1.17,3.21a3.4,3.4,0,0,0,.47-3h0l-1.17-3.2S100.1,407.7,100.41,408.74Z" style="opacity:0.13"></path><path d="M81.17,414.06c3.32,1.27,4.85,1.86,3.61,3.16a3,3,0,0,1-.92.63c2.24.9,3.12,1.49,2.09,2.57-.76.8-2.27,1.31-4.68.9s-3.31-1.41-2.58-2.61l-8.15,0-.08.21a4,4,0,0,0-1.11-.36l.91,2.58a1.83,1.83,0,0,0,.08.25l0,0h0a4,4,0,0,0,1.56,1.73,11.14,11.14,0,0,0,3,1.31l-.05,0-3.63-.62,1.17,3.21h0l2.46.42,3.34.57h0l2.51-2.63c5.34.4,10.12-.85,13.08-4,1.35-1.42,1.71-2.55,1.43-3.49h0l0,0a1.55,1.55,0,0,0-.08-.23l-1-2.66a1.89,1.89,0,0,0-.68.94,15.09,15.09,0,0,0-2.24-1.12c-3.1-1.27-6.29-1.92-4.68-3.6a2.91,2.91,0,0,1,.85-.62c-1.91-.74-3.15-1.41-2-2.59s2.73-1.3,4.63-1c3,.52,3,2,2.32,3h0l.2.56,1,2.64,8.54.06-1.17-3.21a5,5,0,0,0,.53-1.24,10.65,10.65,0,0,0-3.77-1.76l1-1.06-4.25-2.55-2.51,2.63c-5.43-.38-10.6.85-13.62,4A5.85,5.85,0,0,0,77,412,17.72,17.72,0,0,0,81.17,414.06Z" style="fill:#e0e0e0"></path><path d="M81.17,414.06c3.32,1.27,4.85,1.86,3.61,3.16a3,3,0,0,1-.92.63c2.24.9,3.12,1.49,2.09,2.57-.76.8-2.27,1.31-4.68.9s-3.31-1.41-2.58-2.61l-8.15,0-.08.21a4,4,0,0,0-1.11-.36l.91,2.58a1.83,1.83,0,0,0,.08.25l0,0h0a4,4,0,0,0,1.56,1.73,11.14,11.14,0,0,0,3,1.31l-.05,0-3.63-.62,1.17,3.21h0l2.46.42,3.34.57h0l2.51-2.63c5.34.4,10.12-.85,13.08-4,1.35-1.42,1.71-2.55,1.43-3.49h0l0,0a1.55,1.55,0,0,0-.08-.23l-1-2.66a1.89,1.89,0,0,0-.68.94,15.09,15.09,0,0,0-2.24-1.12c-3.1-1.27-6.29-1.92-4.68-3.6a2.91,2.91,0,0,1,.85-.62c-1.91-.74-3.15-1.41-2-2.59s2.73-1.3,4.63-1c3,.52,3,2,2.32,3h0l.2.56,1,2.64,8.54.06-1.17-3.21a5,5,0,0,0,.53-1.24,10.65,10.65,0,0,0-3.77-1.76l1-1.06-4.25-2.55-2.51,2.63c-5.43-.38-10.6.85-13.62,4A5.85,5.85,0,0,0,77,412,17.72,17.72,0,0,0,81.17,414.06Z" style="opacity:0.1"></path><g style="opacity:0.2"><path d="M80.7,425.43a21.69,21.69,0,0,0,9-1.4,12.08,12.08,0,0,0,3.74-2.39A7.26,7.26,0,0,0,94.79,420a2.66,2.66,0,0,0,.42-2,2.62,2.62,0,0,1-.25,2.09,7.37,7.37,0,0,1-1.35,1.76,12,12,0,0,1-3.79,2.53,16.58,16.58,0,0,1-4.5,1.11A21,21,0,0,1,80.7,425.43Z"></path></g><path d="M77,412a17.72,17.72,0,0,0,4.18,2.07c3.32,1.27,4.85,1.86,3.61,3.16a3,3,0,0,1-.92.63,6.51,6.51,0,0,1-3.76.27c-2.56-.44-3.3-1.42-2.57-2.62l-8.15,0a3.12,3.12,0,0,0,.86,4.08,9.61,9.61,0,0,0,3.49,1.68l-2.51,2.63,3.63.62,2.17.37,2.51-2.63c5.35.4,10.12-.85,13.08-4a6.06,6.06,0,0,0,1.33-1.92c.87-2.24-1.31-3.59-3.92-4.68-.92-.37-1.85-.7-2.66-1-1.91-.74-3.15-1.41-2-2.59s2.73-1.3,4.63-1c3,.52,3,2,2.32,3l8.54,0a5,5,0,0,0,.53-1.24c.42-1.61-.42-2.82-1.9-3.72a12.69,12.69,0,0,0-3-1.25l2.51-2.63-5.73-1L90.68,403c-5.43-.37-10.59.85-13.62,4C74.89,409.26,75.45,410.82,77,412Z" style="fill:#e0e0e0"></path><path d="M77,412a17.72,17.72,0,0,0,4.18,2.07c3.32,1.27,4.85,1.86,3.61,3.16a3,3,0,0,1-.92.63,6.51,6.51,0,0,1-3.76.27c-2.56-.44-3.3-1.42-2.57-2.62l-8.15,0a3.12,3.12,0,0,0,.86,4.08,9.61,9.61,0,0,0,3.49,1.68l-2.51,2.63,3.63.62,2.17.37,2.51-2.63c5.35.4,10.12-.85,13.08-4a6.06,6.06,0,0,0,1.33-1.92c.87-2.24-1.31-3.59-3.92-4.68-.92-.37-1.85-.7-2.66-1-1.91-.74-3.15-1.41-2-2.59s2.73-1.3,4.63-1c3,.52,3,2,2.32,3l8.54,0a5,5,0,0,0,.53-1.24c.42-1.61-.42-2.82-1.9-3.72a12.69,12.69,0,0,0-3-1.25l2.51-2.63-5.73-1L90.68,403c-5.43-.37-10.59.85-13.62,4C74.89,409.26,75.45,410.82,77,412Z" style="fill:#f0f0f0"></path><path d="M92.88,410.1l5.24,0-.38-5.76c-.42-.16-.86-.31-1.32-.44l1.21-1.26-.1-1.61-4.33-.75-.89.94Z" style="fill:#fff;opacity:0.15"></path><path d="M77,412a17.72,17.72,0,0,0,4.18,2.07l1.07.41-.67-10.36A12,12,0,0,0,77.06,407a7,7,0,0,0-.91,1.16l.21,3.29A5,5,0,0,0,77,412Z" style="fill:#fff;opacity:0.15"></path><path d="M82.49,418.21a8.65,8.65,0,0,1-2.39-.09c-2.56-.44-3.3-1.42-2.57-2.62h-.9l.59,9.14,2.31-2.42a24.81,24.81,0,0,0,3.22,0Z" style="fill:#fff;opacity:0.15"></path><path d="M72.07,420.62a13.2,13.2,0,0,0,1.66.61l-1.52,1.6.08,1.22,2.56.43.45.08-.59-9.07h-3Z" style="fill:#fff;opacity:0.15"></path><path d="M93.1,413.4l.26,4a4.77,4.77,0,0,0,.58-1A2.46,2.46,0,0,0,93.1,413.4Z" style="fill:#fff;opacity:0.15"></path><polygon points="79.53 422.22 80.7 425.43 78.19 428.06 77.02 424.85 79.53 422.22" style="fill:#e0e0e0"></polygon><polygon points="79.53 422.22 80.7 425.43 78.19 428.06 77.02 424.85 79.53 422.22" style="opacity:0.13"></polygon><path d="M90.68,403l-.64,0c-.2,0-.44,0-.72,0s-.6,0-.95,0-.71,0-1.11.05l-.61.05-.63.07-.65.09c-.22,0-.44.06-.66.11-.45.09-.9.17-1.34.29s-.88.25-1.31.39-.84.3-1.23.48-.75.36-1.1.53l-.49.29-.23.13-.21.15a8.67,8.67,0,0,0-.75.54c-.21.17-.4.31-.54.45l-.45.42.43-.43a5.29,5.29,0,0,1,.53-.47,6.9,6.9,0,0,1,.73-.57l.21-.15.23-.14.49-.3c.35-.18.7-.39,1.1-.55a11.43,11.43,0,0,1,1.24-.49c.43-.14.87-.29,1.32-.4s.9-.2,1.34-.29l.67-.1L86,403l.63-.06.62,0c.39,0,.77,0,1.11,0s.67,0,.95,0l.73,0Z" style="fill:#fff"></path><polygon points="77.02 424.85 71.22 423.86 73.73 421.23 71.89 423.64 77.02 424.85" style="fill:#fafafa"></polygon><polygon points="96.42 403.94 98.4 401.5 93.2 400.32 98.93 401.31 96.42 403.94" style="fill:#fafafa"></polygon></g></g></g><g id="freepik--Arrow--inject-52"><g id="freepik--arrow--inject-52"><polygon points="142.93 174.95 102.31 198.4 143.63 159.87 184.25 136.42 142.93 174.95" style="fill:#66C02E"></polygon><polygon points="184.25 136.42 142.93 174.95 102.31 198.4 143.63 159.87 184.25 136.42" style="opacity:0.30000000000000004"></polygon><polygon points="138.13 164.98 102.31 198.4 30.65 73.71 71.27 50.26 138.13 164.98" style="fill:#66C02E"></polygon><polygon points="293.38 342.62 252.76 366.08 310.87 311.89 351.49 288.44 293.38 342.62" style="fill:#66C02E"></polygon><polygon points="351.53 288.44 293.38 342.62 252.76 366.08 310.91 311.89 351.53 288.44" style="opacity:0.30000000000000004"></polygon><polygon points="288.58 332.65 252.76 366.08 143.63 159.87 184.25 136.42 288.58 332.65" style="fill:#66C02E"></polygon><path d="M411.56,393.92,351.49,288.44,310.87,311.9l60.07,105.48-15.17,8.76,64.92,31,6.08-72Z" style="fill:#66C02E"></path></g></g><g id="freepik--Character--inject-52"><g id="freepik--character--inject-52"><g id="freepik--Bottom--inject-52"><path d="M401.8,225.37c-1,1-2-.63-5.39-3.23s-17.28-14.48-17.28-14.48l-11,19.83s14.06,7.77,18.22,9.91c4.63,2.38,11,5.62,13.79,8.18s9.68,10.39,14.47,8.79,6.74-6.06,7.79-9.62-.79-11.27-.5-16.23,1.22-8.34.84-12.88-6.46-11.42-10.43-10.55-6.44,5.81-7.56,9.12S403.63,223.59,401.8,225.37Z" style="fill:#ffbda7"></path><path d="M410,254.47a42.12,42.12,0,0,1-8.88-7.22c-3.91-3.87-5.76-4.49-5.76-4.49s-1.91-3.13-.51-10.14,5.42-7.69,5.42-7.69,2.4.86,2.48-4.53l10.43,2.15Z" style="fill:#455a64"></path><path d="M412.37,204.41c-2.88-.17-5.4,2-7.35,6.56a26,26,0,0,0-2.31,9.43s1,4.74,5.52,4.65S412.37,204.41,412.37,204.41Z" style="fill:#f0f0f0"></path><path d="M417.3,205.28a4.53,4.53,0,0,0-3.23-1.2c-.35,0-1.47.3-1.7.33-3.08.39-4.29,6.18-5,11.45-.81,6.13,1.35,15.23,2.18,21.94s-1.28,11.34-.83,14.22a4.11,4.11,0,0,0,3.6,3.57c.35,0,1.54.1,1.78.12,1.68.1,3.63-.93,5.26-3,3.28-4.08,5-7.71,4.37-15.07s-1-11.2.28-17.37S421.25,208.31,417.3,205.28Z" style="fill:#37474f"></path><path d="M417.3,205.28c-5.55-4.25-7.31,3.45-8.21,10.26-.81,6.13,1.36,15.23,2.18,21.94s-1.41,11.36-.83,14.22c1.05,5.2,5.66,5.13,8.94,1.06s5-7.71,4.37-15.07-1-11.2.28-17.37S421.25,208.31,417.3,205.28Z" style="fill:#263238"></path><path d="M402.11,223.81h0c-.73,1.53-1.88,1.12-1.88,1.12-.53,6.92,1.11,9.68,1.11,9.68S401.2,227.08,402.11,223.81Z" style="fill:#37474f"></path><path d="M392.55,218.23s-27.52-25.73-31.11-29c-6.52-5.87-9.9-7.2-18.64-8.93-14.29-2.83-54.12-7-54.12-7l-9,43.56,63.66-4c3.05,4.93,11.58,9.42,16.86,12C376.69,233.12,383,236,383,236,382.87,230,386.35,221.53,392.55,218.23Z" style="fill:#455a64"></path><path d="M297,184.38c5.2,6.48,3.37,15.56,1.94,20l8.67,7.71,35.71.73-63.66,4,9-43.56Z" style="fill:#37474f"></path><path d="M383.85,230.09c-4.14-2.35-13.77-7.84-19.48-11.34-7.18-4.39-13.15-9.07-16.38-12.84-3.07-3.6-4.93-4.63-8.28-4.62-3,0-42.47,1.32-42.87,1.33l0,.86c.39,0,39.88-1.31,42.85-1.33,2.76,0,4.43.59,7.62,4.32s9.33,8.58,16.58,13c5.82,3.56,15.67,9.18,19.7,11.47C383.69,230.66,383.77,230.38,383.85,230.09Z" style="fill:#37474f"></path><path d="M342.09,283.07c2.69,8.91,5.48,20.52,9.57,25.25,4.26,4.93,4.62,7.57,10.32,11.91,1.24.94,4,2.61,5,3.37a1.85,1.85,0,0,1,.4,2.82c-1.63,2.38-8.69,1.81-14.3-.81a173.29,173.29,0,0,1-18.13-10.79,8.94,8.94,0,0,1-2.51-3.91,13.82,13.82,0,0,1-.7-2.59c-1.29-2.69-7.94-14.21-10-17.44Z" style="fill:#ffbda7"></path><path d="M335.06,322.92A6.7,6.7,0,0,0,336,325c.85,1,5.92,2,7.83,2.36a10.43,10.43,0,0,1,6.65,3.86c2.76,3.12,6.85,4.73,11.16,5.34a28.56,28.56,0,0,0,16.67-3.14c6.4-3.23,5.76-7.38,5.76-7.38s-.76-3.86-2.62-3.95S335.06,322.92,335.06,322.92Z" style="fill:#263238"></path><path d="M331.72,308.32c-.15.13-.46.35-.4,1.19,0,.31,1.26,3.4,1.63,5.29s.54,6,2.11,8.12c4.67,2.56,10.55,1.81,14.39,4.77s7.76,6.92,17.14,6,15.27-5.69,16.15-8.7-1.31-4.94-7.9-6.31c-7-1.46-17.81-8.8-17.81-8.8a41.38,41.38,0,0,1-4.28-3.42,35.84,35.84,0,0,1-3.37-4.24,4,4,0,0,0-1.93-1.51,4.1,4.1,0,0,0-2.44.39,18.32,18.32,0,0,0-3.61,1.7,6,6,0,0,0-2.49,3,28.78,28.78,0,0,1-.68,2.81,3.5,3.5,0,0,1-3.06,2.05,3,3,0,0,1-3-1.72A8,8,0,0,1,331.72,308.32Z" style="fill:#455a64"></path><path d="M360.22,333.33s-2-6.17,3.7-11.57,10.38-4.41,12.86-3.55c3,1,7.52,3.65,6.2,6.94-1.43,3.55-4.68,6-11.47,8.1S360.22,333.33,360.22,333.33Z" style="fill:#fafafa"></path><path d="M344.91,315.34a.81.81,0,0,0,.52-.5c.44-1.28,4.13-6.68,9.21-6.77.08-.61-.48-1.05-1.62-1.34-5.06,1-8.57,6.11-9.11,7.66a.75.75,0,0,0,.5,1A.85.85,0,0,0,344.91,315.34Z" style="fill:#fafafa"></path><path d="M358.38,310.8a2.42,2.42,0,0,0-1.82-1.23c-4.71,1.29-8,6-8.48,7.52a.75.75,0,0,0,.5,1,.85.85,0,0,0,.5,0,.81.81,0,0,0,.52-.5C350,316.3,353.53,311.18,358.38,310.8Z" style="fill:#fafafa"></path><path d="M368,316.22a4.42,4.42,0,0,0-2.69-1.35c-4.94,1.12-8.37,6.09-8.9,7.62a.75.75,0,0,0,.5,1,.85.85,0,0,0,.5,0,.81.81,0,0,0,.52-.5C358.41,321.59,362.49,315.66,368,316.22Z" style="fill:#fafafa"></path><path d="M353.25,320.74a.81.81,0,0,0,.52-.5c.44-1.26,4.05-6.55,9-6.75a2.71,2.71,0,0,0-2.08-1.22c-4.72,1.3-8,6-8.48,7.52a.75.75,0,0,0,.5,1A.85.85,0,0,0,353.25,320.74Z" style="fill:#fafafa"></path><path d="M288.69,173.3s16.28,9.74,6.09,32c0,0,17.84,14.49,27.5,24,3.51,3.46,5.5,6.6,7.88,13.7s5.17,16.35,6.74,21.64c4.84,16.22,6.94,23.32,6.94,23.32s-6.93,9.45-18.95,9.06c0,0-7.71-11.82-15.35-24.75a64.25,64.25,0,0,1-7.58-19s-38.4-17.39-48.44-26.06a113.08,113.08,0,0,1-19-20.54Z" style="fill:#455a64"></path><path d="M310.2,259.09c-.68-2.06-1.13-3.73-1.5-5.07-.89-3.27-1.33-4.92-3.53-5.89-2.57-1.14-21.64-10.42-38.47-19.3a71.4,71.4,0,0,1-27.18-25.16l-.74.45a72,72,0,0,0,27.52,25.47c16.09,8.49,35.43,17.95,38.52,19.33,1.82.81,2.18,2.13,3.05,5.32.37,1.35.82,3,1.52,5.12,2.05,6.2,15.48,29.25,20.48,37.28h0l.89-.19h0C325.93,288.72,312.27,265.32,310.2,259.09Z" style="fill:#37474f"></path></g><g id="freepik--Top--inject-52"><path d="M241.64,120.66c7.06-2.6,10.84-4.42,20.72-4.16l24.37.6s24.92-11.84,27.07-12.76,5.69-3.67,8.69-6,5.29-4.37,6.71-4.75,3-.4,6.78-.1c2,.16,4.76.35,7.17.73a46.15,46.15,0,0,1,5.44,1.33c1.11.32.59,2.38-2.73,2.13-2.63-.2-6.1-.07-6.1-.07s2.17,1.34,1.15,3.13.51,1.37-.33,2.67.47,2.57-.8,3.57,0,1.91-1.31,2.91-2.75.66-4.42.07-2.35-1.32-3.68-.13-2.2,3.43-5.51,3.79-7.09,3.77-14.52,8.62-12.26,8-16.32,10.58c-2.59,1.66-3.89,1.75-8.31,1.81l-39.06.45Z" style="fill:#ffbda7"></path><path d="M245.05,117.59c8.6-2.23,11.32-1.57,17.57-1.42l23.95.56,7.28-3.35s-1.32,3.48,1.55,8.74,7.42,5.22,7.42,5.22A98.1,98.1,0,0,1,292.71,134c-3.59,1.81-4.71,1.72-13.7,2.21-9.47.53-21.29.8-21.29.8Z" style="fill:#e0e0e0"></path><path d="M289.26,114.33c1.6-.39,2-1.08,3.39-1.38.89-.2,1.14.44,2.92-.76s2.37-.4,2.37-.4l-1.42.66s-1.47,1.94,1,8.25,5.37,6.37,5.37,6.37l1.62-1A2.11,2.11,0,0,1,303,128.3c-.92.21-.93,1-1.83,1.77s-1.8.47-2.54,1.39a3,3,0,0,1-3.29,1.28c-1.57-.42-4.64-3.72-6.48-8.45C286.85,119.18,286.88,114.92,289.26,114.33Z" style="fill:#fafafa"></path><path d="M322.92,107.91a15.05,15.05,0,0,0,1.76-2.72,8.22,8.22,0,0,1,2-2.7c1.86-1.45,4.2-1.69,6.05-2.55a3.46,3.46,0,0,0,2-2,.84.84,0,0,0,0-.52c-.08-.13-.09-.18-.34-.25a7.07,7.07,0,0,0-1.5-.12l-3.26.1a13.22,13.22,0,0,1-1.66-.11,4.54,4.54,0,0,1-.81-.19c-.24-.1-.56-.27-.56-.57.05.29.36.38.6.43a3.53,3.53,0,0,0,.79.08,12.32,12.32,0,0,0,1.61-.1c1.08-.11,2.15-.26,3.25-.36a6.1,6.1,0,0,1,1.75,0,1.3,1.3,0,0,1,.91.7,1.63,1.63,0,0,1,.08,1.08,4.29,4.29,0,0,1-2.44,2.59c-2.1.92-4.3,1.13-6,2.27a8,8,0,0,0-2,2.37A12.74,12.74,0,0,1,322.92,107.91Z" style="fill:#f0997a"></path><path d="M335.65,100.91l.25-.23,1-.91a.93.93,0,0,0-.58.11,4.3,4.3,0,0,0-2.27,1.64,1.24,1.24,0,0,0,.15,1.4,2.05,2.05,0,0,0,.47.46,3.22,3.22,0,0,0,.33.19,2.2,2.2,0,0,0-.62.9,2.56,2.56,0,0,0,0,1.55,2.34,2.34,0,0,0,.39.71l.18.2a1.46,1.46,0,0,0-.17.29,1.7,1.7,0,0,0,0,1.46,2.68,2.68,0,0,0,.36.58c.05,0,.55.28.54.15a1.72,1.72,0,0,0-.19-.49,1.57,1.57,0,0,1,.57-1.83.32.32,0,0,0,.1-.1c0-.08-.05-.17-.12-.24a1.92,1.92,0,0,1-.79-1.76,1.77,1.77,0,0,1,.51-.86c.11-.11.31-.3.29-.48s-.28-.25-.43-.34a1.68,1.68,0,0,1-.57-.45,1.21,1.21,0,0,1,0-1.22A3,3,0,0,1,335.65,100.91Z" style="fill:#f0997a"></path><path d="M214.63,129.47l-10.43,8.88s-.4,5.72,2.83,15.53c2.68,8.15,5.47,16.68,14.36,32.74,6.66,12,11.8,19.46,17.05,25.46,14.95-1.06,56.24-15.52,52.22-39.21-2.84-7.7-6.78-9.19-12.67-14-4.72-8.4-8.82-19.17-13.36-25.6-4.95-7-7.66-12.34-19.58-15.67,0,0-10.27,2.87-15.81,4.83A98.06,98.06,0,0,0,214.63,129.47Z" style="fill:#f5f5f5"></path><path d="M245.05,118.63c10.24,2.92,13.26,7.28,17.42,13.28.43.63.87,1.27,1.34,1.93,2.63,3.73,5.1,8.91,7.72,14.4,1.79,3.76,3.64,7.64,5.58,11.11l.1.17.14.12c1.25,1,2.38,1.87,3.48,2.69,4,3,6.72,5,8.86,10.8.88,5.37-.65,10.61-4.56,15.59C274.73,202,250.2,210.05,238.87,211c-5.48-6.31-10.46-13.8-16.61-24.91-8.81-15.93-11.58-24.35-14.26-32.5l0-.06c-2.64-8-2.81-13.3-2.79-14.75l10-8.53,1.22-.67a86.79,86.79,0,0,1,13.15-6.25c5-1.75,13.82-4.27,15.48-4.74m0-1s-10.27,2.87-15.81,4.83a98.06,98.06,0,0,0-14.61,7l-10.43,8.88s-.4,5.72,2.83,15.53c2.68,8.15,5.47,16.68,14.36,32.74,6.66,12,11.8,19.46,17.05,25.46,14.95-1.06,56.24-15.52,52.22-39.21-2.84-7.7-6.78-9.19-12.67-14-4.72-8.4-8.82-19.17-13.36-25.6-4.95-7-7.66-12.34-19.58-15.67Z" style="fill:#e6e6e6"></path><path d="M286.21,184.43a21.79,21.79,0,0,0-2.67-5.92,25.61,25.61,0,0,0-4-4.62,27.15,27.15,0,0,0-5.21-3.84,12.22,12.22,0,0,1-2.69-1.67,8.18,8.18,0,0,1-1.61-3.16,66.34,66.34,0,0,0-13.45-21.85,52.62,52.62,0,0,0-11.08-9.49c-.27-.17-.26.3-.11.43a95.7,95.7,0,0,1,9.72,8.61,66.68,66.68,0,0,1,13.67,21.73,25.8,25.8,0,0,0,1.18,3,5.66,5.66,0,0,0,2.11,2.15c.91.56,1.88,1,2.79,1.59a26.93,26.93,0,0,1,2.55,1.83,31,31,0,0,1,8.46,11.33C286,184.79,286.29,184.69,286.21,184.43Z" style="fill:#e0e0e0"></path><path d="M258.39,125c-2.81-3-6.91-5.59-13.34-7.39,0,0-10.27,2.87-15.81,4.83a98.06,98.06,0,0,0-14.61,7l-10.43,8.88s-.35,5,2.27,13.77A120.59,120.59,0,0,1,235.6,131C241.74,127.71,250,125.89,258.39,125Z" style="fill:#ebebeb"></path><path d="M206.48,204l-2.17-9.92,8.6-26.5c3.24-8-1.94-23.56-9-27.5-8.58,7.43-8.45,10.28-11.18,22-2.47,10.57-4.89,17.37-6.24,23.28s-1,5,.58,11.67a93.21,93.21,0,0,0,3.36,9.95" style="fill:#ffbda7"></path><g id="freepik--Briefcase--inject-52"><path d="M241.28,255.78l7.36,42.4c.35,2.05-.89,3.49-2.49,4.84l-4,3.36a4.34,4.34,0,0,1-3.36,1.28,9.57,9.57,0,0,1-2.55-.56.29.29,0,0,1-.1,0l-.27-.1-50.13-18.4a10.9,10.9,0,0,1-7-8.39l-6.7-38.6a3.1,3.1,0,0,1,1-2.63l6.85-5.71a3.06,3.06,0,0,1,2.76-.48l56.86,20.88a2.71,2.71,0,0,1,1.16.85A2.85,2.85,0,0,1,241.28,255.78Z" style="fill:#37474f"></path><path d="M241.28,255.78l7.36,42.4c.35,2.05-.89,3.49-2.49,4.84l-4,3.36a4.34,4.34,0,0,1-3.36,1.28,9.57,9.57,0,0,1-2.55-.56v0c1.93.53,3.16-.64,2.8-2.74l-6.93-39.94a4.41,4.41,0,0,0-1-2l9.52-7.95A2.85,2.85,0,0,1,241.28,255.78Z" style="fill:#263238"></path><path d="M232.09,264.4a4.69,4.69,0,0,0-2.72-3.26l-53.74-19.73c-2.13-.78-3.55.4-3.16,2.63l6.26,36.14a10.94,10.94,0,0,0,7,8.39L235.86,307c2.13.78,3.55-.4,3.16-2.63Z" style="fill:#455a64"></path><path d="M177.64,235.09l57,21.21a4.91,4.91,0,0,1,3.13,3.76l7.57,43.63-.71.59L237,260.2a4.15,4.15,0,0,0-2.62-3.15l-57.45-21.37Z" style="fill:#66C02E"></path><path d="M236.72,257.77a4.83,4.83,0,0,1,1.06,2.29l7.57,43.63-.71.59L237,260.2a4.15,4.15,0,0,0-.89-1.92Z" style="opacity:0.2"></path><path d="M236.11,258.28a4.11,4.11,0,0,0-1.73-1.23l-57.45-21.37.71-.59,57,21.21a4.8,4.8,0,0,1,2.07,1.47" style="opacity:0.2"></path><path d="M197,237.32l1.14,6.56-2.31,1.93-1.51-8.72c-.08-.45.2-.68.63-.53Z" style="fill:#66C02E"></path><path d="M197,237.32l1.14,6.56-2.31,1.93-1.51-8.72c-.08-.45.2-.68.63-.53Z" style="opacity:0.4"></path><path d="M216.14,240.67,218,251.3l-2.2,1.84-1.82-.66-1.51-8.72a1.59,1.59,0,0,0-.92-1.1l-13.75-5-2.86-1.05c-.43-.15-.71.08-.63.53l1.51,8.72-1.82-.67-1.84-10.62a.71.71,0,0,1,0-.14,1.59,1.59,0,0,1,.5-1.2l.94-.79a1.58,1.58,0,0,1,1.41-.24l20.24,7.43A1.6,1.6,0,0,1,216.14,240.67Z" style="fill:#66C02E"></path><path d="M213.93,242.52l1.85,10.62-1.82-.66-1.51-8.72a1.59,1.59,0,0,0-.92-1.1l-13.75-5-2.86-1.05c-.43-.15-.71.08-.63.53l1.51,8.72-1.82-.67-1.84-10.62a.71.71,0,0,1,0-.14c0-.36.26-.53.64-.39L213,241.42A1.58,1.58,0,0,1,213.93,242.52Z" style="opacity:0.2"></path></g><path d="M216.27,238.76c-.62-3.51-5-5.79-5.61-9.29-1.18-7-3.14-18.71-4.18-25.48l-16,2.93c.78,2,5.64,19,5.72,20.13a79.76,79.76,0,0,1-.3,9.67,11.38,11.38,0,0,0,1,4.92,19,19,0,0,0,1.26,2.85,1.65,1.65,0,0,0,.28.36,2.47,2.47,0,0,0,1.08.45,4.11,4.11,0,0,1,1,.23c.66.33.9,1.14,1.33,1.74a3,3,0,0,0,2,1.2c1,.14,2.07-.18,2.86.39.23.18.43.39.65.58,1.41,1.21,6.11.27,6.15.18s-.8-4.58-1-5.75a1.42,1.42,0,0,0-.94-1.21l-.54-.28c-.35-1.25.54-4,1.18-3.93l3.05,1.13a1.52,1.52,0,0,1,.93,1.18c.08.47.22,1.23.3,1.72A9.36,9.36,0,0,0,216.27,238.76Z" style="fill:#ffbda7"></path><path d="M204.21,138.34c-4.38,2.89-7.85,6.57-10,14.37s-6.18,25.77-7.63,31-1.42,7-.95,9.27c.56,2.66,2.2,8.46,2.2,8.46a13.21,13.21,0,0,1,9.94-4.58c6.52-.07,8.16,2.31,8.16,2.31l-1.19-5.38,9.45-28.84S215.9,148.17,204.21,138.34Z" style="fill:#e0e0e0"></path><path d="M206.33,196.55c0,1.64.59,2.19.57,3.62,0,.91-.69,1,.07,3s-.24,2.41-.24,2.41l-.25-1.6s-1.54-1.82-8.24-.88-7.77,3.81-7.77,3.81l.59,1.78a1.79,1.79,0,0,1-1.48-2c0-.95-.79-1.14-1.3-2.19s0-1.86-.77-2.79a3,3,0,0,1-.49-3.49c.77-1.44,4.69-3.67,9.71-4.37C202.16,193.09,206.3,194.1,206.33,196.55Z" style="fill:#fafafa"></path><g id="freepik--Head--inject-52"><path d="M203.12,88.27s-2.86,1.1-3.67,5.35c-.41,2.14-.08,5.73,5.45,14.58a40.26,40.26,0,0,0,7.83,9.26,5,5,0,0,0,3.43,1.38l-2.41-7.36-1.83-5.08s3-5,2.28-8.86c-1-4.91-3.65-7.06-3.65-7.06Z" style="fill:#263238"></path><path d="M202.18,88.82c-.53-4.39,3.27-10.95,13.31-14.55,8.22-3,14-1.55,18.34,2.45s4.35,10.89,4.35,10.89l-26.77,6.16Z" style="fill:#263238"></path><path d="M207.62,115.69c4.4.71,4.91-3,4.91-3l5.3,15.07c3,2.65,22.42,2.92,26,4.75.33-3.92-2.74-9.57-5.35-11.73,0,0-1.54.19-2-1a18.64,18.64,0,0,1-.65-2.15,27.45,27.45,0,0,0,3-1.28c3.24-1.55,5.93-4.47,5.58-8.44-.64-7-3.27-15.25-8.11-23.91-.93-1.68-2.29-3.4-4.18-3.72-4.69-.79-8.49,2.26-13.56,6.13a16.78,16.78,0,0,1-12.06,3.64c2.64,1.59,6,5.71,5.93,12a10,10,0,0,1-.59,3.5c-.92,1.46-2.78-1-4.15-1.81a4.47,4.47,0,0,0-6.21,3.53A7.3,7.3,0,0,0,207.62,115.69Z" style="fill:#ffbda7"></path><path d="M221.81,97.94a1.6,1.6,0,0,0,3-1,1.6,1.6,0,1,0-3,1Z" style="fill:#263238"></path><path d="M234.86,88l-3.17-1.34a1.8,1.8,0,0,0,.95,2.31A1.68,1.68,0,0,0,234.86,88Z" style="fill:#263238"></path><path d="M219.51,93.69l1.58-3a1.8,1.8,0,0,1,.75,2.38A1.67,1.67,0,0,1,219.51,93.69Z" style="fill:#263238"></path><path d="M236.49,91.41a1.61,1.61,0,0,1-2.71,1.73,1.59,1.59,0,0,1,.49-2.21A1.61,1.61,0,0,1,236.49,91.41Z" style="fill:#263238"></path><path d="M227.23,93.31l5.24,9.88,4.73-4.09A26,26,0,0,0,227.23,93.31Z" style="fill:#f0997a"></path><path d="M233.54,106.63a2.16,2.16,0,0,1,.27.69,1.33,1.33,0,0,1,0,.4,1.16,1.16,0,0,1-1.25,1,7.93,7.93,0,0,1-1.36-.25,3,3,0,0,0-1.59.08c-1.07.4-1.82.73-2.36.17a1.48,1.48,0,0,1-.27-1c.32-2.34,3.75-3.28,5.4-2.18A3.35,3.35,0,0,1,233.54,106.63Z" style="fill:#b16668"></path><path d="M230.8,108.27s0,.07,0,.11a2.78,2.78,0,0,0-1.17.13c-1.07.4-1.82.73-2.36.17a1.48,1.48,0,0,1-.27-1,2.44,2.44,0,0,1,.27-.84l.28-.13A2.53,2.53,0,0,1,230.8,108.27Z" style="fill:#f28f8f"></path><path d="M235.89,117.64c-3.29,1.13-11.73,2.9-16.17-.41s-5.46-5.69-5.46-5.69a17.24,17.24,0,0,0,5.88,8c4.25,2.93,10.05,2.4,16.4.22Z" style="fill:#f0997a"></path></g><g id="freepik--Neck--inject-52"><path d="M248.82,131.75c-.07-2.74-2.68-7.44-5-9.12l-3.4.4s4.51,3.25,5.71,7.71Z" style="fill:#66C02E"></path><path d="M248.82,131.75c-.07-2.74-2.68-7.44-5-9.12l-3.4.4s4.51,3.25,5.71,7.71Z" style="opacity:0.2"></path><path d="M241.64,134.62c-1.79.28-13.17-1.71-17.43-4l.39,4.56s8.92,3.6,17.57,1.82Z" style="fill:#66C02E"></path><path d="M241.64,134.62c-1.79.28-13.17-1.71-17.43-4l.39,4.56s8.92,3.6,17.57,1.82Z" style="opacity:0.2"></path><path d="M240.93,131a27.65,27.65,0,0,0-7.4-1.21A63.54,63.54,0,0,1,221.72,128c-4.55-1.22-4.53-2-4.53-2l-.82-2.35s-.74.47-1.06,2.31c-.22,1.25-.68,3.54-.68,3.54a30.33,30.33,0,0,0,9.9,7.32c5.63,2.34,10.41,3.34,12.75,3.09,0-4.46.55-6.75,2-7.54a16.42,16.42,0,0,1,4.6.19A16,16,0,0,0,240.93,131Z" style="fill:#e0e0e0"></path><path d="M243.86,132.53c-.53-4.14-3-7.2-4.32-9.27s-2.48-2.19-2.94-3.17l-.57-2a2.53,2.53,0,0,1,1.8.17,25.91,25.91,0,0,1,5.85,3.33c1.28,1.18,5.2,3.12,6.79,8.61C246,126.88,245.1,127,243.86,132.53Z" style="fill:#e0e0e0"></path><path d="M246.17,130.74a5.09,5.09,0,0,0-4.53,3.88l.53,2.34a6.44,6.44,0,0,0,5.28,1.63c0-2.41,2.3-3.39,3.12-2.74a5.22,5.22,0,0,0-1.75-4.1A4.69,4.69,0,0,0,246.17,130.74Z" style="fill:#66C02E"></path><path d="M250.57,135.85c6.32,3.32,13.71,4.38,19.75,2.38,7.13-2.35,17.81-11.84,19.49-15.27-1.85,9.85-10.8,17.85-13.66,19.78a18.74,18.74,0,0,1-3.48,1.81c-5.64,2.31-17.93,2.16-25.22-6C246.78,136.43,249.37,134.9,250.57,135.85Z" style="fill:#66C02E"></path><path d="M250.57,135.85c6.32,3.32,13.71,4.38,19.75,2.38,7.13-2.35,17.81-11.84,19.49-15.27-1.85,9.85-10.8,17.85-13.66,19.78a18.74,18.74,0,0,1-3.48,1.81c-5.64,2.31-17.93,2.16-25.22-6C246.78,136.43,249.37,134.9,250.57,135.85Z" style="fill:#fff;opacity:0.30000000000000004"></path><path d="M272.67,144.55c7.31-5.07,7.63-14.31,8.09-21.24.9-3.71,4.36-11.4,5.56-11.77s4.09,6.19,4.31,8.67S289.58,137.79,272.67,144.55Z" style="fill:#66C02E"></path><path d="M286.13,126.31c-1.26-1.51-2.52-3-3.83-4.48,1.21,1.61,2.46,3.18,3.73,4.74a20.87,20.87,0,0,1-1.07,6.49,16.78,16.78,0,0,1-3.21,5.78,16.88,16.88,0,0,0,3.33-5.74,20.84,20.84,0,0,0,1.2-6.55c1.16-2.38,2.31-4.76,3.38-7.19C288.42,121.65,287.27,124,286.13,126.31Z" style="opacity:0.1"></path></g></g></g></g><g id="freepik--Lines--inject-52"><path id="freepik--lines--inject-52" d="M179.09,96.47c-3-5.44-5.91-10.88-9-16.26s-6.21-10.73-9.48-16q3.88,8.46,8.11,16.74c2.79,5.54,5.68,11,8.59,16.48s5.91,10.89,9,16.27,6.21,10.73,9.48,16q-3.89-8.46-8.1-16.74C184.9,107.42,182,101.94,179.09,96.47Zm-13.51,13.07c-1.64-3-3.29-6-5-8.91S157,94.79,155,92c1.25,3.2,2.67,6.3,4.15,9.38s3.05,6.1,4.64,9.11,3.28,6,5,8.91,3.54,5.84,5.52,8.65c-1.24-3.2-2.67-6.31-4.15-9.38S167.17,112.55,165.58,109.54ZM383.08,162c1.63,3,3.28,6,5,8.91s3.55,5.83,5.53,8.64c-1.25-3.2-2.67-6.31-4.15-9.38s-3.05-6.1-4.65-9.12-3.28-6-5-8.91-3.55-5.83-5.52-8.64c1.24,3.2,2.67,6.31,4.15,9.38S381.49,159,383.08,162Zm-46.23-18.18c1.62,3,3.27,6,5,8.91s3.54,5.84,5.52,8.65c-1.24-3.2-2.66-6.31-4.15-9.38s-3.05-6.11-4.64-9.12-3.28-6-5-8.91-3.54-5.84-5.52-8.64c1.25,3.2,2.67,6.3,4.15,9.38S335.25,140.8,336.85,143.81Zm-60,132.63c-2.94-5.45-5.91-10.89-9-16.27s-6.2-10.73-9.47-16q3.87,8.46,8.1,16.74c2.79,5.53,5.68,11,8.59,16.48s5.92,10.88,9,16.26,6.2,10.73,9.47,16q-3.87-8.46-8.1-16.74C282.68,287.38,279.79,281.91,276.87,276.44Zm-58.16,65.63c-3-5.44-5.92-10.88-9-16.26s-6.2-10.73-9.47-16q3.88,8.46,8.1,16.74c2.79,5.54,5.68,11,8.59,16.48s5.92,10.89,9,16.27,6.2,10.73,9.47,16q-3.87-8.46-8.1-16.74C224.51,353,221.62,347.54,218.71,342.07ZM373.1,275.66c-2.94-5.45-5.91-10.89-9-16.27s-6.2-10.73-9.47-16q3.87,8.46,8.1,16.74c2.79,5.53,5.68,11,8.59,16.48s5.92,10.88,9,16.26,6.2,10.73,9.47,16q-3.87-8.46-8.1-16.74C378.91,286.6,376,281.13,373.1,275.66Zm-82.29-6c-1.63-3-3.28-6-5-8.91s-3.54-5.84-5.52-8.65c1.25,3.2,2.67,6.31,4.15,9.38s3.05,6.11,4.65,9.12,3.28,6,5,8.91,3.55,5.84,5.52,8.65c-1.24-3.2-2.66-6.31-4.15-9.39S292.41,272.68,290.81,269.67ZM188.67,315.83c-1.63-3-3.28-6-5-8.91s-3.54-5.83-5.52-8.64c1.25,3.2,2.67,6.3,4.15,9.38s3.05,6.1,4.65,9.12,3.27,6,5,8.91,3.54,5.83,5.52,8.64c-1.24-3.2-2.66-6.31-4.15-9.38S190.26,318.84,188.67,315.83Zm203.84-32.07c-1.47-3.08-3-6.11-4.64-9.12s-3.28-6-5-8.91-3.54-5.83-5.52-8.64c1.25,3.2,2.67,6.3,4.15,9.38s3.05,6.1,4.65,9.12,3.28,6,5,8.91,3.55,5.83,5.53,8.64C395.42,289.94,394,286.83,392.51,283.76Zm-9.44-90.68q-3.88-8.46-8.11-16.74c-2.78-5.53-5.68-11-8.59-16.47s-5.92-10.89-9-16.27-6.2-10.73-9.47-16q3.88,8.46,8.1,16.74c2.79,5.54,5.69,11,8.6,16.48s5.91,10.89,9,16.27S379.79,187.81,383.07,193.08Z" style="fill:#e0e0e0"></path></g></svg>
