<svg xmlns="http://www.w3.org/2000/svg" viewBox="0 0 500 500"><g id="freepik--Floor--inject-277"><path id="freepik--floor--inject-277" d="M79.34,449.78c-94.26-54.42-94.26-142.64,0-197.06s247.07-54.42,341.32,0,94.26,142.64,0,197.06S173.59,504.2,79.34,449.78Z" style="fill:#f5f5f5"></path></g><g id="freepik--Shadows--inject-277"><ellipse id="freepik--Shadow--inject-277" cx="421.14" cy="410.56" rx="64.56" ry="37.27" style="fill:#e0e0e0"></ellipse><ellipse id="freepik--shadow--inject-277" cx="78.86" cy="410.56" rx="64.56" ry="37.27" style="fill:#e0e0e0"></ellipse><polygon id="freepik--shadow--inject-277" points="141.63 404.48 248.26 342.92 358.85 406.22 252.22 467.78 141.63 404.48" style="fill:#e0e0e0"></polygon></g><g id="freepik--Board--inject-277"><g id="freepik--board--inject-277"><g id="freepik--board--inject-277"><path d="M326.39,13.76l-1.09.62V147.71c0,3.53,2.15,7.63,4.79,9.15l147.06,84.9a3.11,3.11,0,0,0,3,.32c.23-.11,1.05-.6,1.24-.71,1-.59,1.64-1.94,1.64-3.86V104.19Z" style="fill:#e0e0e0"></path><path d="M477.15,241.76l-147.06-84.9c-2.64-1.52-4.79-5.62-4.79-9.15V14.38l156.64,90.44V238.14C481.94,241.67,479.8,243.29,477.15,241.76Z" style="fill:#fafafa"></path><path d="M326.53,16.51l154.18,89V238.14c0,1.37-.43,3-1.66,3a2.75,2.75,0,0,1-1.28-.41L330.71,155.8c-2.27-1.31-4.18-5-4.18-8.09V16.51m-1.23-2.13V147.71c0,3.53,2.15,7.63,4.79,9.15l147.06,84.9a3.87,3.87,0,0,0,1.9.58c1.7,0,2.89-1.57,2.89-4.2V104.82L325.3,14.38Z" style="fill:#e0e0e0"></path></g><g id="freepik--sticky-notes--inject-277"><g id="freepik--notes-shadows--inject-277" style="opacity:0.15"><polygon points="469.86 165.64 459.15 159.46 459.15 142.97 469.86 149.16 469.86 165.64"></polygon><polygon points="471.03 188.74 460.32 182.56 460.32 166.07 471.03 172.25 471.03 188.74"></polygon></g><g id="freepik--Notes--inject-277"><g id="freepik--Note--inject-277"><polygon points="458.63 182.13 469.7 188.43 470.69 175.05 459.55 168.62 458.63 182.13" style="fill:#f0f0f0"></polygon><polygon points="459.55 168.62 470.69 175.05 470.69 172.98 459.55 166.55 459.55 168.62" style="fill:#e0e0e0"></polygon><polygon points="459.55 168.62 470.69 175.05 470.69 172.98 459.55 166.55 459.55 168.62" style="fill:#e6e6e6;opacity:0.1"></polygon></g><g id="freepik--note--inject-277"><path d="M457.7,158.91l7.4,4.14c.82.46,1.36-.87,1.37-1.68.82.53,2.52.86,2.6-.19l.69-9.35-11.13-6.43Z" style="fill:#fff"></path><polygon points="458.63 145.4 469.76 151.83 469.76 149.76 458.63 143.34 458.63 145.4" style="fill:#f0f0f0"></polygon><polygon points="468.72 161.74 465.68 163.09 466.62 160.6 468.72 161.74" style="fill:#f0f0f0"></polygon></g></g></g><g id="freepik--Chart--inject-277"><polygon points="452.52 172.81 338.45 106.87 338.45 30.15 452.52 96.1 452.52 172.81" style="opacity:0.15"></polygon><path d="M449.76,172l.31-.18a2,2,0,0,0,.9-1.55V98.07a2,2,0,0,0-.9-1.56L338.42,31.89a2,2,0,0,0-1.8,0l-.3.18a2,2,0,0,0-.9,1.56v72.15a2,2,0,0,0,.9,1.55L448,172A2,2,0,0,0,449.76,172Z" style="fill:#f0f0f0"></path><path d="M451,98.07v72.15a2,2,0,0,1-.89,1.56l-.31.17a2,2,0,0,1-1.59.09c.41.12.7-.11.7-.61V99.28a1.77,1.77,0,0,0-.27-.88l2.11-1.22A2,2,0,0,1,451,98.07Z" style="fill:#e0e0e0"></path><path d="M336.32,33.11,448,97.73a2,2,0,0,1,.89,1.55v72.15c0,.57-.4.81-.89.52L336.32,107.33a2,2,0,0,1-.9-1.55V33.63C335.42,33.05,335.82,32.82,336.32,33.11Z" style="fill:#fff"></path><path d="M439.49,158h0a2.77,2.77,0,0,1-1.33-2.11,1,1,0,0,1,.13-.52L430,139c-.21.32-.67.37-1.19.06a2.76,2.76,0,0,1-1.33-2.1.74.74,0,0,1,.28-.65l-8.53-11.36a1,1,0,0,1-1.07-.08,2.78,2.78,0,0,1-1.33-2.1,1.28,1.28,0,0,1,0-.3l-8.06-18.33c-.14.5-.66.63-1.29.27a2.78,2.78,0,0,1-1.33-2.11.88.88,0,0,1,.14-.51l-8.26-8.94c-.21.31-.67.35-1.19,0a2.78,2.78,0,0,1-.94-.93l-8.76,3.76a2.41,2.41,0,0,1,.38,1.17c0,.75-.59,1-1.33.58a2.79,2.79,0,0,1-1.33-2.11,1.36,1.36,0,0,1,0-.3l-8.06-6.69c-.14.5-.67.63-1.29.27a2.78,2.78,0,0,1-1.33-2.1.67.67,0,0,1,.5-.75h0l-9-16.49a1.23,1.23,0,0,1-.84-.19,2.78,2.78,0,0,1-1.33-2.1h0l-8-4.6c0,.73-.59,1-1.33.56a2.73,2.73,0,0,1-1.33-2.1.68.68,0,0,1,.5-.76l-9-16.43a1.2,1.2,0,0,1-.87-.18v64.11l95.83,55.33Z" style="fill:#f0f0f0"></path><path d="M353,60a1,1,0,0,0-.37.84,3.06,3.06,0,0,0,1.5,2.37,1.7,1.7,0,0,0,.76.25,1,1,0,0,0,.51-.08.84.84,0,0,0,.46-.48l7.43,4.29a3.16,3.16,0,0,0,1.48,2.16,1.72,1.72,0,0,0,.76.26h0l8.76,16.08a1,1,0,0,0-.37.84,3.09,3.09,0,0,0,1.5,2.37,1.8,1.8,0,0,0,.75.25,1.06,1.06,0,0,0,.51-.08.77.77,0,0,0,.28-.19l7.62,6.32s0,.1,0,.15a3.06,3.06,0,0,0,1.5,2.37,1.86,1.86,0,0,0,.76.26,1.24,1.24,0,0,0,.51-.08,1,1,0,0,0,.55-1,2.46,2.46,0,0,0-.29-1.07l8.22-3.53a3.25,3.25,0,0,0,.89.81,1.7,1.7,0,0,0,.76.25,1,1,0,0,0,.51-.08.05.05,0,0,0,0,0l7.92,8.56a1.43,1.43,0,0,0-.08.43,3.05,3.05,0,0,0,1.5,2.36,1.72,1.72,0,0,0,.76.26,1.1,1.1,0,0,0,.51-.08l.1-.07,7.81,17.73a1.09,1.09,0,0,0,0,.26,3.07,3.07,0,0,0,1.49,2.37,1.84,1.84,0,0,0,.76.25.89.89,0,0,0,.33,0l8.23,11a1.14,1.14,0,0,0-.17.63,3.06,3.06,0,0,0,1.5,2.37,1.7,1.7,0,0,0,.75.25,1,1,0,0,0,.47-.06l8,15.88a1.47,1.47,0,0,0-.09.49,3.07,3.07,0,0,0,1.49,2.37,1.84,1.84,0,0,0,.76.25,1.1,1.1,0,0,0,.51-.08,1,1,0,0,0,.55-1,3,3,0,0,0-1.49-2.36,1.43,1.43,0,0,0-1.27-.18h0l-8-15.82a1.15,1.15,0,0,0,.14-.57,3.06,3.06,0,0,0-1.5-2.37,1.44,1.44,0,0,0-1.16-.2L419.62,125a1.1,1.1,0,0,0,.21-.68,3,3,0,0,0-1.49-2.37,1.43,1.43,0,0,0-1.27-.18,1.08,1.08,0,0,0-.18.11l-7.76-17.64a1.52,1.52,0,0,0,.06-.39,3.1,3.1,0,0,0-1.49-2.37,1.46,1.46,0,0,0-1.27-.17l-.1.06-7.89-8.52a1.31,1.31,0,0,0,.1-.5A3,3,0,0,0,397.05,90a1.39,1.39,0,0,0-1.27-.17,1,1,0,0,0-.55,1,2.29,2.29,0,0,0,.28,1l-8.23,3.54a3,3,0,0,0-.87-.79,1.43,1.43,0,0,0-1.27-.17.81.81,0,0,0-.31.23l-7.6-6.29a1.6,1.6,0,0,0,0-.23,3.05,3.05,0,0,0-1.5-2.36,1.69,1.69,0,0,0-.85-.25l-8.74-16a1,1,0,0,0,.44-.89,3,3,0,0,0-1.49-2.36,1.43,1.43,0,0,0-1.27-.18.86.86,0,0,0-.48.54L356,62.23A3.14,3.14,0,0,0,354.48,60a1.75,1.75,0,0,0-.86-.25L345,44l-.73-.06Zm85.44,95.92c0-.25.08-.43.23-.49a.48.48,0,0,1,.18,0,1,1,0,0,1,.43.16,2.47,2.47,0,0,1,1.17,1.84.5.5,0,0,1-.23.49.74.74,0,0,1-.61-.12A2.5,2.5,0,0,1,438.46,155.87Zm-10.64-18.93a.51.51,0,0,1,.22-.49.78.78,0,0,1,.62.13,2.47,2.47,0,0,1,1.16,1.85.85.85,0,0,1-.05.3h0a.2.2,0,0,0-.09.13l-.06,0a.78.78,0,0,1-.62-.13A2.47,2.47,0,0,1,427.82,136.94Zm-10.65-14.19a.5.5,0,0,1,.23-.49.76.76,0,0,1,.61.13,2.47,2.47,0,0,1,1.17,1.85.61.61,0,0,1-.13.41h0a.27.27,0,0,0-.08.07.8.8,0,0,1-.59-.13A2.48,2.48,0,0,1,417.17,122.75Zm-10.64-20.46c0-.25.08-.43.22-.49a.76.76,0,0,1,.62.12,2.49,2.49,0,0,1,1.16,1.85.53.53,0,0,1,0,.13.23.23,0,0,0-.06.22.4.4,0,0,1-.15.14.71.71,0,0,1-.61-.13A2.44,2.44,0,0,1,406.53,102.29ZM395.88,90.78a.51.51,0,0,1,.23-.49.35.35,0,0,1,.18,0,1,1,0,0,1,.43.15,2.46,2.46,0,0,1,1.17,1.85.85.85,0,0,1-.05.3h0a.19.19,0,0,0-.09.14l-.06,0a.76.76,0,0,1-.61-.13A2.48,2.48,0,0,1,395.88,90.78Zm-10.64,4.57c0-.25.08-.42.23-.48a.34.34,0,0,1,.18,0,1.11,1.11,0,0,1,.43.15,2.49,2.49,0,0,1,.74.71.19.19,0,0,0,0,.12.36.36,0,0,0,.09.08,2,2,0,0,1,.3.94.5.5,0,0,1-.23.49.76.76,0,0,1-.61-.13A2.44,2.44,0,0,1,385.24,95.35ZM374.6,86.53c0-.25.08-.43.22-.49a.78.78,0,0,1,.62.13A2.45,2.45,0,0,1,376.6,88a.61.61,0,0,1,0,.14.24.24,0,0,0-.06.19.31.31,0,0,1-.15.15.73.73,0,0,1-.62-.12A2.49,2.49,0,0,1,374.6,86.53ZM364,67c0-.25.08-.43.23-.49a.72.72,0,0,1,.61.13A2.47,2.47,0,0,1,366,68.47a.5.5,0,0,1-.23.49.72.72,0,0,1-.61-.13A2.47,2.47,0,0,1,364,67Zm-10.64-6.15a.51.51,0,0,1,.22-.49.78.78,0,0,1,.62.13,2.5,2.5,0,0,1,1.15,1.74.26.26,0,0,0,0,.23.42.42,0,0,1-.21.37.75.75,0,0,1-.61-.13A2.46,2.46,0,0,1,353.31,60.84Z" style="fill:#e0e0e0"></path><path d="M344.09,47a.31.31,0,0,0,.35-.28V44l2.83,1.34a.36.36,0,0,0,.47-.12.31.31,0,0,0-.18-.42l-3.33-1.57a.38.38,0,0,0-.33,0,.27.27,0,0,0-.16.24v3.2A.37.37,0,0,0,344.09,47Z" style="fill:#e0e0e0"></path></g><g id="freepik--chart--inject-277"><polygon points="452.52 219.17 385.38 180.35 385.38 140.4 452.52 179.22 452.52 219.17" style="opacity:0.15"></polygon><path d="M449.76,218.3l.31-.18a2,2,0,0,0,.9-1.55V181.19a2,2,0,0,0-.9-1.56l-64.73-37.49a2,2,0,0,0-1.79,0l-.31.17a2,2,0,0,0-.89,1.56v35.38a2,2,0,0,0,.89,1.55L448,218.3A2,2,0,0,0,449.76,218.3Z" style="fill:#f0f0f0"></path><path d="M451,181.19v35.38a2,2,0,0,1-.89,1.56l-.31.18a2,2,0,0,1-1.59.09c.41.11.7-.12.7-.62V182.4a1.77,1.77,0,0,0-.27-.88l2.11-1.21A2,2,0,0,1,451,181.19Z" style="fill:#e0e0e0"></path><path d="M383.24,143.35,448,180.85a2,2,0,0,1,.89,1.55v35.39c0,.57-.4.8-.89.51l-64.73-37.5a2,2,0,0,1-.89-1.55V143.87C382.35,143.3,382.75,143.06,383.24,143.35Z" style="fill:#fff"></path></g><g id="freepik--Sheet--inject-277"><polygon points="476.75 234.14 454.78 221.45 454.78 184.52 476.75 197.2 476.75 234.14" style="opacity:0.15"></polygon><path d="M475.14,234.49l-20.86-12.05a1.21,1.21,0,0,1-.55-1V185.82c0-.35.24-.49.55-.32l20.86,12.05a1.19,1.19,0,0,1,.55,1v35.66C475.69,234.52,475.45,234.66,475.14,234.49Z" style="fill:#fff"></path><path d="M473,202.94l-16.64-9.6a1.23,1.23,0,0,1-.62-.87c0-.28.28-.34.62-.15L473,201.93a1.23,1.23,0,0,1,.62.87C473.65,203.07,473.37,203.14,473,202.94Z" style="fill:#e0e0e0"></path><path d="M473,205.57,456.39,196a1.23,1.23,0,0,1-.62-.87c0-.28.28-.34.62-.14l16.64,9.6a1.23,1.23,0,0,1,.62.87C473.65,205.71,473.37,205.77,473,205.57Z" style="fill:#e0e0e0"></path><path d="M473,211l-16.64-9.61a1.19,1.19,0,0,1-.62-.86c0-.28.28-.35.62-.15L473,210a1.21,1.21,0,0,1,.62.86C473.65,211.17,473.37,211.24,473,211Z" style="fill:#e0e0e0"></path><path d="M473,213.67l-16.64-9.61a1.19,1.19,0,0,1-.62-.86c0-.28.28-.35.62-.15L473,212.66a1.21,1.21,0,0,1,.62.86C473.65,213.8,473.37,213.87,473,213.67Z" style="fill:#e0e0e0"></path><path d="M473,221.77l-16.64-9.61a1.21,1.21,0,0,1-.62-.86c0-.28.28-.35.62-.15L473,220.76a1.19,1.19,0,0,1,.62.86C473.65,221.9,473.37,222,473,221.77Z" style="fill:#e0e0e0"></path><path d="M473,219.14l-16.64-9.61a1.23,1.23,0,0,1-.62-.86c0-.28.28-.35.62-.15l16.64,9.6a1.23,1.23,0,0,1,.62.87C473.65,219.27,473.37,219.33,473,219.14Z" style="fill:#e0e0e0"></path><g id="freepik--Pushpin--inject-277"><path d="M463.5,194.9l0,0,.07.06c.06,0,.09,0,.14,0l.42-.24.59-.35.67-.42c.06,0-.06-.26-.14-.22l-.69.37-.6.33-.42.24c-.05,0-.1,0-.1.11a.37.37,0,0,0,0,.09Z" style="fill:#e0e0e0"></path><path d="M463.07,195.2c.32.56.85.87,1.4.57l0,0h0a.6.6,0,0,0,.23-.54,1.85,1.85,0,0,0-.84-1.46.64.64,0,0,0-.57-.07h0l-.05,0A1,1,0,0,0,463.07,195.2Z" style="fill:#e0e0e0"></path><g style="opacity:0.15"><path d="M463.07,195.2c.32.56.85.87,1.4.57l0,0h0a.6.6,0,0,0,.23-.54,1.85,1.85,0,0,0-.84-1.46.64.64,0,0,0-.57-.07h0l-.05,0A1,1,0,0,0,463.07,195.2Z"></path></g><path d="M462.39,196.31l-.63-1.07a5.71,5.71,0,0,0,1.32-.91l0,0,0,0h0a.35.35,0,0,1,.41,0,1.21,1.21,0,0,1,.55.95.37.37,0,0,1-.16.35h0l-.1,0A5.49,5.49,0,0,0,462.39,196.31Z" style="fill:#e0e0e0"></path><path d="M461.22,195.45a.66.66,0,0,1,.66-.66,1,1,0,0,1,.24,0h0l.11.05a1.47,1.47,0,0,1,.67,1.15.79.79,0,0,1,0,.17.67.67,0,0,1-.65.55.66.66,0,0,1-.66-.66.13.13,0,0,1,0-.06A.67.67,0,0,1,461.22,195.45Z" style="fill:#e0e0e0"></path><g style="opacity:0.15"><path d="M461.22,195.45a.66.66,0,0,1,.66-.66,1,1,0,0,1,.24,0h0l.11.05a1.47,1.47,0,0,1,.67,1.15.79.79,0,0,1,0,.17.67.67,0,0,1-.65.55.66.66,0,0,1-.66-.66.13.13,0,0,1,0-.06A.67.67,0,0,1,461.22,195.45Z"></path></g><path d="M461.88,195.11c-.37-.21-.67,0-.67.39a1.49,1.49,0,0,0,.67,1.16c.37.21.67,0,.67-.39A1.5,1.5,0,0,0,461.88,195.11Z" style="fill:#e0e0e0"></path></g></g><g id="freepik--sheet--inject-277"><polygon points="379.86 176.09 357.89 163.41 357.89 126.47 379.86 139.15 379.86 176.09" style="opacity:0.15"></polygon><path d="M378.26,176.44l-20.87-12.05a1.22,1.22,0,0,1-.55-1V127.77c0-.35.25-.49.55-.32l20.87,12a1.23,1.23,0,0,1,.55,1v35.66C378.81,176.47,378.56,176.61,378.26,176.44Z" style="fill:#fff"></path><path d="M376.15,144.89l-16.64-9.6a1.2,1.2,0,0,1-.62-.87c0-.28.27-.34.62-.15l16.64,9.61a1.23,1.23,0,0,1,.62.87C376.77,145,376.49,145.09,376.15,144.89Z" style="fill:#e0e0e0"></path><path d="M376.15,147.53l-16.64-9.61a1.2,1.2,0,0,1-.62-.87c0-.28.27-.34.62-.14l16.64,9.6a1.23,1.23,0,0,1,.62.87C376.77,147.66,376.49,147.72,376.15,147.53Z" style="fill:#e0e0e0"></path><path d="M376.15,153l-16.64-9.61a1.17,1.17,0,0,1-.62-.86c0-.28.27-.35.62-.15L376.15,152a1.21,1.21,0,0,1,.62.86C376.77,153.12,376.49,153.19,376.15,153Z" style="fill:#e0e0e0"></path><path d="M376.15,155.62,359.51,146a1.17,1.17,0,0,1-.62-.86c0-.28.27-.35.62-.15l16.64,9.61a1.21,1.21,0,0,1,.62.86C376.77,155.75,376.49,155.82,376.15,155.62Z" style="fill:#e0e0e0"></path><path d="M376.15,163.72l-16.64-9.61a1.19,1.19,0,0,1-.62-.86c0-.28.27-.35.62-.15l16.64,9.61a1.19,1.19,0,0,1,.62.86C376.77,163.85,376.49,163.92,376.15,163.72Z" style="fill:#e0e0e0"></path><path d="M376.15,161.09l-16.64-9.61a1.2,1.2,0,0,1-.62-.86c0-.28.27-.35.62-.15l16.64,9.6a1.23,1.23,0,0,1,.62.87C376.77,161.22,376.49,161.28,376.15,161.09Z" style="fill:#e0e0e0"></path><g id="freepik--pushpin--inject-277"><path d="M366.61,136.85l0,0a.24.24,0,0,0,.08.06c.06,0,.08,0,.14,0l.41-.24.59-.35c.22-.13.45-.27.67-.42s0-.26-.13-.22l-.69.37-.6.33-.42.24c-.05,0-.1,0-.1.11s0,.06,0,.09Z" style="fill:#e0e0e0"></path><path d="M366.18,137.15c.33.56.85.87,1.41.57l0,0h0a.6.6,0,0,0,.23-.54,1.89,1.89,0,0,0-.84-1.46.64.64,0,0,0-.57-.07h0a.1.1,0,0,0-.05,0A1,1,0,0,0,366.18,137.15Z" style="fill:#e0e0e0"></path><g style="opacity:0.15"><path d="M366.18,137.15c.33.56.85.87,1.41.57l0,0h0a.6.6,0,0,0,.23-.54,1.89,1.89,0,0,0-.84-1.46.64.64,0,0,0-.57-.07h0a.1.1,0,0,0-.05,0A1,1,0,0,0,366.18,137.15Z"></path></g><path d="M365.5,138.26l-.62-1.07a5.93,5.93,0,0,0,1.32-.91l0,0,0,0h0a.36.36,0,0,1,.42,0,1.21,1.21,0,0,1,.55,1,.37.37,0,0,1-.16.35h0l-.11,0A5.67,5.67,0,0,0,365.5,138.26Z" style="fill:#e0e0e0"></path><path d="M364.34,137.4a.66.66,0,0,1,.66-.66.85.85,0,0,1,.23,0h0l.11,0A1.48,1.48,0,0,1,366,138a.79.79,0,0,1,0,.17.65.65,0,0,1-1.3-.11V138A.68.68,0,0,1,364.34,137.4Z" style="fill:#e0e0e0"></path><g style="opacity:0.15"><path d="M364.34,137.4a.66.66,0,0,1,.66-.66.85.85,0,0,1,.23,0h0l.11,0A1.48,1.48,0,0,1,366,138a.79.79,0,0,1,0,.17.65.65,0,0,1-1.3-.11V138A.68.68,0,0,1,364.34,137.4Z"></path></g><path d="M365,137.06c-.37-.21-.67,0-.67.39a1.49,1.49,0,0,0,.67,1.16c.37.21.67,0,.67-.39A1.5,1.5,0,0,0,365,137.06Z" style="fill:#e0e0e0"></path></g></g><g id="freepik--sheet--inject-277"><polygon points="355.61 162.32 333.64 149.63 333.64 112.7 355.61 125.38 355.61 162.32" style="opacity:0.15"></polygon><path d="M354,162.67l-20.87-12a1.22,1.22,0,0,1-.55-1V114c0-.35.25-.49.55-.32l20.87,12a1.23,1.23,0,0,1,.55,1v35.66C354.56,162.7,354.31,162.84,354,162.67Z" style="fill:#fff"></path><path d="M351.9,131.12l-16.64-9.6a1.2,1.2,0,0,1-.62-.87c0-.28.27-.34.62-.14l16.64,9.6a1.21,1.21,0,0,1,.61.87C352.51,131.26,352.24,131.32,351.9,131.12Z" style="fill:#e0e0e0"></path><path d="M351.9,133.76l-16.64-9.61a1.2,1.2,0,0,1-.62-.87c0-.27.27-.34.62-.14l16.64,9.6a1.21,1.21,0,0,1,.61.87C352.51,133.89,352.24,134,351.9,133.76Z" style="fill:#e0e0e0"></path><path d="M351.9,139.22l-16.64-9.61a1.17,1.17,0,0,1-.62-.86c0-.28.27-.35.62-.15l16.64,9.61a1.2,1.2,0,0,1,.61.86C352.51,139.35,352.24,139.42,351.9,139.22Z" style="fill:#e0e0e0"></path><path d="M351.9,141.85l-16.64-9.61a1.17,1.17,0,0,1-.62-.86c0-.28.27-.35.62-.15l16.64,9.61a1.2,1.2,0,0,1,.61.86C352.51,142,352.24,142.05,351.9,141.85Z" style="fill:#e0e0e0"></path><path d="M351.9,150l-16.64-9.61a1.19,1.19,0,0,1-.62-.86c0-.28.27-.35.62-.15l16.64,9.61a1.18,1.18,0,0,1,.61.86C352.51,150.08,352.24,150.15,351.9,150Z" style="fill:#e0e0e0"></path><path d="M351.9,147.32l-16.64-9.61a1.19,1.19,0,0,1-.62-.86c0-.28.27-.35.62-.15l16.64,9.6a1.21,1.21,0,0,1,.61.87C352.51,147.45,352.24,147.51,351.9,147.32Z" style="fill:#e0e0e0"></path><g id="freepik--pushpin--inject-277"><path d="M342.36,123.08l0,0a.24.24,0,0,0,.08.06s.08,0,.13,0l.42-.24.59-.35c.22-.13.45-.27.67-.42s0-.26-.13-.22l-.69.37-.6.33-.42.24c-.05,0-.1,0-.1.11a.31.31,0,0,0,0,.09Z" style="fill:#e0e0e0"></path><path d="M341.93,123.38c.32.57.85.87,1.41.57l0,0h0a.58.58,0,0,0,.24-.54,1.87,1.87,0,0,0-.85-1.46.61.61,0,0,0-.56-.07h0a.1.1,0,0,0-.05,0A1,1,0,0,0,341.93,123.38Z" style="fill:#e0e0e0"></path><g style="opacity:0.15"><path d="M341.93,123.38c.32.57.85.87,1.41.57l0,0h0a.58.58,0,0,0,.24-.54,1.87,1.87,0,0,0-.85-1.46.61.61,0,0,0-.56-.07h0a.1.1,0,0,0-.05,0A1,1,0,0,0,341.93,123.38Z"></path></g><path d="M341.25,124.49l-.62-1.06a6.26,6.26,0,0,0,1.31-.92l0,0,0,0h0a.36.36,0,0,1,.42,0,1.21,1.21,0,0,1,.55,1,.39.39,0,0,1-.16.35h0l-.11,0A5.67,5.67,0,0,0,341.25,124.49Z" style="fill:#e0e0e0"></path><path d="M340.09,123.63a.66.66,0,0,1,.66-.66.59.59,0,0,1,.23,0h0l.1,0a1.47,1.47,0,0,1,.67,1.16.78.78,0,0,1,0,.16.66.66,0,0,1-.65.55.67.67,0,0,1-.66-.66s0,0,0-.06A.68.68,0,0,1,340.09,123.63Z" style="fill:#e0e0e0"></path><g style="opacity:0.15"><path d="M340.09,123.63a.66.66,0,0,1,.66-.66.59.59,0,0,1,.23,0h0l.1,0a1.47,1.47,0,0,1,.67,1.16.78.78,0,0,1,0,.16.66.66,0,0,1-.65.55.67.67,0,0,1-.66-.66s0,0,0-.06A.68.68,0,0,1,340.09,123.63Z"></path></g><path d="M340.75,123.3c-.37-.22-.67,0-.67.38a1.49,1.49,0,0,0,.67,1.16c.37.21.66,0,.66-.39A1.46,1.46,0,0,0,340.75,123.3Z" style="fill:#e0e0e0"></path></g></g><g id="freepik--sheet--inject-277"><polygon points="476.75 147.02 454.78 134.34 454.78 97.4 476.75 110.08 476.75 147.02" style="opacity:0.15"></polygon><path d="M475.14,147.37l-20.86-12.05a1.19,1.19,0,0,1-.55-.95V98.71c0-.36.24-.5.55-.32l20.86,12a1.22,1.22,0,0,1,.55,1v35.66C475.69,147.4,475.45,147.55,475.14,147.37Z" style="fill:#fff"></path><path d="M473,115.83l-16.64-9.61a1.21,1.21,0,0,1-.62-.86c0-.28.28-.35.62-.15L473,114.82a1.19,1.19,0,0,1,.62.86C473.65,116,473.37,116,473,115.83Z" style="fill:#e0e0e0"></path><path d="M473,118.46l-16.64-9.61a1.21,1.21,0,0,1-.62-.86c0-.28.28-.35.62-.15L473,117.45a1.19,1.19,0,0,1,.62.86C473.65,118.59,473.37,118.66,473,118.46Z" style="fill:#e0e0e0"></path><path d="M473,123.92l-16.64-9.6a1.23,1.23,0,0,1-.62-.87c0-.28.28-.34.62-.15L473,122.91a1.23,1.23,0,0,1,.62.86C473.65,124.05,473.37,124.12,473,123.92Z" style="fill:#e0e0e0"></path><path d="M473,126.55,456.39,117a1.23,1.23,0,0,1-.62-.87c0-.28.28-.34.62-.14l16.64,9.6a1.23,1.23,0,0,1,.62.87C473.65,126.69,473.37,126.75,473,126.55Z" style="fill:#e0e0e0"></path><path d="M473,134.65,456.39,125a1.19,1.19,0,0,1-.62-.86c0-.28.28-.35.62-.15L473,133.64a1.21,1.21,0,0,1,.62.86C473.65,134.78,473.37,134.85,473,134.65Z" style="fill:#e0e0e0"></path><path d="M473,132l-16.64-9.61a1.19,1.19,0,0,1-.62-.86c0-.28.28-.35.62-.15L473,131a1.21,1.21,0,0,1,.62.86C473.65,132.15,473.37,132.22,473,132Z" style="fill:#e0e0e0"></path><g id="freepik--pushpin--inject-277"><path d="M463.5,107.78l0,0,.07.06c.06,0,.09,0,.14,0l.42-.25.59-.35.67-.41c.06,0-.06-.27-.14-.23l-.69.37-.6.34-.42.24c-.05,0-.1,0-.1.1a.29.29,0,0,0,0,.09Z" style="fill:#e0e0e0"></path><path d="M463.07,108.09c.32.56.85.86,1.4.56a.05.05,0,0,0,0,0h0a.63.63,0,0,0,.23-.54,1.86,1.86,0,0,0-.84-1.47.64.64,0,0,0-.57-.07l0,0-.05,0C462.74,106.93,462.75,107.53,463.07,108.09Z" style="fill:#e0e0e0"></path><g style="opacity:0.15"><path d="M463.07,108.09c.32.56.85.86,1.4.56a.05.05,0,0,0,0,0h0a.63.63,0,0,0,.23-.54,1.86,1.86,0,0,0-.84-1.47.64.64,0,0,0-.57-.07l0,0-.05,0C462.74,106.93,462.75,107.53,463.07,108.09Z"></path></g><path d="M462.39,109.2l-.63-1.07a6.07,6.07,0,0,0,1.32-.91s0,0,0,0l0,0h0a.36.36,0,0,1,.41,0,1.23,1.23,0,0,1,.55,1,.39.39,0,0,1-.16.36h0a.19.19,0,0,1-.1,0A5.74,5.74,0,0,0,462.39,109.2Z" style="fill:#e0e0e0"></path><path d="M461.22,108.33a.67.67,0,0,1,.66-.66.69.69,0,0,1,.24,0h0l.11,0a1.47,1.47,0,0,1,.67,1.16,1,1,0,0,1,0,.17.67.67,0,0,1-.65.54.65.65,0,0,1-.66-.66.13.13,0,0,1,0-.06A.66.66,0,0,1,461.22,108.33Z" style="fill:#e0e0e0"></path><g style="opacity:0.15"><path d="M461.22,108.33a.67.67,0,0,1,.66-.66.69.69,0,0,1,.24,0h0l.11,0a1.47,1.47,0,0,1,.67,1.16,1,1,0,0,1,0,.17.67.67,0,0,1-.65.54.65.65,0,0,1-.66-.66.13.13,0,0,1,0-.06A.66.66,0,0,1,461.22,108.33Z"></path></g><path d="M461.88,108c-.37-.21-.67,0-.67.38a1.47,1.47,0,0,0,.67,1.16c.37.21.67,0,.67-.39A1.47,1.47,0,0,0,461.88,108Z" style="fill:#e0e0e0"></path></g></g><g id="freepik--Tube--inject-277"><path d="M482.72,109.45l3.65-6.35L326.06,10.54h0a1.76,1.76,0,0,0-1.88.14,5.74,5.74,0,0,0-2.59,4.49,1.86,1.86,0,0,0,.71,1.64h0l0,0h0Z" style="fill:#f0f0f0"></path><path d="M481.94,107.76a5.74,5.74,0,0,1,2.59-4.49c1.44-.82,2.6-.15,2.6,1.5a5.73,5.73,0,0,1-2.6,4.49C483.1,110.09,481.94,109.42,481.94,107.76Z" style="fill:#e0e0e0"></path></g><polygon points="447.11 182.85 383.82 146.31 383.88 179.46 447.24 216.04 447.11 182.85" style="fill:#fff"></polygon><path d="M447.24,216.05l-63.38-36.59v-7.35c0-.12.83.92.9,1.07a10.19,10.19,0,0,1,.57,2.3,2.31,2.31,0,0,0,.4,1,5.93,5.93,0,0,1,.32,1.2c.35,1.09.89,1.36,1.45,1.48a6.29,6.29,0,0,1,2.12,1.44,6.26,6.26,0,0,0,.95.66c.4.19.63-.1,1-.23a1.92,1.92,0,0,1,2.18.46c.68.66,1.39.62,2.06,1.34s1.08,1.39,1.66,1.94,1.37.68,2.07,1.2a6.64,6.64,0,0,0,1.58,1.08c1.14.39,2.08,1.77,3.18,2.49,1.85,1.21,1.31-2.2,2.15-3.34.46-.65.28-1.78.49-2.74a2.7,2.7,0,0,1,.41-.92c.16-.27.24-.72.41-.95s.4-.26.55-.13.21.94.47,1.27.35.06.52.2a2.61,2.61,0,0,1,.54,1,9.08,9.08,0,0,0,1.32,1.9c.42.6.57,1.33,1.05,1.9s.74.63,1.07.42c.51-.32.61-3.69.86-4.17s.38-1.56.78-2,.35.31.62.19.13-.33.27-.36.32.15.48.39c.26.41.47,1,.73,1.36.44.66.46.06.78.07s.48.81.63,1.21a14.81,14.81,0,0,1,.61,1.81,9.13,9.13,0,0,0,.47,2.28c.12.15.13-.09.21,0a1.29,1.29,0,0,1,.22.65,4.17,4.17,0,0,0,.54,1.58c.4.51.56,0,.89.07s.56.44.84.45.27-.2.48-.11.2.22.31.27c.28.13.29-.07.57.35a4.19,4.19,0,0,0,.51.74.88.88,0,0,0,.73.22c.25-.05.35-.31.52-.53s.33-.06.57-.08.36-.22.61.31a6.94,6.94,0,0,1,.33,1.75c.1.65.22,1.31.34,2a8.08,8.08,0,0,0,1.07,3.21,1.63,1.63,0,0,0,.92.71c.3,0,.64-.15,1,.09s.2.26.33.39c.4.39.79.27,1.18.71a4.63,4.63,0,0,0,1,.88,8.24,8.24,0,0,1,1.3,1.51,2.92,2.92,0,0,0,1.62,1.09,3.29,3.29,0,0,0,1.55.07c.34-.11.61.18,1,.44s.48.05.76.09.59.41.88.49.4-.15.63-.12a1.14,1.14,0,0,0,.66,0c.7-.32,1-1.22,1.19-2.31a4.81,4.81,0,0,1,.86-2.54c.51-.49,1.37-.39,1.57-1.44a59.59,59.59,0,0,0,.77-7c.22-4,.58-7.32.86-7s0,7.5,1,9.56Z" style="fill:#f0f0f0"></path></g></g><g id="freepik--Diplomas--inject-277"><g id="freepik--Diploma--inject-277"><g id="freepik--Window--inject-277"><polygon points="137.78 80.02 139.31 80.89 177.36 58.93 175.84 58.05 137.78 80.02" style="fill:#f0f0f0"></polygon><polygon points="175.84 58.05 139.31 79.14 139.31 47.48 175.84 26.39 175.84 58.05" style="fill:#fafafa"></polygon><path d="M178.88,22.87,137.78,46.6V83.53l41.1-23.73Zm-1.52,36.06-38.05,22V47.48l38.05-22Z" style="fill:#ebebeb"></path><polygon points="177.36 58.93 175.84 58.05 175.84 26.39 177.36 25.51 177.36 58.93" style="fill:#e0e0e0"></polygon><polygon points="178.88 22.87 177.36 21.99 136.26 45.72 137.78 46.6 178.88 22.87" style="fill:#f5f5f5"></polygon><polygon points="136.26 45.72 137.78 46.6 137.78 83.53 136.26 82.65 136.26 45.72" style="fill:#e0e0e0"></polygon></g><path d="M168.46,53.14c1.42-.82,2.57-.15,2.57,1.48a5.66,5.66,0,0,1-2.57,4.45c-1.42.82-2.57.16-2.57-1.48A5.68,5.68,0,0,1,168.46,53.14Z" style="fill:#e0e0e0"></path><path d="M147.91,46l19.34-11.17c.54-.31,1-.06,1,.56v0a2.16,2.16,0,0,1-1,1.69L147.91,48.35c-.54.31-1,.06-1-.56v-.07A2.15,2.15,0,0,1,147.91,46Z" style="fill:#e0e0e0"></path><path d="M144.85,54.84l25.46-14.7c.54-.31,1-.17,1,.31a1.93,1.93,0,0,1-1,1.44L144.83,56.61c-.54.31-1,.16-1-.33A2,2,0,0,1,144.85,54.84Z" style="fill:#f0f0f0"></path><path d="M144.85,58.35l25.46-14.7c.54-.31,1-.17,1,.31a1.94,1.94,0,0,1-1,1.45L144.83,60.12c-.54.31-1,.16-1-.33A2,2,0,0,1,144.85,58.35Z" style="fill:#f0f0f0"></path><path d="M144.85,61.86l25.46-14.7c.54-.31,1-.17,1,.32a1.94,1.94,0,0,1-1,1.44L144.83,63.63c-.54.31-1,.16-1-.32A2,2,0,0,1,144.85,61.86Z" style="fill:#f0f0f0"></path><path d="M163.89,60.66a1.56,1.56,0,0,1-.64.17c-.54,0-.49-.56-.47-.94,0-.17-.24-.44-.36-.21-.33.59-.75,1.15-1.11,1.73-.21.35-.63,1.15-1.15,1-.22-.05-.29-.28-.29-.57a2.83,2.83,0,0,0,.34-1.59c0-.17-.3-.37-.39-.15a5.25,5.25,0,0,0-.33,1.47,9,9,0,0,1-.82,1.22c-.18.24-.33.5-.53.72,0,.05-.13.19-.21.2s-.16-.08-.18-.2a1.35,1.35,0,0,1,.08-.52h0s0,0,0,0h0c0-.17-.22-.43-.31-.21a7.82,7.82,0,0,1-1.5,2.49l-.1.08c0-.1,0-.2,0-.3a2.79,2.79,0,0,0-.13-.7c0-.11-.23-.28-.33-.13a12,12,0,0,1-1.7,2.34,2,2,0,0,1-.36.25c-.11-.07.07-.68.09-.78.07-.27.16-.54.25-.82a2.91,2.91,0,0,0,.21-.67c0-.21-.33-.53-.4-.25,0,.12-.12.4-.23.74a19,19,0,0,1-1.43,2.42,5.53,5.53,0,0,1-2,1.91c-.22.13-.65.3-.9.13s-.22-.5-.23-.73A6.61,6.61,0,0,1,149,67a10.68,10.68,0,0,0,2.21-1.56,7.5,7.5,0,0,0,1.67-1.84c.22-.41.36-1.09-.19-1.32-.38-.16-.87.11-1.19.29a5.25,5.25,0,0,0-1.21.94,6.82,6.82,0,0,0-1.52,2.78c0,.15-.11.36-.17.6a4.74,4.74,0,0,1-2.81.47c-.05,0-.07.11,0,.12a4.52,4.52,0,0,0,2.74-.26c-.24,1.07-.38,2.47.61,2.75s2.19-1,2.72-1.68a12.08,12.08,0,0,0,1.07-1.72.6.6,0,0,1,.09-.13c0,.5.1.86.58.77s.94-.77,1.21-1.15.48-.73.72-1.1c0,.45.12,1,.55.87s.77-.82,1-1.12.34-.53.48-.8a.71.71,0,0,0,.1.14c.35.38.77,0,1-.32s.69-.88,1-1.35a.84.84,0,0,0,.42.47c.55.26,1.06-.19,1.37-.6a11,11,0,0,0,1-1.64.75.75,0,0,0,.37.52,1.23,1.23,0,0,0,1.28-.09C164.23,60.93,164.07,60.57,163.89,60.66ZM152,62.78c.26-.12.78-.34.81.09a1.44,1.44,0,0,1-.34.74A9.63,9.63,0,0,1,151,65.19a12.47,12.47,0,0,1-1.86,1.41A6,6,0,0,1,152,62.78Z" style="fill:#e0e0e0"></path></g><g id="freepik--diploma--inject-277"><g id="freepik--window--inject-277"><polygon points="137.78 134.38 139.31 135.25 177.36 113.28 175.84 112.41 137.78 134.38" style="fill:#f0f0f0"></polygon><polygon points="175.84 112.41 139.31 133.5 139.31 101.83 175.84 80.74 175.84 112.41" style="fill:#fafafa"></polygon><path d="M178.88,77.23,137.78,101v36.93l41.1-23.73Zm-1.52,36.06-38.05,22V101.83l38.05-22Z" style="fill:#ebebeb"></path><polygon points="177.36 113.28 175.84 112.41 175.84 80.74 177.36 79.86 177.36 113.28" style="fill:#e0e0e0"></polygon><polygon points="178.88 77.23 177.36 76.35 136.26 100.08 137.78 100.96 178.88 77.23" style="fill:#f5f5f5"></polygon><polygon points="136.26 100.08 137.78 100.96 137.78 137.89 136.26 137.01 136.26 100.08" style="fill:#e0e0e0"></polygon></g><path d="M168.46,107.5c1.42-.82,2.57-.15,2.57,1.48a5.68,5.68,0,0,1-2.57,4.45c-1.42.82-2.57.16-2.57-1.48A5.68,5.68,0,0,1,168.46,107.5Z" style="fill:#e0e0e0"></path><path d="M147.91,100.39l19.34-11.17c.54-.32,1-.06,1,.56v0a2.16,2.16,0,0,1-1,1.69l-19.34,11.19c-.54.31-1,.06-1-.56v-.07A2.15,2.15,0,0,1,147.91,100.39Z" style="fill:#e0e0e0"></path><path d="M144.85,109.2l25.46-14.7c.54-.32,1-.17,1,.31a1.93,1.93,0,0,1-1,1.44L144.83,111c-.54.31-1,.17-1-.32A2,2,0,0,1,144.85,109.2Z" style="fill:#f0f0f0"></path><path d="M144.85,112.71,170.31,98c.54-.31,1-.17,1,.31a2,2,0,0,1-1,1.45l-25.48,14.71c-.54.31-1,.16-1-.33A2,2,0,0,1,144.85,112.71Z" style="fill:#f0f0f0"></path><path d="M144.85,116.22l25.46-14.7c.54-.31,1-.17,1,.32a1.94,1.94,0,0,1-1,1.44L144.83,118c-.54.31-1,.16-1-.32A2,2,0,0,1,144.85,116.22Z" style="fill:#f0f0f0"></path><path d="M163.89,115a1.41,1.41,0,0,1-.64.16c-.54,0-.49-.55-.47-.93,0-.17-.24-.44-.36-.21-.33.59-.75,1.15-1.11,1.73-.21.35-.63,1.15-1.15,1-.22,0-.29-.28-.29-.57a2.83,2.83,0,0,0,.34-1.59c0-.17-.3-.37-.39-.15a5.26,5.26,0,0,0-.33,1.46,8.49,8.49,0,0,1-.82,1.23c-.18.24-.33.5-.53.72,0,0-.13.18-.21.2s-.16-.08-.18-.2a1.35,1.35,0,0,1,.08-.52h0s0,0,0,0h0c0-.17-.22-.43-.31-.21a7.82,7.82,0,0,1-1.5,2.49l-.1.08c0-.1,0-.2,0-.31a2.71,2.71,0,0,0-.13-.69c0-.11-.23-.28-.33-.13a12,12,0,0,1-1.7,2.34,2,2,0,0,1-.36.25c-.11-.07.07-.68.09-.78.07-.27.16-.55.25-.82a2.91,2.91,0,0,0,.21-.67c0-.21-.33-.53-.4-.25,0,.11-.12.4-.23.74a19,19,0,0,1-1.43,2.42,5.53,5.53,0,0,1-2,1.91c-.22.13-.65.3-.9.12s-.22-.49-.23-.72a6.61,6.61,0,0,1,.24-1.76,10.68,10.68,0,0,0,2.21-1.56,7.36,7.36,0,0,0,1.67-1.85c.22-.4.36-1.08-.19-1.31-.38-.16-.87.11-1.19.29a5.25,5.25,0,0,0-1.21.94,6.82,6.82,0,0,0-1.52,2.78c0,.15-.11.36-.17.6a4.74,4.74,0,0,1-2.81.47c-.05,0-.07.11,0,.12a4.52,4.52,0,0,0,2.74-.26c-.24,1.07-.38,2.47.61,2.75s2.19-1,2.72-1.68a12.08,12.08,0,0,0,1.07-1.72.6.6,0,0,1,.09-.13c0,.5.1.85.58.77s.94-.77,1.21-1.15.48-.73.72-1.1c0,.45.12,1,.55.87s.77-.82,1-1.12.34-.53.48-.8a.71.71,0,0,0,.1.14c.35.38.77,0,1-.32s.69-.88,1-1.36a.83.83,0,0,0,.42.48c.55.25,1.06-.2,1.37-.6a11,11,0,0,0,1-1.64.75.75,0,0,0,.37.52,1.23,1.23,0,0,0,1.28-.09C164.23,115.29,164.07,114.93,163.89,115ZM152,117.14c.26-.12.78-.34.81.09a1.44,1.44,0,0,1-.34.74,9.63,9.63,0,0,1-1.48,1.58A12.47,12.47,0,0,1,149.1,121,6,6,0,0,1,152,117.14Z" style="fill:#e0e0e0"></path></g></g><g id="freepik--window--inject-277"><g id="freepik--window--inject-277"><g id="freepik--window--inject-277"><polygon points="29.18 205.63 31.97 205.82 120.09 154.91 118.69 153.9 29.18 205.63" style="fill:#fafafa"></polygon><polygon points="118.69 153.9 31.97 204.02 31.97 80.85 118.69 30.73 118.69 153.9" style="fill:#fafafa"></polygon><path d="M122.88,25.1,29.18,79.24V210.66l93.7-54.14Zm-2.79,129.81L32,205.82v-125l88.12-50.91Z" style="fill:#f0f0f0"></path><polygon points="120.09 154.91 118.69 153.9 118.69 30.73 120.08 29.94 120.09 154.91" style="fill:#e0e0e0"></polygon><polygon points="122.88 25.1 121.48 24.3 27.78 78.44 29.18 79.24 122.88 25.1" style="fill:#fafafa"></polygon><polygon points="27.78 78.44 29.18 79.24 29.18 210.66 27.78 209.85 27.78 78.44" style="fill:#e0e0e0"></polygon><polygon points="31.97 142.29 118.69 92.14 120.09 92.98 31.97 143.89 31.97 142.29" style="fill:#fafafa"></polygon><polygon points="120.09 92.98 120.09 96.1 31.97 147.01 31.97 143.89 120.09 92.98" style="fill:#f0f0f0"></polygon></g><g id="freepik--Blinds--inject-277"><path d="M32,119.64v3.72L119.42,72.8l-.73-3.27Zm0-5.21v3.73l87.45-50.57-.73-3.27Zm0,10.42v3.72L119.42,78l-.73-3.27Zm0,5.21v3.72l87.45-50.57-.73-3.27Zm86.72-97L32,83.19v3.72l87.45-50.57ZM32,93.6v3.72l87.45-50.56-.73-3.27Zm0,15.63V113l87.45-50.57-.73-3.27Zm0-10.42v3.72L119.42,52l-.73-3.27Zm0-10.42v3.73l87.45-50.57-.73-3.27ZM32,104v3.72l87.45-50.57-.73-3.27Z" style="fill:#ebebeb"></path><path d="M118.69,33.07,32,83.19v1.49l87-50.31ZM32,88.39v1.5l87-50.31-.29-1.3Zm0,5.21v1.5l87-50.31-.29-1.3Zm0,5.21v1.5L119,50l-.29-1.3ZM32,104v1.49L119,55.2l-.29-1.3Zm0,5.21v1.49l87-50.31-.29-1.3Zm0,5.2v1.5l87-50.31-.29-1.3Zm0,5.21v1.5l87-50.32-.29-1.29Zm0,5.21v1.49L119,76l-.29-1.3Zm0,5.21v1.49l87-50.31-.29-1.3Z" style="opacity:0.2"></path></g></g></g><g id="freepik--character-2--inject-277"><g id="freepik--Character--inject-277"><g id="freepik--Bottom--inject-277"><g id="freepik--bottom--inject-277"><polygon points="407.65 404.4 404.26 402.66 407.65 401.76 407.65 404.4" style="fill:#263238"></polygon><path d="M373.64,410.26s40.62-17.76,41.08-15a4.06,4.06,0,0,1,0,1.64c0-.05.08-.09.11-.14l-.82,5.09a11.94,11.94,0,0,1-6.32,2.56v-2.64a20.57,20.57,0,0,0-3.59,1.85c-2.61,1.69-4.32,4.68-7.12,8.14-2,2.52-5.62,3.66-10.91,4.34-5.7.73-10.7-.44-12.09-2C372.83,412.85,373.43,410.61,373.64,410.26Z" style="fill:#263238"></path><path d="M374.76,409.33c.4-.41,1.86-2,3.83-3.69a75.59,75.59,0,0,1,5.9-4.91,23.46,23.46,0,0,0,2.93-2.36c.71-.75,1.4-1.53,2-2.35a44.88,44.88,0,0,0,5-8.24,19.86,19.86,0,0,0,1.76-4.34,29.29,29.29,0,0,0,.55-4.84c.15-7.33,0-8.5.06-14.07l17,.8c-.6,3.09-1.51,7.3-1.86,10.81-.52,5.33-.68,6.52,1.32,11.87.58,1.58,1.47,3.1,1.53,4.78.09,2.74-2.08,5.07-4.49,6.37-2,1.08-4.27,1.52-6.21,2.68a19.72,19.72,0,0,0-5.09,4.89c-1.39,1.73-2.51,3.78-4.43,5a17.75,17.75,0,0,1-6.61,2.2,35.61,35.61,0,0,1-8.84.32C375,413.84,371.9,412.26,374.76,409.33Z" style="fill:#9e6767"></path><path d="M390.64,401.19a7.57,7.57,0,0,0-6.25-.66c-3,2.33-5.51,4.4-7.27,5.85-2.13,1.75-4,3.36-4,5.4.08,3.22,12.46,4.36,19.43,1.41a8.63,8.63,0,0,0,5-4.24S396.59,404.44,390.64,401.19ZM414.37,390c-1-2.08-1.42-3.14-1.42-3.14-2.43,1.28-6.7,7.28-4.87,13.39a9.24,9.24,0,0,0,6.14-4.06A5.86,5.86,0,0,0,414.37,390Z" style="fill:#37474f"></path><path d="M444.26,395.59c-1.18,1.81.16,8.77-.21,13.69-.33,4.47-1.69,12.26-.4,16.71,1.52,5.28,4.7,11.43,11,6.65,3.88-3,6.15-6.86,6.81-13.29.46-4.48-1.2-10.71-2.62-16.24-1.66-6.45-2.27-9.9-2.27-9.9Z" style="fill:#263238"></path><path d="M457.6,362.82c.23,10.46-1.14,17.77-1.35,24.46a46.54,46.54,0,0,0,.76,9.05c.79,4.29,2.15,10.25,2.72,13,.79,3.88,1.4,6.33,0,10.64a5.06,5.06,0,0,1-.46,1c-1.94,3.53-6.74,6.13-8.25,5.67a2.61,2.61,0,0,1-2.69.88,4.26,4.26,0,0,1-1-.35,5.19,5.19,0,0,1-2.46-3.34c-.09-.3-.16-.61-.23-.95-1-5.4-.11-8.86,0-11,.17-2.42.09-5.52,0-9.44s-.81-16.25-2.05-22.16c-.92-4.13-2.07-9.31-3.29-14.83Z" style="fill:#9e6767"></path><path d="M460.55,414.41c-3.71-1.73-14.55-2.18-16.39,3.06-.15,5-.25,8.34,2.8,12.73,4.05,5.83,9.62-.15,11.79-4S461,417.1,460.55,414.41Z" style="fill:#37474f"></path><path d="M446.33,226.09c5.08,9.58,9.18,17.66,10,42.7,1,28.27.5,39,.56,42.43s2.13,9.7,3.64,26.52-1.3,57.46-1.3,57.46-1.38,2.71-7.81,3.2c-5.93.45-9.36-1.7-9.36-1.7s-8.29-53.61-10.4-63.76-8.18-43.5-8.18-43.5l-4.24,26.93s1.68,9.29-.33,24-6,44.36-6,44.36a33.72,33.72,0,0,1-9,2.13,21.63,21.63,0,0,1-9.92-1.36s-3.72-60.1-3.49-76.8,2.39-58.31,8-82.95Z" style="fill:#455a64"></path><path d="M401.39,249.75c2.43,6.93,11.52,11.88,15.53,12.9l4.37,26.4-2,27.32,4.24-26.93-4.85-32.17S407.51,256.32,401.39,249.75Zm38.23-2.84c.63,2.72,1.18,5.45,1.78,8.18s1.18,5.47,1.82,8.23a54.34,54.34,0,0,0-.45-8.46,84.4,84.4,0,0,0-1.41-8.34,74.74,74.74,0,0,0-2.3-8.15,40.44,40.44,0,0,0-3.52-7.72c.8,2.71,1.52,5.41,2.19,8.11S439,244.18,439.62,246.91Zm4.82-5.15c.89,1.64,1.73,3.31,2.57,5l2.5,5.09a22.54,22.54,0,0,0-1.21-5.63,37.31,37.31,0,0,0-2.29-5.27,40.07,40.07,0,0,0-3-4.87,29.79,29.79,0,0,0-3.76-4.34c.81,1.75,1.71,3.42,2.59,5.08S443.58,240.1,444.44,241.76Zm-5.24,76.17c-1.49-8.67-2.52-17.43-3.53-26.19s-2-17.55-3.05-26.32c.41,8.83.92,17.65,1.67,26.45s1.69,17.61,3.16,26.36,3.17,17.38,4.87,26,3.46,17.32,5.36,26q-1.83-13.12-4-26.2C442.27,335.32,440.74,326.59,439.2,317.93ZM399.43,288l1.75-23c-1.29,7.59-2.31,15.22-3.13,22.88s-1.56,15.3-1.69,23.09c.16,7.75.64,15.4,1.17,23.09s1.18,15.34,2,23q-.17-11.55-.6-23.08l-.42-11.52c-.14-3.84-.32-7.69-.35-11.5s.27-7.63.5-11.46S399.16,291.83,399.43,288Z" style="fill:#37474f"></path></g></g><g id="freepik--Top--inject-277"><path id="freepik--Chest--inject-277" d="M452,239.32c5.12-2.41-.48-5.79-1.6-21.46-.28-4,1.07-14.05,1.07-14.05s-8.73-10.63-6.37-30.12l-17.62-2-11.37.09L408.87,174c-2.45,2.2-6.95,5.68-10.51,10.95-5.15,7.6-5.92,15.86-.37,21.91.08,1.19-.7,19.52-2.19,24-1.39,4.16-1.69,4.63.55,6.48C403.4,242.44,442.92,242.8,452,239.32Z" style="fill:#fafafa"></path><g id="freepik--Arm--inject-277"><path d="M406.26,174.21c-7,.6-8.76,3.88-17.67,16.43-8.25,11.59-12.62,18.1-12.62,18.1s-20.77-8-22.67-9.36-2.86-5.53-5.15-8-4.38-4.2-6.1-5.91-3.81.95-1.71,4,3.05,4.77,2.47,5-7.62-3.43-9.34-7.25-2.62-2.67-3.69-2.67c0,0-1.09-2.39-3-1.44-.54.27-.73.64-.37,3.16a2.56,2.56,0,0,0-1.91,2.67,14.93,14.93,0,0,0,1.15,4.95s-1,1.72,1.33,5.34,7.64,6.82,14.12,9.11,8.33,3.92,16.14,8.5a185.94,185.94,0,0,0,17.87,9.59c6.6,2.84,9.06.39,13-3.8,4.89-5.19,16.12-18.73,16.12-18.73Z" style="fill:#9e6767"></path><path d="M369.52,206.12l-5.3-2.18s1.46,2.58-.44,7.54-5.25,6.18-5.25,6.18l5.93,3.4s2.63-1.22,4.82-5.4S369.52,206.12,369.52,206.12Z" style="fill:#fafafa"></path><path d="M406.1,173.14c-8.48,1.21-9.87,4.76-13.91,10.58-4.43,6.39-16.2,24.52-16.2,24.52l-7.82-2.9s2.82,2.59.48,8.48-6,6.53-6,6.53,6.61,3.79,11.3,6,7.82,2.75,11.86-.89,18.8-21.22,18.8-21.22Z" style="fill:#66C02E"></path><path d="M406.1,173.14c-8.48,1.21-9.87,4.76-13.91,10.58-4.43,6.39-16.2,24.52-16.2,24.52l-7.82-2.9s2.82,2.59.48,8.48-6,6.53-6,6.53,6.61,3.79,11.3,6,7.82,2.75,11.86-.89,18.8-21.22,18.8-21.22Z" style="opacity:0.15"></path></g><path d="M416.1,171.82l-7.23,1.24c-6.86,5.41-15,15.09-15.27,22.42a38.38,38.38,0,0,0,1.28,12.25s.79,15.17-.75,23.06-5.14,27-5.14,27a23,23,0,0,0,9.78,5.55c1.58-10.11,5.21-48.29,4.78-57.16S402.65,183.29,416.1,171.82Z" style="fill:#66C02E"></path><path d="M416.1,171.82l-7.23,1.24c-6.86,5.41-15,15.09-15.27,22.42a38.38,38.38,0,0,0,1.28,12.25s.79,15.17-.75,23.06-5.14,27-5.14,27a23,23,0,0,0,9.78,5.55c1.58-10.11,5.21-48.29,4.78-57.16S402.65,183.29,416.1,171.82Z" style="opacity:0.30000000000000004"></path><path d="M402.54,210.32c-.62-2.34-1.3-4.67-2-7s-1.36-4.65-2-7a27.79,27.79,0,0,1-.74-3.51c-.2-1.1.57-2.05,1.34-2.94a32.81,32.81,0,0,1,5.47-4.61l.18-.13,0-.22a11.77,11.77,0,0,1-.07-3.84,10.28,10.28,0,0,1,1.26-3.66,11.61,11.61,0,0,1,2.67-2.84,17.75,17.75,0,0,1,3.38-2.08,16.15,16.15,0,0,0-3.53,1.87,10.76,10.76,0,0,0-2.89,2.82,10.38,10.38,0,0,0-1.46,3.79,11.25,11.25,0,0,0,0,4.09l.13-.34a31.1,31.1,0,0,0-5.65,4.68,7.56,7.56,0,0,0-1.11,1.54,2.28,2.28,0,0,0-.2.45,2,2,0,0,0-.15.49,3.43,3.43,0,0,0,0,1,28.31,28.31,0,0,0,.8,3.59c.64,2.35,1.43,4.64,2.2,6.94S401.74,208,402.54,210.32Z" style="opacity:0.2"></path><path d="M435.36,172.61s-3,4-6.81,13.31-7.56,17.79-7.31,26.35,4,57.7,4,57.7a178,178,0,0,0,23-1.68l-.49-14.44,4.51,11.9s2.45-.74,8.46-3.28c-3.46-14.1-8.19-30.53-8.65-39s-1.28-48.78-1.28-48.78Z" style="fill:#66C02E"></path><path d="M435.36,172.61s-3,4-6.81,13.31-7.56,17.79-7.31,26.35,4,57.7,4,57.7a178,178,0,0,0,23-1.68l-.49-14.44,4.51,11.9s2.45-.74,8.46-3.28c-3.46-14.1-8.19-30.53-8.65-39s-1.28-48.78-1.28-48.78Z" style="opacity:0.30000000000000004"></path><path d="M422.91,214.78a19.84,19.84,0,0,1,3.24-6c1.34-1.85,2.81-3.6,4.32-5.31.74-.87,1.51-1.72,2.27-2.57l1.16-1.28c.19-.23.38-.42.58-.68a2.07,2.07,0,0,0,.15-.2c.05-.11.1-.22.14-.33a2.9,2.9,0,0,0,.05-.58,10.59,10.59,0,0,0-1.27-3.38c-.57-1-1.17-2-1.83-3l0,.57,3.43-3.62,1.7-1.82.43-.46.21-.23a2.68,2.68,0,0,0,.29-.37,1.85,1.85,0,0,0,.07-.78c0-.22-.05-.44-.08-.65a38.08,38.08,0,0,0-1.3-4.88c-.53-1.59-1.06-3.17-1.67-4.73.43,1.62.88,3.23,1.28,4.84a49.5,49.5,0,0,1,1,4.86,3.07,3.07,0,0,1,0,1.05c.06-.09,0,.05-.12.11l-.22.22-.44.44-1.77,1.79-3.52,3.6-.25.26.21.31c.61.94,1.2,1.92,1.73,2.92a10,10,0,0,1,1.2,3,2.16,2.16,0,0,1,0,.28.14.14,0,0,0,0,.07s-.07.09-.1.14c-.15.2-.36.42-.54.64l-1.13,1.29c-.75.86-1.51,1.73-2.24,2.61a66.94,66.94,0,0,0-4.12,5.55,28.11,28.11,0,0,0-1.72,3A12.36,12.36,0,0,0,422.91,214.78Z" style="opacity:0.2"></path><path d="M397,233.21c-2.12.28-4.35-.7-6.43-.9a31.3,31.3,0,0,0-5.47.22c-1.89.16-3.79.37-5.69.52-.47,0-.58.51-.53.93a2.7,2.7,0,0,0,1.32,1.9,6,6,0,0,0,2.26.73,15.34,15.34,0,0,0,2.13.2c.75,0,2.52.06,2.33,1.18Z" style="fill:#9e6767"></path><path d="M397,233.21a11.36,11.36,0,0,1-4.42-.3,18.17,18.17,0,0,0-2.16-.32,17.44,17.44,0,0,0-2.17,0c-1.45.08-2.93.23-4.41.3s-3,.16-4.43.17c1.46-.26,2.93-.46,4.39-.64s2.93-.35,4.42-.44a18.78,18.78,0,0,1,2.25,0,14.41,14.41,0,0,1,2.21.44c.72.19,1.42.39,2.14.54A8.82,8.82,0,0,0,397,233.21Z" style="fill:#874c4c"></path><path d="M372.68,245.93c.77.81,5.07.95,7.2.71a38.91,38.91,0,0,0,5-1s-2.72,2.7-5.35,3.32-5.41,0-6.64,1.54c-.73.89.63,1.43,1.3,1.64a16.89,16.89,0,0,0,1.86.29,1.29,1.29,0,0,0,.21,1.21,2.79,2.79,0,0,0,1,.54,12,12,0,0,0,5.55-.25c-1.15.58-1.92.67-2.44,1.28a1,1,0,0,0-.09,1.2c.26.45,1.18.32,1.69.25a20.24,20.24,0,0,0,7.87-2.33,18.66,18.66,0,0,0,3.31-1.75c.77-.61,2.79-2.47,3.9-3.44,2.84-2.5,4.59-2.92,6.06-3.13,11.21-1.62,22.39-5.06,35.68-7.26,7.08-1.17,7.4-3,9.68-9.17s3.12-12.17,6.51-22.75c4.54-14.14,9.22-24.12-2.48-28.35-5.07.1-10.11,9.46-12,18.08l-8.55,25s-15.68,7.38-22.24,9.42c-7.6,2.35-8.73,2.35-12.8,2.31L386.87,238c-.14.83-1.45,1.71-2,2.22-3.26,2.88-8.19,2.61-10.49,3.31S371.92,245.13,372.68,245.93Z" style="fill:#9e6767"></path><path d="M420.05,226.45l-6.22,2.8a16.15,16.15,0,0,1,2.83,7.18,28,28,0,0,1,0,7.43l8.34-2.08a24.25,24.25,0,0,0-1.49-9.14C421.74,228.08,420.05,226.45,420.05,226.45Z" style="fill:#fafafa"></path><path d="M376.09,252.39a34.51,34.51,0,0,0,6.61-.91,12.8,12.8,0,0,0,3-1.39l2.92-1.67a26.75,26.75,0,0,1-2.73,2,11.14,11.14,0,0,1-3.06,1.49A21.42,21.42,0,0,1,376.09,252.39Z" style="fill:#874c4c"></path><path d="M382.89,253.89a22,22,0,0,0,3.21-1.41c1-.51,2-1.15,3.09-1.68a14.1,14.1,0,0,1-2.89,2.07A8.75,8.75,0,0,1,382.89,253.89Z" style="fill:#874c4c"></path><path d="M450.72,174.71c5.25,1.23,9.82,4.49,10.29,10.45.23,2.84-.61,9-5.51,24.31s-6.17,21.2-7.84,24.69-2.07,3.78-8.79,5.23-18,3.69-18,3.69a19.79,19.79,0,0,0-.47-8.79c-1.34-5.16-2.61-6.94-2.61-6.94l13.63-6.44s7.06-21.81,8.82-27.6S446.38,175.56,450.72,174.71Z" style="fill:#66C02E"></path><path d="M450.72,174.71c5.25,1.23,9.82,4.49,10.29,10.45.23,2.84-.61,9-5.51,24.31s-6.17,21.2-7.84,24.69-2.07,3.78-8.79,5.23-18,3.69-18,3.69a19.79,19.79,0,0,0-.47-8.79c-1.34-5.16-2.61-6.94-2.61-6.94l13.63-6.44s7.06-21.81,8.82-27.6S446.38,175.56,450.72,174.71Z" style="opacity:0.15"></path><g id="freepik--Head--inject-277"><g id="freepik--head--inject-277"><g id="freepik--head--inject-277"><path d="M434.75,160.15a5.84,5.84,0,0,0,5.19-2.19c2.68-3.14,2.83-6.25,1.47-8.28-1.12-1.66-3.77-2.66-5.57-1.45s-1.95,2.3-2.65,3.71-1.94.1-1.48-5.51c-2-6.49-4.72-8.66-7.35-10.94-3.94-3.4-7.33-2.84-9.66-2.76-2-.68-4-1.09-6.58.4s-4.42,5.44-5,15.39c-.58,10.15,1.76,17.24,4.13,18.87a11.63,11.63,0,0,0,7.89,2l-.25,5.38s-7.88,12.08,5,9.48a18,18,0,0,0,12-9l.67-16.61S432.78,159.84,434.75,160.15Z" style="fill:#9e6767"></path><path d="M418.63,148.9a1.67,1.67,0,1,0,1-2.18A1.7,1.7,0,0,0,418.63,148.9Z" style="fill:#263238"></path><path d="M405.46,144.59l3.49-1.93a1.91,1.91,0,0,0-2.65-.84A2.1,2.1,0,0,0,405.46,144.59Z" style="fill:#263238"></path><path d="M409.75,148.66a1.67,1.67,0,1,1-1.05-2.17A1.7,1.7,0,0,1,409.75,148.66Z" style="fill:#263238"></path><path d="M419.8,142.87l3.69,2.14a2,2,0,0,0-.69-2.89A2.24,2.24,0,0,0,419.8,142.87Z" style="fill:#263238"></path><path d="M420.15,157.23,414.64,159a2.91,2.91,0,0,0,3.89,1.79A2.72,2.72,0,0,0,420.15,157.23Z" style="fill:#874c4c"></path><path d="M417,160.92a3,3,0,0,1,3.06-2.68l.28,0a2.56,2.56,0,0,1-1.76,2.5A3.34,3.34,0,0,1,417,160.92Z" style="fill:#ffa8a7"></path><polygon points="415.13 145.42 414.32 155.39 408.86 153.49 415.13 145.42" style="fill:#874c4c"></polygon></g><path d="M431.71,146.43c-2.31-6.43-8-12.77-16.78-13.24a10.21,10.21,0,0,0-8.68,3.33,10.37,10.37,0,0,0-2.36,5.2,64.29,64.29,0,0,0-.83,11.42,25.82,25.82,0,0,1-.25-14.27c1.93-7.51,7-9.05,13.6-9.39S431.75,135.79,431.71,146.43Z" style="fill:#263238"></path></g><path d="M431.11,151.64s.36-11-4.95-16.25c-6.6-6.51-15.15-6.89-20.65-.7-2,2.25-3.83,9.81-2.45,18.45A49.76,49.76,0,0,1,401.51,142c.08-12.89,10.1-19.32,20.52-19.51s18.37,4.53,21.84,13.62c2.16,5.67,2.27,13.6,2.38,21.56.15,11.29,3.8,17,3.8,17a21.91,21.91,0,0,0-2.65.81,13.47,13.47,0,0,1-7.14.54c-7.31-1.56-9.47-8.38-9.29-17Z" style="fill:#66C02E"></path><path d="M431.11,151.64s.36-11-4.95-16.25c-6.6-6.51-15.15-6.89-20.65-.7-2,2.25-3.83,9.81-2.45,18.45A49.76,49.76,0,0,1,401.51,142c.08-12.89,10.1-19.32,20.52-19.51s18.37,4.53,21.84,13.62c2.16,5.67,2.27,13.6,2.38,21.56.15,11.29,3.8,17,3.8,17a21.91,21.91,0,0,0-2.65.81,13.47,13.47,0,0,1-7.14.54c-7.31-1.56-9.47-8.38-9.29-17Z" style="fill:#fff;opacity:0.4"></path><path d="M431,160.25c-.38,1.79-1.92,4.32-5.13,6.27-4.16,2.52-7.25,2.49-10.34,2.62a10.79,10.79,0,0,1-8.15-2.91c-1.7-1.53-3.85-6.34-4.14-10.43-.87,10.09-2.39,11.07-.5,15.28s1.89,6.32,1.89,6.32-1.87,10.63,10.23,12,19.29-4.27,25.44-13.43C433.45,174,431,168.23,431,160.25Z" style="fill:#66C02E"></path><path d="M431,160.25c-.38,1.79-1.92,4.32-5.13,6.27-4.16,2.52-7.25,2.49-10.34,2.62a10.79,10.79,0,0,1-8.15-2.91c-1.7-1.53-3.85-6.34-4.14-10.43-.87,10.09-2.39,11.07-.5,15.28s1.89,6.32,1.89,6.32-1.87,10.63,10.23,12,19.29-4.27,25.44-13.43C433.45,174,431,168.23,431,160.25Z" style="fill:#fff;opacity:0.6000000000000001"></path><path d="M440.26,176c-.48.72-1,1.41-1.48,2.09-8.79-2.18-8.87-13.35-8.06-17a5.52,5.52,0,0,0,.24-.8C431,168.23,433.45,174,440.26,176Z" style="fill:#66C02E;opacity:0.6000000000000001"></path><path d="M431.29,164.78a16.2,16.2,0,0,1-13.38,9.72c4.36,1.72,11.19-1.94,14.27-6.1Z" style="fill:#66C02E;opacity:0.6000000000000001"></path><path d="M404.37,173.63c4.23,8,16.26,9.2,26.62,4.48C425.74,184.15,408.55,187.41,404.37,173.63Z" style="fill:#66C02E;opacity:0.6000000000000001"></path></g></g></g></g><g id="freepik--Symbols--inject-277"><g id="freepik--Exclamation--inject-277"><path d="M385.75,151a1.1,1.1,0,0,1,.21,1.51l-3,4a1.1,1.1,0,0,1-1.51.21l-3.22-2.42a1.09,1.09,0,0,1-.42-.71,1,1,0,0,1,.21-.8l3-4a1.07,1.07,0,0,1,.71-.42,1,1,0,0,1,.8.21Zm-6.86-5.16a1,1,0,0,1,.41.71,1.08,1.08,0,0,1-.2.8l-3,4a1,1,0,0,1-.71.41,1,1,0,0,1-.8-.2l-13.75-10.35a1.06,1.06,0,0,1-.41-.72,1,1,0,0,1,.2-.79l3-4a1,1,0,0,1,.71-.42,1.08,1.08,0,0,1,.8.2Z" style="fill:#66C02E"></path><path d="M392.44,138.44a1,1,0,0,1,0,.82,1,1,0,0,1-.58.58l-4.67,1.9a1.06,1.06,0,0,1-.82,0,1,1,0,0,1-.58-.59l-1.52-3.74a1.08,1.08,0,0,1,.6-1.4l4.66-1.89a1,1,0,0,1,.82,0,1,1,0,0,1,.58.58Zm-3.23-8a1,1,0,0,1,0,.83,1.06,1.06,0,0,1-.58.58L384,133.78a1.09,1.09,0,0,1-1.41-.59l-6.47-16a1.09,1.09,0,0,1,.6-1.41l4.66-1.89a1,1,0,0,1,.82,0,1,1,0,0,1,.58.58Z" style="fill:#66C02E"></path><g style="opacity:0.30000000000000004"><path d="M392.44,138.44a1,1,0,0,1,0,.82,1,1,0,0,1-.58.58l-4.67,1.9a1.06,1.06,0,0,1-.82,0,1,1,0,0,1-.58-.59l-1.52-3.74a1.08,1.08,0,0,1,.6-1.4l4.66-1.89a1,1,0,0,1,.82,0,1,1,0,0,1,.58.58Zm-3.23-8a1,1,0,0,1,0,.83,1.06,1.06,0,0,1-.58.58L384,133.78a1.09,1.09,0,0,1-1.41-.59l-6.47-16a1.09,1.09,0,0,1,.6-1.41l4.66-1.89a1,1,0,0,1,.82,0,1,1,0,0,1,.58.58Z" style="fill:#fff"></path></g></g></g><g id="freepik--character-1--inject-277"><g id="freepik--character--inject-277"><g id="freepik--bottom--inject-277"><g id="freepik--Leg--inject-277"><path d="M70.39,408.9a3.52,3.52,0,0,1-1.53,2.94,16.47,16.47,0,0,1-12.22,1c-4.6-1.42-6.68-3.82-7.58-7s-.66-6.66.63-10.86c.84-2.72.26-6.42-.08-9.18-.58-4.71-.14-7.54,1.39-9.71a6.67,6.67,0,0,1,7.58-2.53l-.91,32.34Z"></path><path d="M64.72,394.55c0,4.25.94,5.78,2.8,8.29,1.63,2.21,5.87,5.7.44,8.37-4.23,2.08-14.75,1.85-17.55-5.15-2.18-5.44,1.1-10.53.29-17.66-.54-4.78-.12-13.13,5.43-14.41,3-.7,4-.64,8.78,1.79,3.31,1.69,3.59,2.45,3.46,2.9l-.81-.37A6.05,6.05,0,0,0,61.24,381c-1.92,3-2.15,7.43-.09,10.35Z" style="fill:#263238"></path><path d="M60.38,380.63c2.65-4.79,6.23-4.47,6.23-4.47L84,385s-7-12.69-9.15-20.28-1.34-17.54-.12-22.58l26.93,2s21,42.91,23.72,57.87c1.61,8.82.72,15-3.44,18.3-7,5.63-15.2,3.21-28.11-4.56-13.06-7.85-33.64-20-33.64-20S56.2,388.19,60.38,380.63Z" style="fill:#455a64"></path><path d="M93.78,415.78c-13.06-7.85-33.64-20-33.64-20s-3.94-7.59.24-15.15c2.63-4.75,6.16-4.48,6.23-4.47h0L84,385h0s-3.2-5.77-5.93-11.85v0h0l-.33-.74v-.05c-.11-.24-.21-.48-.31-.72l0,0c-.48-1.13-.94-2.25-1.35-3.34l0-.06c-.14-.36-.26-.71-.39-1.05l23.84-7.48c.28,8-8.2,15.29-8.2,15.29s7.08,23,11.36,34.17c3.36,8.74,11.11,11.33,16.69,10a8.68,8.68,0,0,0,6.45-5.52h0a14,14,0,0,1-.56,2.05h0a8.75,8.75,0,0,1-.37.94l0,0c-.13.28-.27.56-.41.83l-.07.11c-.14.24-.28.48-.44.7l-.15.21-.42.55-.31.33c-.11.12-.22.25-.34.37a9,9,0,0,1-.73.64,15.43,15.43,0,0,1-2.7,1.74,13.11,13.11,0,0,1-2.12.83,12,12,0,0,1-1.47.33,14.47,14.47,0,0,1-2.3.18h0c-.5,0-1,0-1.52-.08a20.78,20.78,0,0,1-3.46-.66c-.89-.24-1.8-.54-2.75-.89-.63-.24-1.27-.5-1.93-.78a84.33,84.33,0,0,1-9.84-5.23Z" style="fill:#37474f"></path><path d="M84.75,395.68c-5.13-6.57-19.31-15.57-22.43-17.62a6,6,0,0,1,4.29-1.9h0l8.67,4.41L84,385s8.37,18.12,15.19,20.88A32.29,32.29,0,0,1,84.75,395.68Z" style="opacity:0.15"></path></g><g id="freepik--Le--inject-277"><path d="M48.07,422.48a3.55,3.55,0,0,1-1.53,2.93,16.53,16.53,0,0,1-12.22,1c-4.6-1.43-6.68-3.83-7.58-7s-.66-6.66.63-10.86c.83-2.72.26-6.41-.08-9.18-.58-4.71-.14-7.54,1.39-9.71a6.66,6.66,0,0,1,7.58-2.53l-.91,32.34Z" style="fill:#263238"></path><path d="M42.4,408.13c0,4.24.94,5.77,2.8,8.28,1.63,2.21,5.87,5.7.44,8.37-4.23,2.08-14.75,1.86-17.55-5.15-2.18-5.44,1.1-10.53.29-17.66-.54-4.78-.12-13.13,5.43-14.41,3-.7,4-.64,8.78,1.79,3.31,1.69,3.58,2.46,3.46,2.9l-.81-.37a6.05,6.05,0,0,0-6.32,2.71c-1.92,3-2.16,7.43-.1,10.35Z" style="fill:#37474f"></path><path d="M37.43,394a7.26,7.26,0,0,1,8.7-3.77l13,7.17S51.57,385,48.7,377.66c-3.41-8.69-6-13.85-4.44-26.42l36.45-.61L102,348.42c-.62,17.68-15.47,26-15.47,26s11.75,29,14.11,38.82c2.22,9.23.65,16.18-3.51,19.51-7,5.62-16.19,4.74-29.1-3s-31.36-20.8-31.36-20.8A16.91,16.91,0,0,1,37.43,394Z" style="fill:#455a64"></path><path d="M60,408.08c-8-10.92-15.07-15.45-18.74-17.68a7.88,7.88,0,0,1,4.92-.18h0l13,7.17s8.38,18.12,15.2,20.88A29.27,29.27,0,0,1,60,408.08Z" style="fill:#37474f"></path></g></g><g id="freepik--top--inject-277"><g id="freepik--arm--inject-277"><path d="M94.1,280.26c7.1.6,8.85,3.92,17.87,16.61,8.34,11.73,12.76,18.31,12.76,18.31s21-8.12,22.94-9.47,2.89-5.59,5.2-8.09,4.44-4.24,6.17-6,3.86,1,1.74,4.05-3.09,4.82-2.51,5,7.71-3.47,9.45-7.32,2.65-2.7,3.74-2.7c0,0,1.1-2.43,3-1.46.55.27.73.64.37,3.19a2.59,2.59,0,0,1,1.93,2.7,15.22,15.22,0,0,1-1.16,5s1,1.74-1.35,5.4-7.73,6.9-14.28,9.21-8.42,4-16.32,8.6A187.23,187.23,0,0,1,125.6,333c-6.68,2.88-9.17.4-13.15-3.84-5-5.26-16.31-18.95-16.31-18.95Z" style="fill:#ffa8a7"></path><path d="M94.26,279.17c8.58,1.22,10,4.81,14.07,10.7,4.48,6.47,16.38,24.81,16.38,24.81l7.92-2.94s-2.86,2.62-.49,8.57,6,6.61,6,6.61-6.69,3.84-11.43,6-7.92,2.78-12-.9-19-21.46-19-21.46Z" style="fill:#37474f"></path></g><g id="freepik--chest--inject-277"><path d="M104.07,302.38c1.17-16.39-5.88-20.75-9.81-23.21l-18.68-3.41c-4,.35-12,4.2-21.79,8.86C51,286,49.88,287.47,48,297.45c-1.49,8.1-2.42,15.4-3.24,30.2-.52,9.52-1,19.32-1,30.67,10.47,5.61,45.25,3.21,59.71-10.17-.8-2.57-.88-12.78-.73-17.68C103.2,316.9,103.7,307.54,104.07,302.38Z" style="fill:#263238"></path><g id="freepik--head--inject-277"><path d="M70.06,271.86c-.85-4.3-5.27-8.68-7.31-12.4-2-3.57-3.15-6.36-3-9.78.07-2,1.27-4.8,2.75-5.41-.39-7.39,7.42-11.74,17.21-13s15,3.3,17.48,6.06A10.91,10.91,0,0,1,100,244.2c0,1,0,2.66-.8,3.3-.18.14-.58-.05-.74.12s-.14.78-.19,1a4.66,4.66,0,0,1-.69,1.94,7.1,7.1,0,0,1-2.41,2.31c-3.15,1.6-6.66,2.19-10.07,3l-4,.95c-.24.06-1.47.17-1.61.38Z" style="fill:#263238"></path><path d="M64.85,266.46a4.17,4.17,0,0,0,5.08-.29l-.79,13c2.55,5.82,11.08,7,17.68,13.45,0,0,2.58-4.24.46-12.64l.39-4.36a41.63,41.63,0,0,0,5.13-.37,8.85,8.85,0,0,0,7-6.92c.91-3.86.67-10.12-.29-14.69a12.85,12.85,0,0,1-.28-3.55,16.81,16.81,0,0,0-1.26-7.6c-3.81-2.9-12.45-3.68-20.35,1.42,1.06,4.76-.7,8.6-4.13,10.52.2,1.28.45,4.54-1.67,4.54-1.53,0-1.69-1.92-3.3-3.56s-5.29-2-6.64.53A8.25,8.25,0,0,0,64.85,266.46Z" style="fill:#ffa8a7"></path><polygon points="89.07 251.57 97.05 259.04 91.41 261.65 89.07 251.57" style="fill:#f28f8f"></polygon><path d="M84.49,249.41,81.18,251a1.93,1.93,0,0,1,.87-2.54A1.81,1.81,0,0,1,84.49,249.41Z" style="fill:#263238"></path><path d="M98,250.18l-3.29-1.75a1.79,1.79,0,0,1,2.46-.82A2,2,0,0,1,98,250.18Z" style="fill:#263238"></path><path d="M87.67,275.62c-5.39-.49-9.65-1-12.56-4.82a33.59,33.59,0,0,1-3.41-6.28,26.22,26.22,0,0,0,2.52,7.92c1.42,2.44,4.84,4.62,13.28,5.11Z" style="fill:#f28f8f"></path><path d="M85.71,254.51a1.52,1.52,0,1,1-1.63-1.46A1.56,1.56,0,0,1,85.71,254.51Z" style="fill:#263238"></path><path d="M84.11,263.43l6,1.61a3.27,3.27,0,0,1-3.93,2.25A3,3,0,0,1,84.11,263.43Z" style="fill:#b16668"></path><path d="M87.93,267.25A3.69,3.69,0,0,0,84,264.31a3,3,0,0,0,2.22,3A3,3,0,0,0,87.93,267.25Z" style="fill:#f28f8f"></path><path d="M97.68,253.93a1.51,1.51,0,1,1-1.49-1.6A1.56,1.56,0,0,1,97.68,253.93Z" style="fill:#263238"></path></g><path d="M86.82,292.62c-1.69-2-1.34-3.66-5.11-5.39s-10.95-6.81-12.41-10.71l.15-2.39s-.53-.25-1.35.78-4,4.43-6.4,5.65c1.24,4.64,6.72,12.54,17.33,16.09.13-5.22,2.94-7.46,4.43-6.58S85.9,292.19,86.82,292.62Z" style="fill:#37474f"></path><path d="M86.82,292.62a20.3,20.3,0,0,0,.81-8.19,21.12,21.12,0,0,1-.35-4.45l.39-4.36a5.8,5.8,0,0,1,2.47,1.44,11.92,11.92,0,0,0,3.49,2,14.92,14.92,0,0,1,.47,14.1c-.58-5.14-4.82-5.53-5.42-4A10.79,10.79,0,0,1,86.82,292.62Z" style="fill:#37474f"></path></g><g id="freepik--arm--inject-277"><path d="M107,342c2.14.28,4.4-.71,6.5-.91a32,32,0,0,1,5.53.22c1.92.16,3.83.38,5.75.53.49,0,.6.51.55.94a2.75,2.75,0,0,1-1.35,1.92,6.06,6.06,0,0,1-2.28.74,17.36,17.36,0,0,1-2.16.21c-.75,0-2.54.05-2.35,1.19Z" style="fill:#ffa8a7"></path><path d="M107,342a11.44,11.44,0,0,0,4.47-.31,20.46,20.46,0,0,1,2.18-.32,17.94,17.94,0,0,1,2.2,0c1.47.07,3,.22,4.45.3s3,.16,4.48.17c-1.47-.27-3-.46-4.44-.65s-3-.35-4.47-.44a15.67,15.67,0,0,0-2.27,0,14.67,14.67,0,0,0-2.23.44c-.73.2-1.44.4-2.17.54A8.53,8.53,0,0,1,107,342Z" style="fill:#f28f8f"></path><path d="M129.86,352.42c-2.33-.71-7.32-.44-10.61-3.35-.6-.52-1.92-1.41-2.06-2.24L107,342c-4.12,0-5.26,0-13-2.34-6.63-2.06-22.5-9.52-22.5-9.52l-8.64-25.25c-1.95-8.72-7-18.18-12.18-18.29-11.84,4.28-7.1,14.38-2.51,28.68,3.43,10.7,4.27,16.77,6.59,23s2.62,8.09,9.79,9.27c13.44,2.23,24.75,5.71,36.09,7.35,1.48.21,3.25.63,6.12,3.16,1.13,1,3.17,2.87,4,3.48a18.13,18.13,0,0,0,3.35,1.77,20.53,20.53,0,0,0,8,2.36c.53.07,1.45.2,1.71-.25a1.05,1.05,0,0,0-.09-1.22c-.52-.61-1.3-.71-2.46-1.3a12.15,12.15,0,0,0,5.61.26,2.86,2.86,0,0,0,1-.55,1.29,1.29,0,0,0,.21-1.22,17.07,17.07,0,0,0,1.88-.29c.68-.22,2.06-.76,1.32-1.66-1.25-1.54-4-.95-6.71-1.56s-5.41-3.35-5.41-3.35a39.68,39.68,0,0,0,5.09,1c2.16.24,6.5.11,7.28-.71S132.19,353.12,129.86,352.42Z" style="fill:#ffa8a7"></path><path d="M128.09,361.39a34.34,34.34,0,0,1-6.68-.92,13.15,13.15,0,0,1-3-1.41l-3-1.68a31.75,31.75,0,0,0,2.76,2,11.49,11.49,0,0,0,3.09,1.5A21.68,21.68,0,0,0,128.09,361.39Z" style="fill:#f28f8f"></path><path d="M121.22,362.9a23,23,0,0,1-3.25-1.42c-1-.52-2-1.17-3.12-1.7a13.75,13.75,0,0,0,2.92,2.09A8.62,8.62,0,0,0,121.22,362.9Z" style="fill:#f28f8f"></path><path d="M53,284.94c-6,2.42-11.15,5.93-10.68,13.51.5,8.28,1.55,11.39,4.43,22.48,3.16,12.17,5.81,18.71,7.34,21.92S58.48,347,63.88,348s19.51,3.52,19.51,3.52-1-3,.69-8.89,4.6-5.6,4.6-5.6L72.1,329.82s-6-20.44-8.36-28.19S59.29,287.66,53,284.94Z" style="fill:#37474f"></path></g></g></g></g><g id="freepik--speech-bubble--inject-277"><g id="freepik--speech-bubble--inject-277"><g id="freepik--speech-bubble--inject-277"><path d="M81.56,144.47a32.74,32.74,0,1,0,32.73,32.74A32.77,32.77,0,0,0,81.56,144.47Zm0,62.53a29.79,29.79,0,1,1,29.78-29.79A29.83,29.83,0,0,1,81.56,207Z" style="fill:#455a64"></path><path d="M111.34,177.21a29.79,29.79,0,1,1-29.78-29.79A29.82,29.82,0,0,1,111.34,177.21Z" style="fill:#fff"></path><path d="M79.78,219l-4.19-10.82H87.52L83.33,219A1.9,1.9,0,0,1,79.78,219Z" style="fill:#455a64"></path></g><g id="freepik--Bulb--inject-277"><path d="M86.55,191h-10a.76.76,0,1,1,0-1.51h10a.76.76,0,1,1,0,1.51Z" style="fill:#455a64"></path><path d="M81.54,198.79A5.77,5.77,0,0,1,75.78,193a.76.76,0,0,1,.76-.76h10a.76.76,0,0,1,.76.76A5.77,5.77,0,0,1,81.54,198.79Z" style="fill:#455a64"></path><path d="M92.24,159.91a15.35,15.35,0,0,0-11.45-4.26,15.7,15.7,0,0,0-14.74,15.23,15.53,15.53,0,0,0,7.61,13.58A4.1,4.1,0,0,1,75.73,188a.65.65,0,0,0,.67.67H86.69a.67.67,0,0,0,.67-.67,4.14,4.14,0,0,1,2.06-3.53,15.59,15.59,0,0,0,7.63-13.34A15.38,15.38,0,0,0,92.24,159.91Z" style="fill:#66C02E"></path><g style="opacity:0.35000000000000003"><path d="M92.24,159.91a15.35,15.35,0,0,0-11.45-4.26,15.7,15.7,0,0,0-14.74,15.23,15.53,15.53,0,0,0,7.61,13.58A4.1,4.1,0,0,1,75.73,188a.65.65,0,0,0,.67.67H86.69a.67.67,0,0,0,.67-.67,4.14,4.14,0,0,1,2.06-3.53,15.59,15.59,0,0,0,7.63-13.34A15.38,15.38,0,0,0,92.24,159.91Z" style="fill:#fff"></path></g><path d="M90.13,174.32a1.51,1.51,0,0,0-1.5-1.06,3.69,3.69,0,0,0-2.75,1.79l-.12.17-.2-.07a7.65,7.65,0,0,1-2.28-1.22,8.19,8.19,0,0,1-1.06-1l-.16-.16.13-.18a4.65,4.65,0,0,0,1-3.86,1.74,1.74,0,0,0-3.27,0,4.65,4.65,0,0,0,1,3.86l.13.18-.16.16a8.19,8.19,0,0,1-1.06,1,7.77,7.77,0,0,1-2.28,1.22l-.2.07-.12-.17a3.69,3.69,0,0,0-2.75-1.79,1.51,1.51,0,0,0-1.5,1.06,1.22,1.22,0,0,0,.55,1.42,3.63,3.63,0,0,0,2.06.53,7.24,7.24,0,0,0,1.2-.11l.19,0,.1.18a11.45,11.45,0,0,1,.86,2,27.24,27.24,0,0,1,.87,8.87c0,.51,0,1,0,1.49h.79c0-.49,0-1,0-1.51a27.87,27.87,0,0,0-.91-9.09,13.85,13.85,0,0,0-.77-1.88l-.14-.28.3-.11a8.74,8.74,0,0,0,2.23-1.24,9.66,9.66,0,0,0,1.06-.93l.19-.2.2.2a9.53,9.53,0,0,0,1.06.93A8.58,8.58,0,0,0,85,175.8l.3.11-.14.28a12.67,12.67,0,0,0-.77,1.88,27.63,27.63,0,0,0-.91,9.1c0,.51,0,1,0,1.5h.79c0-.49,0-1,0-1.54a27.31,27.31,0,0,1,.88-8.82,11.45,11.45,0,0,1,.86-2l.1-.18.19,0a7.14,7.14,0,0,0,1.2.11,3.65,3.65,0,0,0,2.06-.53A1.23,1.23,0,0,0,90.13,174.32ZM76,175.47h-.35A3.05,3.05,0,0,1,74,175.1c-.08-.07-.33-.25-.25-.53a.73.73,0,0,1,.75-.52,2.55,2.55,0,0,1,1.68.95l.4.43Zm5.58-3.3-.23-.38a3.68,3.68,0,0,1-.65-2.77.94.94,0,0,1,1.76,0,3.62,3.62,0,0,1-.64,2.77Zm7.59,2.93a3.09,3.09,0,0,1-1.66.37h-.34l-.58,0L87,175a2.55,2.55,0,0,1,1.68-.95.74.74,0,0,1,.75.51C89.47,174.85,89.21,175,89.13,175.1Z" style="fill:#fafafa"></path></g></g></g><g id="freepik--Blocks--inject-277"><g id="freepik--blocks--inject-277"><polygon points="316.88 419.95 347.74 402.13 347.74 378.37 316.88 396.19 316.88 419.95" style="fill:#37474f"></polygon><line x1="316.88" y1="396.19" x2="316.88" y2="419.95" style="fill:#37474f"></line><polygon points="316.88 396.19 224.28 342.73 224.28 366.49 316.88 419.95 316.88 396.19"></polygon><polygon points="347.74 378.37 255.14 324.91 224.28 342.73 316.88 396.19 347.74 378.37" style="fill:#455a64"></polygon><path d="M255.14,325.64l91.34,52.73-29.6,17.09-91.34-52.73,29.6-17.09m0-.73-30.86,17.82,92.6,53.46,30.86-17.82-92.6-53.46Z" style="fill:#263238"></path><polygon points="252 457.15 282.87 439.33 282.87 415.57 252 433.39 252 457.15" style="fill:#37474f"></polygon><line x1="252" y1="433.39" x2="252" y2="457.15" style="fill:#37474f"></line><polygon points="252 433.39 159.4 379.93 159.4 403.69 252 457.15 252 433.39" style="fill:#263238"></polygon><polygon points="282.87 415.57 190.27 362.11 159.4 379.93 252 433.39 282.87 415.57" style="fill:#455a64"></polygon><path d="M190.27,362.84l91.33,52.73L252,432.66l-91.33-52.73,29.6-17.09m0-.73L159.4,379.93,252,433.39l30.87-17.82-92.6-53.46Z" style="fill:#263238"></path><polygon points="222.71 409.61 191.84 391.79 191.84 368.03 222.71 385.85 222.71 409.61" style="fill:#263238"></polygon><line x1="222.71" y1="385.85" x2="222.71" y2="409.61" style="fill:#37474f"></line><polygon points="222.71 385.85 315.3 332.39 315.3 356.15 222.71 409.61 222.71 385.85"></polygon><polygon points="191.84 368.03 284.44 314.57 315.3 332.39 222.71 385.85 191.84 368.03" style="fill:#455a64"></polygon><path d="M284.44,315.3,314,332.39l-91.33,52.73L193.11,368l91.33-52.73m0-.73L191.84,368l30.87,17.82,92.59-53.46-30.86-17.82Z" style="fill:#263238"></path><polygon points="255.14 428.21 224.28 410.39 224.28 386.63 255.14 404.45 255.14 428.21" style="fill:#263238"></polygon><line x1="255.14" y1="404.45" x2="255.14" y2="428.21" style="fill:#37474f"></line><polygon points="255.14 404.45 347.74 350.99 347.74 374.75 255.14 428.21 255.14 404.45" style="fill:#37474f"></polygon><polygon points="224.28 386.63 316.88 333.17 347.74 350.99 255.14 404.45 224.28 386.63" style="fill:#455a64"></polygon><path d="M316.88,333.9,346.48,351l-91.34,52.73-29.6-17.09,91.34-52.73m0-.73-92.6,53.46,30.86,17.82L347.74,351l-30.86-17.82Z" style="fill:#263238"></path><polygon points="284.44 379.15 315.3 361.33 315.3 337.57 284.44 355.39 284.44 379.15" style="fill:#37474f"></polygon><line x1="284.44" y1="355.39" x2="284.44" y2="379.15" style="fill:#37474f"></line><polygon points="284.44 355.39 191.84 301.93 191.84 325.69 284.44 379.15 284.44 355.39"></polygon><polygon points="315.3 337.57 222.71 284.11 191.84 301.93 284.44 355.39 315.3 337.57" style="fill:#455a64"></polygon><path d="M222.71,284.84,314,337.57l-29.6,17.09-91.33-52.73,29.6-17.09m0-.73-30.87,17.82,92.6,53.46,30.86-17.82-92.59-53.46Z" style="fill:#263238"></path><polygon id="freepik--shadow--inject-277" points="273.92 384.77 273.92 392.69 260.14 418.78 159.4 397.55 159.4 389.64 260.14 410.86 273.92 384.77" style="opacity:0.30000000000000004"></polygon><g id="freepik--Block--inject-277"><polygon points="260.14 410.86 273.92 384.77 273.92 361.01 260.14 387.1 260.14 410.86" style="fill:#66C02E"></polygon><polygon points="260.14 410.86 273.92 384.77 273.92 361.01 260.14 387.1 260.14 410.86" style="fill:#fff;opacity:0.2"></polygon><line x1="260.14" y1="387.09" x2="260.14" y2="410.85" style="fill:#37474f"></line><polygon points="260.14 387.09 135.89 360.92 135.89 384.68 260.14 410.86 260.14 387.09" style="fill:#66C02E"></polygon><polygon points="260.14 387.09 135.89 360.92 135.89 384.68 260.14 410.86 260.14 387.09" style="opacity:0.30000000000000004"></polygon><polygon points="273.92 361.01 149.67 334.84 135.89 360.92 260.14 387.09 273.92 361.01" style="fill:#66C02E"></polygon></g><polygon points="190.27 331.61 159.4 313.79 159.4 290.03 190.27 307.85 190.27 331.61" style="fill:#263238"></polygon><line x1="190.27" y1="307.85" x2="190.27" y2="331.61" style="fill:#37474f"></line><polygon points="190.27 307.85 282.87 254.39 282.87 278.15 190.27 331.61 190.27 307.85" style="fill:#37474f"></polygon><polygon points="159.4 290.03 252 236.56 282.87 254.39 190.27 307.85 159.4 290.03" style="fill:#455a64"></polygon><path d="M252,237.3l29.6,17.09-91.33,52.73L160.67,290,252,237.3m0-.74L159.4,290l30.87,17.82,92.6-53.46L252,236.56Z" style="fill:#263238"></path><polygon points="255.14 368.81 224.28 350.99 224.28 327.23 255.14 345.05 255.14 368.81" style="fill:#263238"></polygon><line x1="255.14" y1="345.05" x2="255.14" y2="368.81" style="fill:#37474f"></line><polygon points="255.14 345.05 347.74 291.59 347.74 315.35 255.14 368.81 255.14 345.05" style="fill:#37474f"></polygon><polygon points="224.28 327.23 316.88 273.77 347.74 291.59 255.14 345.05 224.28 327.23" style="fill:#455a64"></polygon><path d="M316.88,274.5l29.6,17.09-91.34,52.73-29.6-17.09,91.34-52.73m0-.73-92.6,53.46,30.86,17.82,92.6-53.46-30.86-17.82Z" style="fill:#263238"></path><polygon points="284.44 319.75 315.3 301.93 315.3 278.17 284.44 295.99 284.44 319.75" style="fill:#37474f"></polygon><line x1="284.44" y1="295.99" x2="284.44" y2="319.75" style="fill:#37474f"></line><polygon points="284.44 295.99 191.84 242.53 191.84 266.29 284.44 319.75 284.44 295.99"></polygon><polygon points="315.3 278.17 222.71 224.71 191.84 242.53 284.44 295.99 315.3 278.17" style="fill:#455a64"></polygon><path d="M222.71,225.44,314,278.17l-29.6,17.09-91.33-52.73,29.6-17.09m0-.73-30.87,17.82L284.44,296l30.86-17.82-92.59-53.46Z" style="fill:#263238"></path><polygon points="190.27 272.21 159.4 254.38 159.4 230.63 190.27 248.44 190.27 272.21" style="fill:#263238"></polygon><line x1="190.27" y1="248.44" x2="190.27" y2="272.21" style="fill:#37474f"></line><polygon points="190.27 248.44 282.87 194.98 282.87 218.75 190.27 272.2 190.27 248.44"></polygon><polygon points="159.4 230.63 252 177.16 282.87 194.98 190.27 248.44 159.4 230.63" style="fill:#455a64"></polygon><path d="M252,177.89,281.6,195l-91.33,52.73-29.6-17.09L252,177.89m0-.73-92.6,53.46,30.87,17.82L282.87,195,252,177.16Z" style="fill:#263238"></path><polygon points="222.71 290.81 191.84 272.99 191.84 249.23 222.71 267.05 222.71 290.81" style="fill:#263238"></polygon><line x1="222.71" y1="267.05" x2="222.71" y2="290.81" style="fill:#37474f"></line><polygon points="222.71 267.05 315.3 213.59 315.3 237.35 222.71 290.81 222.71 267.05" style="fill:#37474f"></polygon><polygon points="191.84 249.23 284.44 195.76 315.3 213.59 222.71 267.05 191.84 249.23" style="fill:#455a64"></polygon><path d="M284.44,196.49l29.6,17.1-91.33,52.73-29.6-17.09,91.33-52.74m0-.73-92.6,53.47,30.87,17.82,92.59-53.46-30.86-17.83Z" style="fill:#263238"></path><polygon id="freepik--shadow--inject-277" points="338.52 286.26 347.74 291.59 256.72 317.15 238.14 295.1 238.14 287.04 256.72 309.09 338.52 286.26" style="opacity:0.30000000000000004"></polygon><polygon points="256.72 309.09 238.14 286.13 238.14 262.37 256.72 285.33 256.72 309.09" style="fill:#66C02E"></polygon><polygon points="256.72 309.09 238.14 286.13 238.14 262.37 256.72 285.33 256.72 309.09" style="fill:#fff;opacity:0.2"></polygon><line x1="256.72" y1="285.33" x2="256.72" y2="309.09" style="fill:#37474f"></line><polygon points="256.72 285.33 367.82 254.33 367.82 278.09 256.72 309.09 256.72 285.33" style="fill:#66C02E"></polygon><polygon points="256.72 285.33 367.82 254.33 367.82 278.09 256.72 309.09 256.72 285.33" style="opacity:0.30000000000000004"></polygon><polygon points="238.14 262.37 349.24 231.37 367.82 254.33 256.72 285.33 238.14 262.37" style="fill:#66C02E"></polygon><polygon points="284.44 261.44 315.3 243.62 315.3 219.86 284.44 237.68 284.44 261.44" style="fill:#37474f"></polygon><line x1="284.44" y1="237.68" x2="284.44" y2="261.44" style="fill:#37474f"></line><polygon points="284.44 237.68 191.84 184.22 191.84 207.98 284.44 261.44 284.44 237.68" style="fill:#263238"></polygon><polygon points="315.3 219.86 222.71 166.4 191.84 184.22 284.44 237.68 315.3 219.86" style="fill:#455a64"></polygon><path d="M222.71,167.13,314,219.86,284.44,237l-91.33-52.73,29.6-17.09m0-.73-30.87,17.82,92.6,53.46,30.86-17.82L222.71,166.4Z" style="fill:#263238"></path><polygon points="252 280.18 282.87 262.36 282.87 238.6 252 256.42 252 280.18" style="fill:#37474f"></polygon><line x1="252" y1="256.42" x2="252" y2="280.18" style="fill:#37474f"></line><polygon points="252 256.42 159.4 202.96 159.4 226.72 252 280.18 252 256.42" style="fill:#263238"></polygon><polygon points="282.87 238.6 190.27 185.14 159.4 202.96 252 256.42 282.87 238.6" style="fill:#455a64"></polygon><path d="M190.27,185.87,281.6,238.6,252,255.69,160.67,203l29.6-17.09m0-.73L159.4,203,252,256.42l30.87-17.82-92.6-53.46Z" style="fill:#263238"></path><polygon points="190.27 212.09 159.4 194.27 159.4 170.51 190.27 188.33 190.27 212.09" style="fill:#263238"></polygon><line x1="190.27" y1="188.33" x2="190.27" y2="212.09" style="fill:#37474f"></line><polygon points="190.27 188.33 282.87 134.87 282.87 158.63 190.27 212.09 190.27 188.33"></polygon><polygon points="159.4 170.51 252 117.05 282.87 134.87 190.27 188.33 159.4 170.51" style="fill:#455a64"></polygon><path d="M252,117.78l29.6,17.09L190.27,187.6l-29.6-17.09L252,117.78m0-.73-92.6,53.46,30.87,17.82,92.6-53.46L252,117.05Z" style="fill:#263238"></path><polygon points="255.93 249.52 225.06 231.7 225.06 207.94 255.93 225.76 255.93 249.52" style="fill:#263238"></polygon><line x1="255.93" y1="225.76" x2="255.93" y2="249.52" style="fill:#37474f"></line><polygon points="255.93 225.76 348.53 172.3 348.53 196.06 255.93 249.52 255.93 225.76" style="fill:#37474f"></polygon><polygon points="225.06 207.94 317.66 154.48 348.53 172.3 255.93 225.76 225.06 207.94" style="fill:#455a64"></polygon><path d="M317.66,155.21l29.6,17.09L255.93,225l-29.6-17.09,91.33-52.73m0-.73-92.6,53.46,30.87,17.82,92.6-53.46-30.87-17.82Z" style="fill:#263238"></path><polygon points="284.44 206.15 315.3 188.33 315.3 164.57 284.44 182.39 284.44 206.15" style="fill:#37474f"></polygon><line x1="284.44" y1="182.39" x2="284.44" y2="206.15" style="fill:#37474f"></line><polygon points="284.44 182.39 191.84 128.93 191.84 152.69 284.44 206.15 284.44 182.39" style="fill:#263238"></polygon><polygon points="315.3 164.57 222.71 111.11 191.84 128.93 284.44 182.39 315.3 164.57" style="fill:#455a64"></polygon><path d="M222.71,111.84,314,164.57l-29.6,17.09-91.33-52.73,29.6-17.09m0-.73-30.87,17.82,92.6,53.46,30.86-17.82-92.59-53.46Z" style="fill:#263238"></path></g></g><g id="freepik--Coin--inject-277"><g id="freepik--coin--inject-277"><g id="freepik--coin--inject-277"><path d="M276.34,47.55,279,42l-11.63-6.71h0A18.61,18.61,0,0,0,263,33.46c-.53-.14-1.08-.26-1.63-.36a21.62,21.62,0,0,0-8.18.23,28.93,28.93,0,0,0-3,.79,32.3,32.3,0,0,0-3.05,1.18,38.24,38.24,0,0,0-3.92,2A48.44,48.44,0,0,0,239.16,40c-1,.74-2,1.52-3,2.36-14.44,12.19-25.8,33.91-28.69,54.81-.2,1.42-.35,2.84-.46,4.25-.17,2-.26,4-.25,6,0,1.62.07,3.19.19,4.71.11,1.31.26,2.58.44,3.81s.42,2.4.69,3.53h0a34.16,34.16,0,0,0,3.38,9c.31.56.63,1.09,1,1.61a21.93,21.93,0,0,0,5.15,5.57,17.67,17.67,0,0,0,1.9,1.24h0l11,6.35,2.43-5.08c.65-.14,1.3-.31,2-.51a34.87,34.87,0,0,0,7.65-3.39,46.17,46.17,0,0,0,4.5-3,58.28,58.28,0,0,0,5.52-4.7c12.05-11.6,21.55-29.75,25-47.81a80.59,80.59,0,0,0,1.14-8c.2-2.22.3-4.42.29-6.58a55.5,55.5,0,0,0-.77-9.34A39.82,39.82,0,0,0,276.34,47.55Z" style="fill:#66C02E"></path><path d="M210.14,84.79l23.6,13.63,3.11-9L213.22,75.8C212.05,78.75,211,81.76,210.14,84.79Z" style="fill:#fff;opacity:0.25"></path><path d="M267.37,35.29h0A18.61,18.61,0,0,0,263,33.46c-.53-.14-1.08-.26-1.63-.36a21.62,21.62,0,0,0-8.18.23c-.36.07-.72.17-1.09.26l24.28,14a.14.14,0,0,0,0-.06L279,42Z" style="fill:#fff;opacity:0.25"></path><path d="M264.84,69.76,268,66,232.56,45.65q-1.68,1.66-3.3,3.5Z" style="fill:#fff;opacity:0.25"></path><path d="M221.74,59.17l30.66,17.7,3.38-8.82L227.23,51.56A84.93,84.93,0,0,0,221.74,59.17Z" style="fill:#fff;opacity:0.25"></path><path d="M267.37,35.29h0A18.61,18.61,0,0,0,263,33.46c-.53-.14-1.08-.26-1.63-.36a21.62,21.62,0,0,0-8.18.23,28.93,28.93,0,0,0-3,.79,32.3,32.3,0,0,0-3.05,1.18,38.24,38.24,0,0,0-3.92,2A48.44,48.44,0,0,0,239.16,40c-1,.74-2,1.52-3,2.36-13.45,11.35-24.23,31-28,50.5l49.24,28.43a96.06,96.06,0,0,0,20.13-42.56,80.59,80.59,0,0,0,1.14-8c.2-2.22.3-4.42.29-6.58a55.5,55.5,0,0,0-.77-9.34,39.82,39.82,0,0,0-1.89-7.22L279,42Z" style="fill:#fff;opacity:0.4"></path><path d="M230.49,143.19l2.43-5.08c.65-.14,1.3-.31,2-.51a34.87,34.87,0,0,0,7.65-3.39,46.17,46.17,0,0,0,4.5-3,58.28,58.28,0,0,0,5.52-4.7c1.68-1.62,3.31-3.39,4.89-5.25L208.2,92.84c-.28,1.44-.52,2.88-.72,4.31s-.35,2.84-.46,4.25c-.17,2-.26,4-.25,6,0,1.62.07,3.19.19,4.71.11,1.31.26,2.58.44,3.81s.42,2.4.69,3.53h0a34.16,34.16,0,0,0,3.38,9c.31.56.63,1.09,1,1.61a21.93,21.93,0,0,0,5.15,5.57,17.67,17.67,0,0,0,1.9,1.24h0Z" style="opacity:0.1"></path><path d="M211.47,128.42c.31.56.63,1.09,1,1.61a21.93,21.93,0,0,0,5.15,5.57,17.67,17.67,0,0,0,1.9,1.24h0l11,6.35,2.43-5.08.1,0,.18-2.08-24.46-14.12A32,32,0,0,0,211.47,128.42Z" style="opacity:0.1"></path><path d="M290.67,62A38.44,38.44,0,0,0,288,52.67a23.82,23.82,0,0,0-7.14-9.44,18.43,18.43,0,0,0-6.41-3.18c-.54-.14-1.08-.25-1.63-.35a21.47,21.47,0,0,0-8.19.22,26.49,26.49,0,0,0-2.95.8,29.66,29.66,0,0,0-3.05,1.17,37.24,37.24,0,0,0-3.92,2,46.23,46.23,0,0,0-4.08,2.69c-1,.73-2,1.52-3,2.35-14.44,12.19-25.81,33.92-28.69,54.81-.2,1.43-.36,2.84-.47,4.25-.17,2-.25,4-.24,6,0,1.62.06,3.19.19,4.7.1,1.32.25,2.58.44,3.81s.42,2.4.69,3.54h0a34.16,34.16,0,0,0,3.37,9c.32.56.64,1.1,1,1.61a21.25,21.25,0,0,0,5.15,5.57,18.27,18.27,0,0,0,10.18,3.65,23.63,23.63,0,0,0,8.13-1.06,34.87,34.87,0,0,0,7.65-3.39,46.17,46.17,0,0,0,4.5-3,58.28,58.28,0,0,0,5.52-4.7C277,122.1,286.53,104,290,85.89a80.59,80.59,0,0,0,1.14-8c.2-2.22.3-4.42.29-6.58A55.5,55.5,0,0,0,290.67,62Z" style="fill:#66C02E"></path><path d="M290.67,62A38.44,38.44,0,0,0,288,52.67a23.82,23.82,0,0,0-7.14-9.44,18.43,18.43,0,0,0-6.41-3.18c-.54-.14-1.08-.25-1.63-.35a21.47,21.47,0,0,0-8.19.22,26.49,26.49,0,0,0-2.95.8,29.66,29.66,0,0,0-3.05,1.17,37.24,37.24,0,0,0-3.92,2,46.23,46.23,0,0,0-4.08,2.69c-1,.73-2,1.52-3,2.35-14.44,12.19-25.81,33.92-28.69,54.81-.2,1.43-.36,2.84-.47,4.25-.17,2-.25,4-.24,6,0,1.62.06,3.19.19,4.7.1,1.32.25,2.58.44,3.81s.42,2.4.69,3.54h0a34.16,34.16,0,0,0,3.37,9c.32.56.64,1.1,1,1.61a21.25,21.25,0,0,0,5.15,5.57,18.27,18.27,0,0,0,10.18,3.65,23.63,23.63,0,0,0,8.13-1.06,34.87,34.87,0,0,0,7.65-3.39,46.17,46.17,0,0,0,4.5-3,58.28,58.28,0,0,0,5.52-4.7C277,122.1,286.53,104,290,85.89a80.59,80.59,0,0,0,1.14-8c.2-2.22.3-4.42.29-6.58A55.5,55.5,0,0,0,290.67,62Z" style="fill:#fff;opacity:0.1"></path><path d="M219.62,99.41c-.28,1.44-.52,2.89-.72,4.33s-.35,2.84-.47,4.25c-.17,2-.25,4-.24,6,0,1.62.06,3.19.19,4.7.1,1.32.25,2.58.44,3.81s.42,2.4.69,3.54h0a34.16,34.16,0,0,0,3.37,9c.32.56.64,1.1,1,1.61a21.25,21.25,0,0,0,5.15,5.57,18.27,18.27,0,0,0,10.18,3.65,23.63,23.63,0,0,0,8.13-1.06,34.87,34.87,0,0,0,7.65-3.39,45.22,45.22,0,0,0,4-2.64Z" style="opacity:0.05"></path><path d="M220.19,128.58a32.42,32.42,0,0,0,2.69,6.43c.32.56.64,1.1,1,1.61a21.25,21.25,0,0,0,5.15,5.57,18.12,18.12,0,0,0,8.23,3.44Z" style="opacity:0.05"></path><path d="M224.63,82.41c-1.18,2.94-2.2,6-3.08,9l42.86,42.85.58-.54a73.52,73.52,0,0,0,5.25-5.68Z" style="fill:#fff;opacity:0.15"></path><path d="M238.64,58.15a87.81,87.81,0,0,0-5.48,7.61l47.17,47.17c1.53-2.87,2.93-5.85,4.19-8.9Z" style="fill:#fff;opacity:0.15"></path><path d="M244,52.23q-1.69,1.68-3.33,3.53l45.1,45.1c.63-1.69,1.23-3.39,1.76-5.1Z" style="fill:#fff;opacity:0.15"></path><path d="M291.34,68h0c0-.88-.12-1.73-.2-2.57l-.09-.83c0-.29-.07-.57-.1-.85-.09-.62-.17-1.24-.28-1.84A38.49,38.49,0,0,0,288,52.67a23.82,23.82,0,0,0-7.14-9.44,18.43,18.43,0,0,0-6.41-3.18c-.54-.14-1.08-.25-1.63-.35a21.47,21.47,0,0,0-8.19.22l-1.09.26Z" style="fill:#fff;opacity:0.15"></path><path d="M282.11,76.89c0,19.28-11.24,41.54-25.47,51-.6.41-1.21.79-1.83,1.15-15.07,8.7-27.29-.54-27.29-20.64S239.74,65,254.81,56.25c.62-.35,1.23-.68,1.83-1C270.87,48.32,282.11,57.61,282.11,76.89Z" style="fill:#66C02E"></path><path d="M282.11,76.89c0,19.28-11.24,41.54-25.47,51-.6.41-1.21.79-1.83,1.15-15.07,8.7-27.29-.54-27.29-20.64S239.74,65,254.81,56.25c.62-.35,1.23-.68,1.83-1C270.87,48.32,282.11,57.61,282.11,76.89Z" style="opacity:0.4"></path><path d="M280.89,77.59c0,.62,0,1.24,0,1.87-.68,18-11.15,38.12-24.29,46.87l-.35.23c-.47.3-.93.59-1.4.86a22.68,22.68,0,0,1-8.19,3c-6.12.83-11.24-1.85-14.41-7.34a28.58,28.58,0,0,1-3.38-12.43c-.06-.95-.1-1.92-.1-2.93s0-1.84.08-2.78a55.19,55.19,0,0,1,.67-5.93c2.3-13.88,9.71-28,19.13-36.54a38.1,38.1,0,0,1,4.15-3.29c.68-.46,1.36-.89,2.05-1.29s1.18-.65,1.75-.93l.49-.23A17.63,17.63,0,0,1,267.84,55c5.49,1.06,9.72,5.44,11.74,12.43A36.75,36.75,0,0,1,280.89,77.59Z" style="fill:#66C02E"></path><path d="M280.89,77.59c0,.62,0,1.24,0,1.87-.68,18-11.15,38.12-24.29,46.87l-.35.23c-.47.3-.93.59-1.4.86a22.68,22.68,0,0,1-8.19,3c-6.12.83-11.24-1.85-14.41-7.34a28.58,28.58,0,0,1-3.38-12.43c-.06-.95-.1-1.92-.1-2.93s0-1.84.08-2.78a55.19,55.19,0,0,1,.67-5.93c2.3-13.88,9.71-28,19.13-36.54a38.1,38.1,0,0,1,4.15-3.29c.68-.46,1.36-.89,2.05-1.29s1.18-.65,1.75-.93l.49-.23A17.63,17.63,0,0,1,267.84,55c5.49,1.06,9.72,5.44,11.74,12.43A36.75,36.75,0,0,1,280.89,77.59Z" style="opacity:0.5"></path><path d="M276.53,77c0-.63,0-1.26,0-1.88a36.46,36.46,0,0,0-1.32-10.17,19.25,19.25,0,0,0-5.61-9.42,14.09,14.09,0,0,0-1.8-.49,17.63,17.63,0,0,0-10.79,1.72l-.49.23c-.57.28-1.16.59-1.75.93s-1.37.83-2.05,1.29a38.1,38.1,0,0,0-4.15,3.29C239.19,71,231.78,85.11,229.48,99a55.19,55.19,0,0,0-.67,5.93c-.05.94-.08,1.86-.08,2.78s0,2,.1,2.93a28.58,28.58,0,0,0,3.38,12.43,16.46,16.46,0,0,0,3.43,4.23,14.23,14.23,0,0,0,6.65.59,22.62,22.62,0,0,0,8.19-3c.47-.27.94-.56,1.4-.86l.35-.23C265.37,115.07,275.84,94.92,276.53,77Z" style="fill:#66C02E"></path><path d="M276.53,77c0-.63,0-1.26,0-1.88a36.46,36.46,0,0,0-1.32-10.17,19.25,19.25,0,0,0-5.61-9.42,14.09,14.09,0,0,0-1.8-.49,17.63,17.63,0,0,0-10.79,1.72l-.49.23c-.57.28-1.16.59-1.75.93s-1.37.83-2.05,1.29a38.1,38.1,0,0,0-4.15,3.29C239.19,71,231.78,85.11,229.48,99a55.19,55.19,0,0,0-.67,5.93c-.05.94-.08,1.86-.08,2.78s0,2,.1,2.93a28.58,28.58,0,0,0,3.38,12.43,16.46,16.46,0,0,0,3.43,4.23,14.23,14.23,0,0,0,6.65.59,22.62,22.62,0,0,0,8.19-3c.47-.27.94-.56,1.4-.86l.35-.23C265.37,115.07,275.84,94.92,276.53,77Z" style="opacity:0.25"></path><path d="M272.77,39.7C257,37.92,244.19,51,235.63,62.71c-12.36,18.22-20.19,41.29-15.92,63.34v0c1.39,6.14,4.19,12.29,9.3,16.19-5.22-3.82-8.24-10-9.71-16.14v0c-3.93-18.06,1-37,9.28-53.18C237.42,56.93,252.42,37.52,272.77,39.7Z" style="fill:#f5f5f5"></path><g id="freepik--money-sign--inject-277"><polygon points="260.84 82.43 255.61 79.4 265.74 70.76 270.97 73.78 260.84 82.43" style="opacity:0.35000000000000003"></polygon><path d="M264.06,84.42c-2.68-1.9-7.33-.46-11.26.78q-1.43.48-2.58.84a4.67,4.67,0,0,0-.39,1.82c0,3,2.59,2.22,8.21.37a41.32,41.32,0,0,1,5.8-1.53c.17,1.55,1.25,3,5.46.75Z" style="opacity:0.35000000000000003"></path><polygon points="251.09 124.13 245.85 121.1 245.85 114.92 251.09 117.95 251.09 124.13" style="opacity:0.45"></polygon><path d="M260,100.66c0,2.46-1.85,4.65-4.59,6.24-4.36,2.53-6.06.47-6.43-1.55l-.92-.53a9.63,9.63,0,0,0,2.12-.95,9.27,9.27,0,0,0,4.26-4.51C257.63,98.31,260,97.89,260,100.66Z" style="opacity:0.35000000000000003"></path><path d="M240.49,115.81a3.39,3.39,0,0,0-1.91-.46,9.34,9.34,0,0,1-.28-1l-5.24-3a6.43,6.43,0,0,0,2.94,4.47h0l5.23,3S242.1,116.87,240.49,115.81Z" style="opacity:0.35000000000000003"></path><path d="M258,88.23c-5.62,1.85-8.21,2.68-8.21-.37a4.67,4.67,0,0,1,.39-1.82c-3.84,1.18-5.63,1.33-5.63-1.2,0-1.86,1.26-4.16,4.73-6.18,3.7-2.14,5.77-1.64,6.29.74l10.12-8.64c0-.13-.09-.25-.14-.37a6.69,6.69,0,0,0,1.8-.69l-4.18-2.49-.4-.24-.06,0h0a7.1,7.1,0,0,0-4-.65,17.56,17.56,0,0,0-5.23,1.44v-.11l5.23-3.05-5.23-3h0L250,63.61l-4.81,2.79h0v6.17c-7.09,5.17-11.53,11.92-11.53,19.21,0,3.33.9,5.22,2.35,6.18h0l.07,0a3.72,3.72,0,0,0,.39.21l4.38,2.47a3.15,3.15,0,0,0-.27-2,24.81,24.81,0,0,0,4.11-.9c5.32-1.61,10.05-4.14,10.05-.19a4.83,4.83,0,0,1-.32,1.73c3.23-1,5.56-1.47,5.56,1.3,0,2.46-1.85,4.65-4.59,6.24-4.36,2.53-6.06.47-6.43-1.55h0l-.92-.53-4.31-2.5-10.65,9,5.24,3a9.44,9.44,0,0,0,.8,2.22,17,17,0,0,0,6.75-1.67v2.5l8.28-1.13v-6.18c7.17-5.29,12.12-12.41,12.12-19.85a10.11,10.11,0,0,0-.59-3.73A29,29,0,0,0,258,88.23Z" style="fill:#66C02E"></path><path d="M258,88.23c-5.62,1.85-8.21,2.68-8.21-.37a4.67,4.67,0,0,1,.39-1.82c-3.84,1.18-5.63,1.33-5.63-1.2,0-1.86,1.26-4.16,4.73-6.18,3.7-2.14,5.77-1.64,6.29.74l10.12-8.64c0-.13-.09-.25-.14-.37a6.69,6.69,0,0,0,1.8-.69l-4.18-2.49-.4-.24-.06,0h0a7.1,7.1,0,0,0-4-.65,17.56,17.56,0,0,0-5.23,1.44v-.11l5.23-3.05-5.23-3h0L250,63.61l-4.81,2.79h0v6.17c-7.09,5.17-11.53,11.92-11.53,19.21,0,3.33.9,5.22,2.35,6.18h0l.07,0a3.72,3.72,0,0,0,.39.21l4.38,2.47a3.15,3.15,0,0,0-.27-2,24.81,24.81,0,0,0,4.11-.9c5.32-1.61,10.05-4.14,10.05-.19a4.83,4.83,0,0,1-.32,1.73c3.23-1,5.56-1.47,5.56,1.3,0,2.46-1.85,4.65-4.59,6.24-4.36,2.53-6.06.47-6.43-1.55h0l-.92-.53-4.31-2.5-10.65,9,5.24,3a9.44,9.44,0,0,0,.8,2.22,17,17,0,0,0,6.75-1.67v2.5l8.28-1.13v-6.18c7.17-5.29,12.12-12.41,12.12-19.85a10.11,10.11,0,0,0-.59-3.73A29,29,0,0,0,258,88.23Z" style="opacity:0.15"></path><g style="opacity:0.2"><path d="M245.18,72.58c-3.87,3.17-7.39,6.88-9.45,11.42a19.24,19.24,0,0,0-1.8,7.15,12.68,12.68,0,0,0,.22,3.69A5.14,5.14,0,0,0,236,98a5.12,5.12,0,0,1-2.16-3,13.12,13.12,0,0,1-.41-3.79,19.15,19.15,0,0,1,1.71-7.4,25.16,25.16,0,0,1,4.27-6.28A31.17,31.17,0,0,1,245.18,72.58Z"></path></g><path d="M265.66,86.53a29,29,0,0,0-7.62,1.7c-5.62,1.85-8.21,2.68-8.21-.37a4.67,4.67,0,0,1,.39-1.82,9.7,9.7,0,0,1,4.34-4.35c3.7-2.15,5.77-1.64,6.28.74L271,73.78a5.93,5.93,0,0,0-5.88-4.5,15.67,15.67,0,0,0-6.32,1.47V64.58l-5.23,3-3.12,1.81v6.18c-7.1,5.17-11.53,11.92-11.53,19.21a10.66,10.66,0,0,0,.63,4c1.57,3.91,5.86,3.37,10.38,2,1.59-.48,3.13-1,4.5-1.49,3.23-1,5.56-1.47,5.56,1.3,0,2.46-1.85,4.65-4.59,6.24-4.36,2.53-6.06.47-6.43-1.55l-10.64,9a9.44,9.44,0,0,0,.8,2.22c1.39,2.6,3.86,3.31,6.75,2.93a19.89,19.89,0,0,0,5.24-1.57v6.18l8.27-4.78v-6.22c7.17-5.28,12.13-12.4,12.13-19.85C271.49,87.93,269,86.45,265.66,86.53Z" style="fill:#66C02E"></path><g style="opacity:0.1"><path d="M265.66,86.53a29,29,0,0,0-7.62,1.7c-5.62,1.85-8.21,2.68-8.21-.37a4.67,4.67,0,0,1,.39-1.82,9.7,9.7,0,0,1,4.34-4.35c3.7-2.15,5.77-1.64,6.28.74L271,73.78a5.93,5.93,0,0,0-5.88-4.5,15.67,15.67,0,0,0-6.32,1.47V64.58l-5.23,3-3.12,1.81v6.18c-7.1,5.17-11.53,11.92-11.53,19.21a10.66,10.66,0,0,0,.63,4c1.57,3.91,5.86,3.37,10.38,2,1.59-.48,3.13-1,4.5-1.49,3.23-1,5.56-1.47,5.56,1.3,0,2.46-1.85,4.65-4.59,6.24-4.36,2.53-6.06.47-6.43-1.55l-10.64,9a9.44,9.44,0,0,0,.8,2.22c1.39,2.6,3.86,3.31,6.75,2.93a19.89,19.89,0,0,0,5.24-1.57v6.18l8.27-4.78v-6.22c7.17-5.28,12.13-12.4,12.13-19.85C271.49,87.93,269,86.45,265.66,86.53Z" style="fill:#fff"></path></g><path d="M248.2,106l-6.53,5.53,7.26,7.26c.72-.24,1.43-.51,2.16-.82v3l2,2,6.24-3.6v-2.21Z" style="fill:#fff;opacity:0.15"></path><path d="M265.66,86.53a29,29,0,0,0-7.62,1.7l-1.82.59,13.08,13.09a19.18,19.18,0,0,0,2.19-8.63,12.46,12.46,0,0,0-.24-2.52l-4.15-4.15A9.62,9.62,0,0,0,265.66,86.53Z" style="fill:#fff;opacity:0.15"></path><path d="M251.49,84.1a12.57,12.57,0,0,1,3.07-2.41c3.7-2.15,5.77-1.64,6.28.74l1.12-1L250.42,69.94v5.67a37.38,37.38,0,0,0-4,3.39Z" style="fill:#fff;opacity:0.15"></path><path d="M261.55,69.79a23.71,23.71,0,0,0-2.78,1V67l-1.54-1.54-3.69,2.15-.65.37,11.45,11.45,3.7-3.16Z" style="fill:#fff;opacity:0.15"></path><path d="M244,101.81l-5-5a8.72,8.72,0,0,0,.5,2A4.65,4.65,0,0,0,244,101.81Z" style="fill:#fff;opacity:0.15"></path><polygon points="250.42 75.61 245.18 72.58 245.18 66.4 250.42 69.43 250.42 75.61" style="fill:#66C02E"></polygon><polygon points="250.42 75.61 245.18 72.58 245.18 66.4 250.42 69.43 250.42 75.61" style="opacity:0.35000000000000003"></polygon><path d="M259.36,113.13l.82-.64c.25-.2.57-.45.91-.76s.75-.63,1.16-1,.86-.79,1.31-1.26l.7-.7.7-.77c.24-.26.47-.53.7-.81s.47-.56.69-.85c.45-.59.9-1.19,1.31-1.82s.8-1.27,1.17-1.91.69-1.29.95-1.94.51-1.29.74-1.89q.14-.47.27-.9l.12-.43q0-.23.09-.42c.12-.55.24-1.06.29-1.51a10.28,10.28,0,0,0,.13-1.18c0-.66.07-1,.07-1s0,.38,0,1a11.78,11.78,0,0,1-.09,1.19,12.13,12.13,0,0,1-.24,1.52l-.09.43-.12.43c-.07.3-.16.6-.24.92-.23.61-.41,1.27-.72,1.91s-.6,1.31-.94,2-.74,1.31-1.18,1.93-.87,1.24-1.32,1.83c-.23.29-.48.57-.71.85s-.46.55-.71.81l-.71.76-.72.7c-.45.46-.92.86-1.34,1.24s-.83.69-1.19,1-.68.53-.94.73Z" style="fill:#fff"></path><polygon points="250.42 69.43 258.77 64.58 258.77 70.75 258.21 65.58 250.42 69.43" style="fill:#fafafa"></polygon><polygon points="251.09 117.95 251.53 123.31 259.37 119.35 251.09 124.13 251.09 117.95" style="fill:#fafafa"></polygon></g></g><polygon points="282.64 53.02 283.34 43.83 284.04 53.02 293.23 53.72 284.04 54.42 283.34 63.61 282.64 54.42 273.45 53.72 282.64 53.02" style="fill:#fff"></polygon><polygon points="273.58 46.3 273.92 41.85 274.26 46.3 278.72 46.64 274.26 46.98 273.92 51.43 273.58 46.98 269.13 46.64 273.58 46.3" style="fill:#fff"></polygon></g></g></svg>
