<svg xmlns="http://www.w3.org/2000/svg" viewBox="0 0 500 500"><g id="freepik--background-simple--inject-3"><path d="M61.43,206.36S21,267.41,49.73,359.49s112.44,115.57,162.08,90,56.88-58.85,97-83,122.85-23.3,154.71-89.74-34.21-159.56-109-213.19S117.15,73.36,61.43,206.36Z" style="fill:#92E3A9"></path><path d="M61.43,206.36S21,267.41,49.73,359.49s112.44,115.57,162.08,90,56.88-58.85,97-83,122.85-23.3,154.71-89.74-34.21-159.56-109-213.19S117.15,73.36,61.43,206.36Z" style="fill:#fff;opacity:0.7000000000000001"></path></g><g id="freepik--Plant--inject-3"><path d="M318.78,338.1c3.58,1.56,12.31,1.36,12.32,1.36s-1.88-5.72-2.05-6.07c-1.91-4-8-10.63-12.9-10a5.89,5.89,0,0,0-4.73,7.38C312.24,334.23,315.74,336.77,318.78,338.1Z" style="fill:#263238"></path><path d="M321.8,363.4c3.7.54,11.5-1.72,12.12-1.9a104.44,104.44,0,0,0,4.73,13.08c1.07,2.48,2.23,4.95,3.42,7.41-.71-1-1.36-2-1.46-2.09-2.91-3.36-10.5-8.15-15.08-6.2a5.89,5.89,0,0,0-2.61,8.37c1.69,3.08,5.74,4.6,9,5.08s10-1.31,11.78-1.81c.46.94.92,1.88,1.39,2.82,2.26,4.49,4.53,9,6.62,13.43.74,1.57,1.41,3.14,2.09,4.71-.63-.92-1.17-1.69-1.27-1.8-2.91-3.36-10.5-8.15-15.08-6.2a5.88,5.88,0,0,0-2.61,8.36c1.69,3.08,5.74,4.61,9,5.08s9.36-1.13,11.46-1.72c.64,1.64,1.29,3.27,1.84,4.88.35,1.11.77,2.15,1.06,3.28s.62,2.22.92,3.31c.51,2.13,1.05,4.32,1.5,6.4.32,1.45.6,2.84.88,4.24-.71-1.57-2.18-4.62-2.34-4.86-2.36-3.77-9.14-9.65-14-8.42a5.89,5.89,0,0,0-3.85,7.88c1.21,3.3,5,5.42,8.15,6.39,3.5,1.06,11.23.09,12.2,0,.46,2.31.89,4.57,1.26,6.7.2,1.13.38,2.19.55,3.25h3.08c-.23-1.22-.47-2.48-.73-3.79-.46-2.35-1-4.85-1.58-7.42a63.22,63.22,0,0,0,6.81-3.2c2.55,2.76,9.07,6,9.92,6.4-.89,2.18-1.78,4.3-2.64,6.28-.26.6-.52,1.16-.77,1.73h3.24l.24-.58c.92-2.21,1.84-4.6,2.78-7.06.93.2,8.59,1.76,12.16.95,3.24-.73,7.16-2.56,8.61-5.76a5.89,5.89,0,0,0-3.25-8.14c-4.72-1.59-11.92,3.77-14.56,7.35-.15.21-1.59,2.68-2.46,4.26.37-1,.75-2,1.12-3,.75-2,1.44-4.12,2.2-6.34.32-1.09.65-2.19,1-3.3s.59-2.29.89-3.44c.64-2.7,1.16-5.46,1.62-8.25,1.8.65,8.22,2.89,11.54,2.65s7.47-1.45,9.39-4.39a5.9,5.9,0,0,0-2-8.54c-4.43-2.28-12.36,1.92-15.51,5.06-.19.19-2.2,2.7-3.28,4.09.27-1.68.54-3.35.75-5.06.61-4.94,1.08-9.95,1.57-14.95.15-1.53.31-3.06.47-4.58.64.24,8.22,3.06,11.94,2.8,3.31-.24,7.47-1.45,9.38-4.4a5.89,5.89,0,0,0-2-8.54c-4.42-2.28-12.35,1.93-15.5,5.06-.24.24-3.12,3.85-3.81,4.8.36-3.36.74-6.71,1.26-10a102.76,102.76,0,0,1,2.87-13.15c.29.12,8.18,3.09,12,2.83,3.31-.24,7.46-1.45,9.38-4.4a5.89,5.89,0,0,0-2-8.54c-4.42-2.28-12.35,1.93-15.5,5.06-.25.25-3.35,4.13-3.86,4.88.07-.25.12-.52.2-.77a76,76,0,0,1,5.21-12.44c1.13-2.21,2.33-4.26,3.55-6.24,1.42.71,7.91,3.86,11.37,4s7.58-.62,9.81-3.33a5.9,5.9,0,0,0-1-8.71c-4.15-2.75-12.49.56-16,3.33-.19.15-1.94,1.89-3.19,3.18.56-.88,1.12-1.8,1.68-2.64,2.08-3.13,4.18-5.87,6.06-8.29,1.08-1.36,2.08-2.57,3-3.7,1.75,0,8.79-.24,11.87-1.69s6.44-4,7.17-7.48a5.9,5.9,0,0,0-4.93-7.25c-4.94-.53-10.82,6.25-12.63,10.31-.16.35-2,6.12-1.88,6.12h.11c-.94,1.06-1.93,2.21-3,3.49-1.94,2.38-4.1,5.08-6.26,8.18a106.24,106.24,0,0,0-6.49,10.34,76.83,76.83,0,0,0-5.54,12.48c0,.05,0,.11,0,.16,0-1.46,0-5.54-.08-5.85-.57-4.41-4.26-12.59-9.16-13.49a5.89,5.89,0,0,0-6.79,5.54c-.28,3.5,2.25,7,4.73,9.22,2.79,2.49,10.54,4.9,11.16,5.09a105.47,105.47,0,0,0-3.28,13.52c-.47,2.67-.87,5.36-1.23,8.07,0-1.26,0-2.39-.06-2.54-.58-4.41-4.27-12.59-9.16-13.5a5.89,5.89,0,0,0-6.8,5.54c-.28,3.5,2.26,7,4.73,9.22s9.08,4.44,10.82,5c-.12,1-.26,2.08-.39,3.12-.6,5-1.17,10-1.88,14.86-.25,1.71-.56,3.4-.87,5.08,0-1.12,0-2.06-.06-2.21-.57-4.4-4.26-12.58-9.15-13.49a5.89,5.89,0,0,0-6.8,5.54c-.28,3.5,2.25,7,4.73,9.22s8.44,4.22,10.51,4.89c-.36,1.71-.72,3.43-1.15,5.08-.32,1.12-.55,2.21-.93,3.32s-.71,2.19-1.06,3.27c-.75,2.06-1.51,4.18-2.29,6.17-.53,1.38-1.06,2.69-1.59,4,.27-1.7.72-5.06.73-5.34a22.79,22.79,0,0,0-3.07-11.12,6.41,6.41,0,0,0-.08-1.31,5.88,5.88,0,0,0-7.2-5c-4.81,1.28-7.86,9.72-8.09,14.16,0,.26.16,3.12.3,4.92-.24-1.05-.47-2.07-.73-3.14-.5-2.13-1.07-4.24-1.67-6.51-.33-1.08-.66-2.18-1-3.29s-.78-2.23-1.17-3.36c-.95-2.6-2-5.19-3.19-7.78,1.86-.44,8.45-2.12,11.09-4.15s5.43-5.33,5.4-8.84a5.88,5.88,0,0,0-6.36-6c-4.95.54-9.24,8.42-10.14,12.77-.05.27-.35,3.47-.48,5.23-.7-1.55-1.4-3.1-2.17-4.64-2.21-4.46-4.58-8.89-6.94-13.33-.72-1.36-1.42-2.73-2.13-4.09.67-.15,8.54-2,11.5-4.25,2.64-2,5.43-5.33,5.4-8.84a5.88,5.88,0,0,0-6.36-6c-4.94.54-9.24,8.42-10.14,12.77-.06.33-.48,4.93-.53,6.1-1.56-3-3.08-6-4.46-9a101.62,101.62,0,0,1-4.86-12.55c.31-.07,8.53-1.94,11.57-4.26,2.63-2,5.43-5.33,5.4-8.84a5.89,5.89,0,0,0-6.36-6c-4.95.53-9.24,8.42-10.14,12.77-.07.34-.51,5.29-.53,6.19-.08-.25-.18-.5-.26-.75a76.56,76.56,0,0,1-2.52-13.24c-.27-2.47-.4-4.85-.47-7.17,1.57-.19,8.72-1.14,11.68-2.94s6-4.69,6.34-8.19a5.88,5.88,0,0,0-5.66-6.69c-5,0-10.11,7.35-11.48,11.58-.07.23-.57,2.65-.91,4.42,0-1.05-.05-2.13-.05-3.13,0-3.76.25-7.21.48-10.26.15-1.73.32-3.3.49-4.76,1.44-1,7.2-5,9-7.95s3.14-6.93,1.85-10.2a5.89,5.89,0,0,0-8.11-3.33c-4.42,2.29-5.58,11.19-4.85,15.57.06.38,1.73,6.19,1.81,6.14l.08-.06c-.19,1.4-.38,2.91-.56,4.56-.3,3.05-.62,6.5-.7,10.28a104,104,0,0,0,.29,12.2,76.26,76.26,0,0,0,2.26,13.47,1.42,1.42,0,0,0,.05.16c-.79-1.23-3.09-4.6-3.3-4.84-2.9-3.36-10.5-8.14-15.08-6.2a5.89,5.89,0,0,0-2.61,8.37C314.47,361.4,318.52,362.92,321.8,363.4Z" style="fill:#263238"></path><path d="M407.14,340c.08.05,1.59-5.81,1.64-6.19.62-4.4-.79-13.27-5.27-15.43a5.89,5.89,0,0,0-8,3.55c-1.2,3.3.32,7.35,2.12,10.14C399.74,335.36,407.14,340,407.14,340Z" style="fill:#263238"></path></g><g id="freepik--Picture--inject-3"><path d="M193.82,272.66H61.3V101H193.82Zm-131.52-1H192.82V102H62.3Z" style="fill:#263238"></path><path d="M190.08,267.82H65v-162H190.08Zm-124-1H189.08v-160H66Z" style="fill:#263238"></path><path d="M159,227.46H96.13V146.21H159Zm-61.85-1H158V147.21H97.13Z" style="fill:#263238"></path></g><g id="freepik--Symbol--inject-3"><path d="M336.78,200l-21.59-3.05,3-21.44,21.6,3Zm-20.46-3.9,19.61,2.77,2.75-19.46-19.62-2.77Zm23.9-28.24-19.75-2.79,2.86-20.26.19-.12a118.76,118.76,0,0,0,14.88-10.79,58.1,58.1,0,0,0,11.29-12.79A37.6,37.6,0,0,0,355.31,106c.59-4.17.11-7.58-1.43-10.16s-4.08-4.07-7.59-4.57a10.33,10.33,0,0,0-7.79,1.58,9.66,9.66,0,0,0-3.71,6.81,15.93,15.93,0,0,0-.1,3.94c.13,1.29.3,2.68.51,4.13l.07.53-20.63,1.53-.08-.43a40,40,0,0,1-.77-6.38,35.38,35.38,0,0,1,.32-6.24c1.23-8.71,4.94-15.38,11-19.83s14.2-6,24.13-4.58c10.14,1.43,17.72,5.35,22.55,11.64s6.56,14.63,5.13,24.77a47.94,47.94,0,0,1-6.08,17.84,58,58,0,0,1-12.06,14.28,113,113,0,0,1-16.43,11.71Zm-18.62-3.64,17.77,2.51,2.09-14.82.21-.12a111.79,111.79,0,0,0,16.48-11.73A57.23,57.23,0,0,0,370,126,46.81,46.81,0,0,0,376,108.55c1.39-9.86-.27-17.94-4.93-24s-12-9.86-21.9-11.26c-9.66-1.36-17.54.12-23.4,4.4S316.29,88.4,315.1,96.83a34.3,34.3,0,0,0-.31,6.06,39.37,39.37,0,0,0,.66,5.79l18.68-1.39c-.17-1.27-.32-2.49-.44-3.64a16.9,16.9,0,0,1,.11-4.18A10.61,10.61,0,0,1,337.91,92a11.27,11.27,0,0,1,8.52-1.77c3.83.54,6.62,2.24,8.3,5s2.19,6.41,1.57,10.81a38.52,38.52,0,0,1-5.77,15.55,59.1,59.1,0,0,1-11.48,13,121.22,121.22,0,0,1-14.8,10.76Z" style="fill:#263238"></path></g><g id="freepik--Character--inject-3"><path d="M210.91,249s-64.19.85-66.19,5.42-11.13,59.92-11.7,79-.85,31.67,1.14,33.95,33.1,20.26,33.1,20.26-14.55,51.07-10,52.79,32.53,8.84,50.5,9.13,35.67.28,37.1.28,47.36,1.71,63.34-2,20.82-4,20.82-10.27-4-14-4.28-15.4,10.85-109.57,4.57-136.1-14.55-36.81-20.83-38.52-51.07-.57-51.07-.57Z" style="fill:#92E3A9"></path><path d="M269.49,450.78c-7,0-14.81-.11-23.23-.35l-1.39,0c-3.2,0-20,0-37.1-.28-18.27-.29-46.23-7.5-50.67-9.17-1-.36-3.27-1.22,3-27.61,2.74-11.62,6-23.19,6.6-25.4-3.55-2.05-30.95-17.95-32.88-20.17-2.11-2.41-1.87-14-1.27-34.29.58-19.33,9.86-74.91,11.74-79.22,2-4.63,55.85-5.58,66.64-5.72l46.5-2c1.84-.05,45-1.12,51.22.59,3.86,1,13.63,6.94,21.19,38.88,5.17,21.86-1.33,97.74-3.78,126.3-.47,5.49-.81,9.46-.78,9.85a21.39,21.39,0,0,0,.78,2.05c1.22,3,3.5,8.64,3.5,13.42,0,6-4.07,6.88-16.17,9.61l-5,1.15C301.49,450,288,450.78,269.49,450.78Zm16.35-203.62c-13.59,0-28.15.36-28.41.37l-46.5,2h0c-24.7.33-64.38,2-65.74,5.12-1.87,4.27-11.08,59.59-11.66,78.85-.5,16.83-.94,31.37,1,33.61,1.59,1.82,24.34,15.16,33,20.15a.5.5,0,0,1,.23.57C160.65,412.72,154.86,439,157.45,440c4.41,1.65,32.18,8.81,50.33,9.1,17.11.27,33.89.28,37.09.28l1.42,0c30.51.86,52.46.15,61.8-2,1.83-.43,3.51-.8,5.05-1.15,11.82-2.67,15.39-3.48,15.39-8.64,0-4.58-2.23-10.09-3.43-13.05a19.5,19.5,0,0,1-.84-2.26c-.05-.29.09-2.05.78-10.1,2.44-28.52,8.93-104.27,3.79-126-7.43-31.42-16.79-37.14-20.47-38.15C305.73,247.37,296.06,247.16,285.84,247.16ZM210.91,249h0Z" style="fill:#263238"></path><path d="M238.43,275.84a.49.49,0,0,1-.46-.3.5.5,0,0,1,.26-.66,59.42,59.42,0,0,0,6.62-3.33.5.5,0,1,1,.5.87,60.48,60.48,0,0,1-6.73,3.38A.43.43,0,0,1,238.43,275.84Z" style="fill:#263238"></path><path d="M248.12,270.62a.52.52,0,0,1-.42-.22.5.5,0,0,1,.15-.69,83.23,83.23,0,0,0,20.63-19.58.5.5,0,0,1,.7-.12.49.49,0,0,1,.12.69,84.47,84.47,0,0,1-20.9,19.84A.48.48,0,0,1,248.12,270.62Z" style="fill:#263238"></path><path d="M254,273.42a.51.51,0,0,1-.44-.26.5.5,0,0,1,.2-.68c5-2.68,10.85-10.85,10.91-10.93a.5.5,0,1,1,.81.58c-.24.34-6,8.44-11.25,11.23A.46.46,0,0,1,254,273.42Z" style="fill:#263238"></path><path d="M224.29,353.76a.5.5,0,0,1-.47-.35l-1.68-5.22a.49.49,0,0,1,.32-.63.5.5,0,0,1,.63.32l1.68,5.22a.5.5,0,0,1-.32.63A.45.45,0,0,1,224.29,353.76Z" style="fill:#263238"></path><path d="M233.45,382.2a.49.49,0,0,1-.47-.35l-7.44-23.09a.5.5,0,0,1,1-.31l7.44,23.1a.51.51,0,0,1-.32.63Z" style="fill:#263238"></path><path d="M235.74,382.77a.43.43,0,0,1-.27-.08.5.5,0,0,1-.16-.69l7.42-11.69a.49.49,0,0,1,.69-.16.51.51,0,0,1,.16.69l-7.42,11.7A.51.51,0,0,1,235.74,382.77Z" style="fill:#263238"></path><path d="M252.57,375.92a.49.49,0,0,1-.37-.83l18-20.26a.5.5,0,0,1,.75.67l-18,20.26A.49.49,0,0,1,252.57,375.92Z" style="fill:#263238"></path><path d="M244.87,450.39l-.14,0L206,439.1a.5.5,0,0,1-.34-.62.49.49,0,0,1,.62-.34L245,449.41a.5.5,0,0,1-.14,1Z" style="fill:#263238"></path><path d="M201.58,437.78l-.14,0-6.64-1.94a.5.5,0,0,1,.28-1l6.64,1.94a.5.5,0,0,1,.34.62A.5.5,0,0,1,201.58,437.78Z" style="fill:#263238"></path><path d="M210.51,122.13s-20.15-4.63-24,.55,3.82,10.08,2.73,11.17-24.52,13.07-22.62,24.79,17.71,23.7,18.26,27-18.26,4.36-20.71,9.26-6,28.06,14.44,35.69,46-5.18,53.12-5.18,14.17,13.9,22.34,13.08a19.82,19.82,0,0,0,12.81-6.81s8.44,11.72,20.7,6.81,26.43-22.07,20.44-27.24-12.81-6.81-8.45-11.44,13.35-16.89,12-27.52-13.9-11.44-18.8-14.71,5.45-8.72,5.18-17.71-6.82-24-40.05-34-49.58-5.18-51.22,3.27A14,14,0,0,0,210.51,122.13Z" style="fill:#263238"></path><path d="M281.66,240.15c-7.79,0-13.29-5.93-14.76-7.71A20.23,20.23,0,0,1,254.15,239c-4.55.46-8.67-3.33-12.64-7-3.4-3.14-6.62-6.1-9.75-6.1-1.91,0-5.34,1-9.68,2.28-11.45,3.35-28.76,8.41-43.61,2.87-7.1-2.65-12-7.36-14.64-14-3.5-8.92-1.78-19-.08-22.38,1.4-2.79,7.36-4.35,12.62-5.72,3.67-1,8.23-2.15,8-3.24s-2.26-3.25-4.69-5.87c-4.89-5.29-12.29-13.28-13.56-21.1-1.67-10.25,14.75-20.29,20.94-24.07.86-.53,1.68-1,1.81-1.16a12.05,12.05,0,0,0-1.1-1.56c-1.66-2.16-4.44-5.79-1.67-9.55,3.36-4.56,18-2,22.92-1.07A14.66,14.66,0,0,1,206.21,109a9.28,9.28,0,0,1,4.66-6.08c8.33-5,25.54-4.14,47.19,2.43,34.56,10.48,40.15,26.12,40.41,34.52.13,4.52-2.29,8.13-4.24,11-1.33,2-2.47,3.68-2.23,4.91a2.19,2.19,0,0,0,1.07,1.36,27.26,27.26,0,0,0,5.27,2.34c5.67,2.1,12.72,4.72,13.74,12.73,1.34,10.45-7,22.47-12.12,27.92a3.4,3.4,0,0,0-1.23,2.56c.16,1.46,2.13,2.79,4.63,4.46a51.93,51.93,0,0,1,5,3.7,5.27,5.27,0,0,1,1.48,5.11c-1.26,7.52-12.39,19.11-22.05,23A16.54,16.54,0,0,1,281.66,240.15Zm-14.75-9h0a.48.48,0,0,1,.39.21c.09.11,8.37,11.34,20.12,6.64,9.4-3.76,20.22-15,21.43-22.21.31-1.86-.07-3.27-1.14-4.19A50.88,50.88,0,0,0,302.8,208c-2.71-1.82-4.85-3.26-5.07-5.17a4.36,4.36,0,0,1,1.51-3.37c4.66-5,13.15-17,11.85-27.11-.95-7.4-7.69-9.9-13.1-11.91a28.37,28.37,0,0,1-5.48-2.44,3.18,3.18,0,0,1-1.49-2c-.32-1.63.87-3.41,2.38-5.66,1.87-2.78,4.19-6.24,4.07-10.44-.25-8.13-5.73-23.29-39.7-33.59-21.38-6.49-38.29-7.41-46.38-2.53a8.31,8.31,0,0,0-4.2,5.41,13.61,13.61,0,0,0,3.65,12.6.52.52,0,0,1,.12.61.5.5,0,0,1-.56.26c-5.52-1.27-20.49-3.67-23.46.35-2.32,3.16,0,6.16,1.66,8.36,1,1.27,1.69,2.2,1,2.87a16.14,16.14,0,0,1-2,1.31c-5.45,3.33-22,13.46-20.47,23.05,1.22,7.52,8.49,15.38,13.31,20.58,2.85,3.08,4.73,5.11,4.94,6.39.33,2-3.49,3-8.77,4.37-4.81,1.25-10.79,2.81-12,5.2-1.58,3.16-3.24,13.05.11,21.56a23,23,0,0,0,14.06,13.43c14.54,5.43,31.65.42,43-2.89,4.42-1.29,7.9-2.32,10-2.32,3.52,0,6.88,3.09,10.43,6.36,3.81,3.51,7.75,7.13,11.86,6.72a19.43,19.43,0,0,0,12.46-6.62A.51.51,0,0,1,266.91,231.15Z" style="fill:#263238"></path><path d="M214.14,209.54s-6.81,42.5-7.08,43.86,12,13.62,28.6,11.44a39.3,39.3,0,0,0,25.06-13.34l-5.17-42.23s-14.17,6.81-22.89,6.54S214.14,209.54,214.14,209.54Z" style="fill:#fff"></path><path d="M231.74,265.6a34.65,34.65,0,0,1-23.79-10c-1.53-1.63-1.42-2.15-1.38-2.35.26-1.33,7-43.41,7.07-43.84a.51.51,0,0,1,.76-.35c.1.06,9.8,5.93,18.28,6.2s22.51-6.42,22.65-6.49a.5.5,0,0,1,.46,0,.51.51,0,0,1,.25.38l5.18,42.22a.5.5,0,0,1-.1.37,40.21,40.21,0,0,1-25.39,13.54A30.36,30.36,0,0,1,231.74,265.6Zm-17.22-55.26c-.93,5.79-6.72,41.89-7,43.16.21,1.24,11.83,13,28,10.85a39.43,39.43,0,0,0,24.6-13L255.14,210c-2.88,1.33-14.69,6.54-22.49,6.3C225.08,216.07,216.85,211.68,214.52,210.34Z" style="fill:#263238"></path><polygon points="211.34 232.34 240.03 226.79 214.14 209.54 211.34 232.34" style="fill:#263238"></polygon><path d="M211.34,232.84a.55.55,0,0,1-.34-.13.52.52,0,0,1-.15-.43l2.79-22.8a.49.49,0,0,1,.29-.39.53.53,0,0,1,.49,0l25.88,17.26a.49.49,0,0,1,.22.51.5.5,0,0,1-.4.39l-28.68,5.55Zm3.2-22.43-2.62,21.31,26.81-5.19Z" style="fill:#263238"></path><path d="M199,172.07s-4.8-6.08-7,1.6,7.36,17,7.36,17Z" style="fill:#fff"></path><path d="M199.32,191.13A.52.52,0,0,1,199,191c-.4-.39-9.79-9.58-7.49-17.46.73-2.5,1.83-3.91,3.27-4.19,2.34-.45,4.55,2.3,4.64,2.42a.48.48,0,0,1,.11.3l.32,18.56a.52.52,0,0,1-.3.47A.79.79,0,0,1,199.32,191.13Zm-4-20.84a1.87,1.87,0,0,0-.34,0c-1,.2-1.89,1.41-2.5,3.49-1.73,5.94,4.08,13.06,6.36,15.55l-.3-17.11C197.93,171.58,196.55,170.29,195.28,170.29Z" style="fill:#263238"></path><path d="M267.77,172.07s4.8-6.08,7,1.6-7.36,17-7.36,17Z" style="fill:#fff"></path><path d="M267.45,191.13a.65.65,0,0,1-.2,0,.49.49,0,0,1-.3-.47l.32-18.56a.54.54,0,0,1,.1-.3c.1-.12,2.32-2.88,4.64-2.42,1.45.28,2.55,1.69,3.28,4.19,2.29,7.88-7.1,17.07-7.5,17.46A.49.49,0,0,1,267.45,191.13Zm.81-18.88L268,189.36c2.27-2.49,8.09-9.61,6.36-15.55-.61-2.08-1.48-3.29-2.51-3.49C270.47,170.06,268.89,171.52,268.26,172.25Z" style="fill:#263238"></path><path d="M214.08,133.65S200.34,147,198.35,151s-1.19,49.58,1,54,24.09,21.51,27.67,22.9,11.75,2.79,18.12-.4,21.7-19.51,23.3-23.69-.4-52-1.4-56.55S242,126.28,231.8,125.49,214.08,133.65,214.08,133.65Z" style="fill:#fff"></path><path d="M236,229.86a27,27,0,0,1-9.19-1.56c-3.85-1.5-25.72-18.71-27.94-23.14s-3.08-50.25-1-54.41c2-4,15-16.69,15.81-17.44.5-.59,8-9.12,18.13-8.32,9.89.78,34.57,16.92,35.69,22.09.93,4.3,3,52.55,1.37,56.84-1.71,4.5-17.23,20.81-23.54,24A21,21,0,0,1,236,229.86Zm-5.5-103.92c-9.16,0-16,7.95-16.07,8l0,0c-.14.13-13.7,13.33-15.63,17.19s-1.08,49.36,1,53.51,23.76,21.23,27.41,22.65c3.84,1.49,11.72,2.62,17.72-.38,6.43-3.21,21.58-19.56,23.05-23.42,1.61-4.22-.49-52-1.42-56.26S241.8,126.77,231.76,126C231.35,126,230.94,125.94,230.53,125.94Zm-16.45,7.71h0Z" style="fill:#263238"></path><path d="M224.88,125.49s20.58,18.78,35.38,19.5l14.81.72s-32.5-4.33-42.61-26.35C232.46,119.36,221.27,110,224.88,125.49Z" style="fill:#263238"></path><path d="M275.07,146.21h0l-14.8-.72c-14.81-.72-34.85-18.85-35.7-19.63a.53.53,0,0,1-.15-.25c-1.19-5.12-.93-8.12.8-9.18,2.56-1.57,7.09,2.12,7.59,2.54a.49.49,0,0,1,.14.18c9.88,21.52,41.89,26,42.21,26.07a.5.5,0,0,1,.44.54A.51.51,0,0,1,275.07,146.21Zm-49.74-21c1.68,1.5,21.07,18.58,35,19.26l8.36.41c-10-2.52-29.21-9.29-36.59-25.23-1.3-1.07-4.73-3.38-6.35-2.39C224.83,117.82,224.06,119.64,225.33,125.23Z" style="fill:#263238"></path><path d="M238,183.33a.5.5,0,0,1-.5-.46l-1.59-20.11a.5.5,0,1,1,1-.08l1.59,20.11a.5.5,0,0,1-.46.54Z" style="fill:#263238"></path><path d="M233.39,192.89c-2.78,0-5.44-3-5.55-3.16a.5.5,0,1,1,.75-.66s2.48,2.82,4.8,2.82c1.91,0,4.8-3.72,5.76-5.15a.49.49,0,0,1,.69-.14.5.5,0,0,1,.14.69C239.6,187.86,236.17,192.89,233.39,192.89Z" style="fill:#263238"></path><path d="M230.23,202.11c-.61,0-1.23,0-1.85-.06-6.16-.41-10.75-7.89-10.95-8.21a.5.5,0,0,1,.86-.52c0,.08,4.52,7.35,10.16,7.73a41.87,41.87,0,0,0,12.17-1.38.5.5,0,0,1,.28,1A44.74,44.74,0,0,1,230.23,202.11Z" style="fill:#263238"></path><path d="M238.77,159.54s7-5.18,9.75-7,11.75,1.59,11.75,1.59-6.77-3.78-10.35-4.38-10.95,4.58-11.55,7S236,158.54,238.77,159.54Z" style="fill:#263238"></path><path d="M238.77,160a.51.51,0,0,1-.17,0c-1.32-.47-1.71-.61-1.83-1a.93.93,0,0,1,.32-.84,3.3,3.3,0,0,0,.8-1.49c.65-2.61,8.2-8,12.11-7.34,3.63.6,10.24,4.28,10.52,4.43a.51.51,0,0,1,.21.65.5.5,0,0,1-.63.26c-2.43-.92-9.19-3-11.3-1.64-2.75,1.76-9.66,6.9-9.73,6.95A.57.57,0,0,1,238.77,160Zm-.85-1.35.77.29c1.19-.89,7.07-5.23,9.56-6.83,1.43-.92,4.16-.65,6.68-.1a23.26,23.26,0,0,0-5.09-1.78c-3.31-.54-10.45,4.48-11,6.6A4.1,4.1,0,0,1,237.92,158.69Z" style="fill:#263238"></path><path d="M224.43,160.49a4.91,4.91,0,0,0-4.38-3c-3.38-.2-18.32,3.79-15.73,3.79s13.34-.2,16.13-.2A9.69,9.69,0,0,0,224.43,160.49Z" style="fill:#263238"></path><path d="M204.32,161.79a.76.76,0,0,1-.73-.32.57.57,0,0,1,0-.55c.61-1,13.7-4.09,16.47-3.92a5.37,5.37,0,0,1,4.82,3.32.51.51,0,0,1-.24.62,10.41,10.41,0,0,1-4.21.65c-1.42,0-4.9,0-8.32.1S205.59,161.79,204.32,161.79ZM219.76,158c-2.52,0-9.54,1.69-13.17,2.77l5.53-.08c3.42-.05,6.91-.1,8.33-.1a12.12,12.12,0,0,0,3.29-.38A4.42,4.42,0,0,0,220,158Z" style="fill:#263238"></path><path d="M258.68,171.88a40.41,40.41,0,0,1-9.16,1c-4-.2-7.57-1.4-6,.39s4.78,3.39,9.75,2.39S260.07,173.67,258.68,171.88Z" style="fill:#263238"></path><path d="M222.64,171.88a40.41,40.41,0,0,1-9.16,1c-4-.2-7.56-1.4-6,.39s4.78,3.39,9.76,2.39S224,173.67,222.64,171.88Z" style="fill:#263238"></path><path d="M156.38,286.64s6-33,8.72-36.23,32.42-27.52,34.05-29.15,13.35-19.35,13.9-17.17-1.36,11.72-4.91,16.89-8.44,11.45-8.44,11.45S218,237.06,219,238.15s7.3,14.65,7.63,16.34c.58,2.92-.26,6.05-2.72,6.27-2.24.19-16.89-7.36-16.89-7.36L195.34,255s-8.44,10.35-14.17,12.26a50.41,50.41,0,0,1-7.9,2.18l.28,20.16Z" style="fill:#fff"></path><path d="M173.55,290.14h-.09l-17.16-3a.52.52,0,0,1-.33-.21.52.52,0,0,1-.08-.37c.25-1.35,6.05-33.13,8.83-36.46,1.82-2.19,15.08-13.25,24.76-21.32,4.9-4.09,8.78-7.32,9.32-7.87s2.07-2.69,3.9-5.24c7.12-9.92,9.23-12.44,10.28-12.24a.71.71,0,0,1,.55.55c.59,2.36-1.38,12.05-5,17.3-2.88,4.19-6.68,9.16-8,10.86,4.26,1.09,17.78,4.61,18.84,5.66s7.41,14.83,7.76,16.61a7.25,7.25,0,0,1-.85,5.55,3.24,3.24,0,0,1-2.32,1.31c-2.28.2-15-6.28-17-7.34L195.6,255.5c-1.11,1.35-8.79,10.45-14.27,12.27a60.51,60.51,0,0,1-7.55,2.13l.27,19.73a.53.53,0,0,1-.18.39A.55.55,0,0,1,173.55,290.14ZM157,286.23,173,289l-.27-19.56a.51.51,0,0,1,.44-.5,49.88,49.88,0,0,0,7.81-2.16c5.51-1.84,13.85-12,13.93-12.1a.52.52,0,0,1,.32-.18L207,252.91a.42.42,0,0,1,.29.05c5.62,2.89,15.12,7.45,16.62,7.3a2.22,2.22,0,0,0,1.61-.92,6.24,6.24,0,0,0,.67-4.75c-.36-1.8-6.59-15.19-7.49-16.09-.85-.75-12.18-3.83-19.11-5.59a.5.5,0,0,1-.27-.79c0-.07,4.93-6.32,8.42-11.42s5.13-13.67,4.89-16.15c-1.52,1.12-6.4,7.93-9.11,11.7-1.93,2.69-3.45,4.81-4,5.36s-4.28,3.66-9.39,7.93c-9.11,7.59-22.87,19.07-24.64,21.19C163.36,253.28,158.7,276.75,157,286.23Z" style="fill:#263238"></path><path d="M226.67,255a.47.47,0,0,1-.41-.22c-3.17-4.67-8.45-12.29-9.12-12.82s-9.12-1.8-16.63-2.81a.5.5,0,1,1,.14-1c3.76.51,16.12,2.22,17.12,3s8.47,11.79,9.31,13a.5.5,0,0,1-.13.7A.57.57,0,0,1,226.67,255Z" style="fill:#263238"></path><path d="M226,259.13a.49.49,0,0,1-.38-.18c-2.14-2.47-6.42-7.34-7.31-8.09-.72-.58-9.16-2.74-16.75-4.48a.5.5,0,0,1-.37-.6.49.49,0,0,1,.6-.37c2.65.6,16,3.69,17.16,4.69s7.17,7.9,7.43,8.2a.49.49,0,0,1-.05.7A.48.48,0,0,1,226,259.13Z" style="fill:#263238"></path><path d="M226.32,384.84s-21.4-4-22.25-4.28-16-4.85-18-5.71-26.25-5.13-27.39-3.42-2.28,11.7-2.57,12.55-2.57,4.85-2,7.14a21.4,21.4,0,0,1,0,6.27s-.29,13.41,3.13,13.7,6.57-12.56,6.57-12.56,4.85,2.86,14.83,3.43,19.69-4.28,19.69-4.28L224.89,404Z" style="fill:#fff"></path><path d="M157.38,411.59h-.15c-3.7-.31-3.64-11.89-3.6-14.21a20.89,20.89,0,0,0,0-6.14c-.5-2,.89-5,1.64-6.57.17-.38.31-.68.37-.84s.25-1.39.43-2.63c.7-4.61,1.39-8.85,2.19-10.05,1.5-2.24,26.54,2.61,28,3.24s10.85,3.52,15.34,4.9l2.59.79c.65.21,13.63,2.67,22.19,4.27a.5.5,0,0,1,.41.53L225.39,404a.49.49,0,0,1-.2.37.47.47,0,0,1-.41.08l-26.36-6.23c-1.34.63-10.48,4.78-19.78,4.25-8.16-.47-12.9-2.42-14.47-3.19C163.37,402.37,160.71,411.59,157.38,411.59Zm3.36-40.08a3.46,3.46,0,0,0-1.65.23c-.72,1.08-1.56,6.63-2,9.61-.25,1.69-.38,2.51-.47,2.79s-.22.52-.42.95c-.64,1.38-2,4.27-1.57,5.91a21.59,21.59,0,0,1,0,6.46c-.11,5.32.65,13,2.69,13.13,2.2.14,4.86-7.37,6-12.17a.54.54,0,0,1,.29-.35.51.51,0,0,1,.45,0s4.89,2.8,14.61,3.36,19.34-4.18,19.44-4.23a.53.53,0,0,1,.33,0l26,6.14,1.35-18.08c-3.6-.67-21.06-3.94-21.88-4.22l-2.57-.79c-4.86-1.49-13.89-4.26-15.45-4.93C183.94,374.47,166.38,371.51,160.74,371.51Z" style="fill:#263238"></path><path d="M152.31,280.82,181,286.07,179.93,304s6.35,3,8.28,20.71,7.46,58.73,6.08,61.77-9.94,16.3-29.83,17.13-30.66-17.4-32.59-23.21,8.29-43.81,8.84-47.12,3.31-26,5.8-29.83a30.27,30.27,0,0,1,5.52-6.36Z" style="fill:#92E3A9"></path><path d="M163.14,404.15c-19.79,0-30-18.49-31.74-23.57-1.56-4.67,4.22-28.32,7.32-41,.8-3.28,1.38-5.65,1.5-6.35s.26-1.75.48-3.31c1.06-7.6,3.28-23.42,5.39-26.7a30.43,30.43,0,0,1,5.45-6.32l.27-16.07a.49.49,0,0,1,.18-.38.51.51,0,0,1,.41-.1l28.72,5.24a.5.5,0,0,1,.41.53l-1.08,17.64c1.33.86,6.54,5.17,8.26,20.94.48,4.42,1.2,10.38,2,16.69,2.93,24.32,5.09,43.11,4.08,45.34-.08.16-7.75,16.48-30.27,17.41ZM152.8,281.42l-.27,15.7a.49.49,0,0,1-.18.38,30,30,0,0,0-5.42,6.24c-2,3.09-4.27,19.36-5.24,26.3-.22,1.57-.39,2.75-.49,3.34-.12.74-.7,3.12-1.51,6.41-2.86,11.71-8.81,36.07-7.34,40.48,1.68,5,12.05,23.7,32.09,22.85,18.18-.75,27.38-12.4,29.4-16.83,1-2.15-2-26.8-4.16-44.8-.76-6.32-1.48-12.28-2-16.7-1.88-17.2-7.95-20.29-8-20.32a.51.51,0,0,1-.28-.48l1.08-17.51ZM152,297.11h0Z" style="fill:#263238"></path><path d="M175,302.31a41,41,0,0,1-4.86-.31.5.5,0,0,1-.44-.55.51.51,0,0,1,.56-.44,41,41,0,0,0,4.74.3.5.5,0,0,1,0,1Z" style="fill:#263238"></path><path d="M163.45,300.85h-.11a102,102,0,0,1-11.48-3.26.5.5,0,0,1,.34-.94,100.07,100.07,0,0,0,11.35,3.22.5.5,0,0,1,.38.6A.49.49,0,0,1,163.45,300.85Z" style="fill:#263238"></path><path d="M310.2,289.83l-2.85,73.61s-3.14.29-4.28,1.71a20.74,20.74,0,0,0-2,3.14s-28.81,1.14-42.51,5.14a132.46,132.46,0,0,0-22.82,8.84L223.18,382l-2.57,33.09,16.84.57s8.27,4.85,45.93,8.28,55.07,4.28,59.06-.29,5.71-11.7,6.28-15.4,7.42-26.54,7.42-59.64-31.1-81-37.95-91.87-14-10-18.83-8.84" style="fill:#92E3A9"></path><path d="M326.47,427.27c-9.55,0-23.53-1.06-43.13-2.84-35.46-3.23-44.88-7.67-46-8.28l-16.71-.57a.48.48,0,0,1-.48-.54L222.68,382a.49.49,0,0,1,.51-.46l12.43.28a135.42,135.42,0,0,1,22.8-8.82c12.86-3.75,39.28-5,42.34-5.15a20.23,20.23,0,0,1,1.92-3c1-1.25,3.24-1.7,4.19-1.84l2.83-73.19a.48.48,0,0,1,.52-.48.5.5,0,0,1,.48.52l-2.85,73.61a.5.5,0,0,1-.45.48c-.82.07-3.11.49-3.94,1.52a21,21,0,0,0-1.94,3.05.49.49,0,0,1-.43.28c-.28,0-28.91,1.18-42.39,5.12a134.45,134.45,0,0,0-22.73,8.8.57.57,0,0,1-.25.06l-12.08-.27-2.49,32.1,16.31.55a.61.61,0,0,1,.24.07c.08,0,8.74,4.85,45.73,8.21,37.5,3.41,54.86,4.2,58.64-.12,4.31-4.92,5.8-12.84,6.16-15.15.09-.63.35-1.71.73-3.36a240.75,240.75,0,0,0,6.68-56.2c0-21.14-12.49-51.56-37.11-90.41l-.76-1.19c-7.11-11.26-14.67-9.48-18.29-8.63a.51.51,0,0,1-.61-.37.5.5,0,0,1,.38-.6c5.87-1.38,12.77-1.38,19.37,9.06l.75,1.2c24.73,39,37.27,69.61,37.27,90.94a242.31,242.31,0,0,1-6.7,56.43c-.37,1.56-.63,2.69-.72,3.28-.37,2.38-1.91,10.53-6.4,15.66C340.81,426.27,335.72,427.27,326.47,427.27Z" style="fill:#263238"></path><path d="M307.35,363.94a.48.48,0,0,1-.43-.25.5.5,0,0,1,.09-.62l16.55-15.4a.49.49,0,0,1,.7,0,.5.5,0,0,1,0,.71l-15,14,15.49-4.5a.5.5,0,0,1,.28,1l-17.51,5.08Z" style="fill:#263238"></path><path d="M330.34,357.27a.5.5,0,0,1-.13-1l5.53-1.6a.49.49,0,0,1,.62.34.5.5,0,0,1-.34.62l-5.54,1.6A.32.32,0,0,1,330.34,357.27Z" style="fill:#263238"></path><path d="M326.75,373.07l-.18,0c-7.26-2.8-25.35-4.24-25.54-4.25a.5.5,0,0,1,.08-1c.75.06,18.42,1.47,25.82,4.31a.5.5,0,0,1-.18,1Z" style="fill:#263238"></path><path d="M331.89,387.91a.51.51,0,0,1-.4-.2c-.75-1-1.57-1.91-2.44-2.82a.5.5,0,0,1,.72-.69,37.74,37.74,0,0,1,2.51,2.9.5.5,0,0,1-.08.7A.53.53,0,0,1,331.89,387.91Z" style="fill:#263238"></path><path d="M325.92,381.82a.56.56,0,0,1-.32-.11,48.39,48.39,0,0,0-17.22-8.94.5.5,0,0,1,.23-1,49.34,49.34,0,0,1,17.63,9.13.5.5,0,0,1-.32.89Z" style="fill:#263238"></path><path d="M235.74,413.59a.5.5,0,0,1-.5-.5L235,385.42a.5.5,0,0,1,.49-.51h0a.5.5,0,0,1,.5.5l.29,27.67a.51.51,0,0,1-.5.51Z" style="fill:#263238"></path><path d="M233.74,406.74h-12a.5.5,0,0,1-.5-.5.5.5,0,0,1,.5-.5h12a.5.5,0,0,1,.5.5A.51.51,0,0,1,233.74,406.74Z" style="fill:#263238"></path><path d="M224.61,390.47a.5.5,0,0,1-.5-.47.49.49,0,0,1,.47-.52l4.85-.29a.5.5,0,0,1,.53.47.51.51,0,0,1-.47.53l-4.85.28Z" style="fill:#263238"></path></g></svg>